AbbrFesFont.ufo
<glyph name="exclam" format="2">
	<advance width="210" height="870"/>
	<unicode hex="0021"/>
	<note>
		exclam
	</note>
	<outline>
		<contour>
			<point x="93" y="374" type="curve" smooth="yes"/>
			<point x="102.333" y="374"/>
			<point x="108.333" y="385"/>
			<point x="111" y="407" type="curve" smooth="yes"/>
			<point x="112.333" y="421"/>
			<point x="117.333" y="441"/>
			<point x="126" y="467" type="curve" smooth="yes"/>
			<point x="133.333" y="484.333"/>
			<point x="137.333" y="503.667"/>
			<point x="138" y="525" type="curve"/>
			<point x="142" y="557" type="line"/>
			<point x="142.667" y="559"/>
			<point x="143" y="561"/>
			<point x="143" y="563" type="curve" smooth="yes"/>
			<point x="143" y="581.667"/>
			<point x="132" y="598"/>
			<point x="120" y="598" type="curve" smooth="yes"/>
			<point x="116" y="598"/>
			<point x="112.333" y="596.667"/>
			<point x="109" y="594" type="curve" smooth="yes"/>
			<point x="105" y="591.333"/>
			<point x="101" y="580.333"/>
			<point x="97" y="561" type="curve" smooth="yes"/>
			<point x="93.667" y="547"/>
			<point x="88.333" y="513"/>
			<point x="81" y="459" type="curve"/>
			<point x="76.333" y="441.667"/>
			<point x="74" y="425.333"/>
			<point x="74" y="410" type="curve" smooth="yes"/>
			<point x="74" y="386.667"/>
			<point x="80.333" y="374.667"/>
		</contour>
		<contour>
			<point x="99" y="205" type="curve" smooth="yes"/>
			<point x="103" y="205" type="line" smooth="yes"/>
			<point x="109.667" y="205"/>
			<point x="117.667" y="214"/>
			<point x="119" y="222" type="curve"/>
			<point x="119" y="234"/>
			<point x="98" y="257"/>
			<point x="82" y="257" type="curve" smooth="yes"/>
			<point x="72.667" y="257"/>
			<point x="67" y="251.333"/>
			<point x="65" y="240" type="curve"/>
			<point x="64" y="238" type="line"/>
			<point x="64" y="228.667"/>
			<point x="91" y="205"/>
		</contour>
	</outline>
</glyph>
<glyph name="quotedbl" format="2">
	<advance width="244" height="517"/>
	<unicode hex="0022"/>
	<note>
		quotedbl
	</note>
	<outline>
		<contour>
			<point x="91" y="554" type="curve" smooth="yes"/>
			<point x="95.667" y="554"/>
			<point x="99.333" y="555.333"/>
			<point x="102" y="558" type="curve"/>
			<point x="106.667" y="559.333"/>
			<point x="109.333" y="569.333"/>
			<point x="110" y="588" type="curve" smooth="yes"/>
			<point x="111.333" y="614.667"/>
			<point x="112.667" y="618"/>
			<point x="126" y="634" type="curve"/>
			<point x="124" y="626"/>
			<point x="122" y="613"/>
			<point x="120" y="595" type="curve"/>
			<point x="119.333" y="593.667"/>
			<point x="119" y="591"/>
			<point x="119" y="587" type="curve" smooth="yes"/>
			<point x="119" y="573.667"/>
			<point x="128.333" y="562"/>
			<point x="139" y="562" type="curve" smooth="yes"/>
			<point x="142.333" y="562"/>
			<point x="145" y="563.333"/>
			<point x="147" y="566" type="curve"/>
			<point x="163" y="610" type="line" smooth="yes"/>
			<point x="171.667" y="635.333"/>
			<point x="177.333" y="651"/>
			<point x="180" y="657" type="curve"/>
			<point x="180.667" y="661"/>
			<point x="181.333" y="664.667"/>
			<point x="182" y="668" type="curve"/>
			<point x="182" y="680"/>
			<point x="173.667" y="686"/>
			<point x="163" y="686" type="curve" smooth="yes"/>
			<point x="157.667" y="686"/>
			<point x="153.5" y="684.167"/>
			<point x="150.5" y="680.5" type="curve" smooth="yes"/>
			<point x="147.5" y="676.833"/>
			<point x="143.333" y="670"/>
			<point x="138" y="660" type="curve" smooth="yes"/>
			<point x="135" y="654" type="line"/>
			<point x="135" y="653.333"/>
			<point x="133.333" y="650.667"/>
			<point x="130" y="646" type="curve"/>
			<point x="129" y="643" type="line"/>
			<point x="126" y="634" type="line"/>
			<point x="130" y="639" type="line"/>
			<point x="129" y="643" type="line" smooth="yes"/>
			<point x="119" y="675"/>
			<point x="113.667" y="689.667"/>
			<point x="113" y="687" type="curve"/>
			<point x="108" y="689" type="line"/>
			<point x="106" y="689" type="line" smooth="yes"/>
			<point x="99.333" y="689"/>
			<point x="90" y="679.667"/>
			<point x="90" y="669" type="curve" smooth="yes"/>
			<point x="90" y="668" type="line"/>
			<point x="88" y="659" type="line" smooth="yes"/>
			<point x="87.333" y="655.667"/>
			<point x="84.333" y="647.333"/>
			<point x="79" y="634" type="curve" smooth="yes"/>
			<point x="71.667" y="611.333"/>
			<point x="68" y="595.667"/>
			<point x="68" y="587" type="curve" smooth="yes"/>
			<point x="68" y="581" type="line" smooth="yes"/>
			<point x="68" y="563.667"/>
			<point x="77.667" y="554"/>
		</contour>
	</outline>
</glyph>
<glyph name="numbersign" format="2">
	<advance width="338" height="863"/>
	<unicode hex="0023"/>
	<note>
		numbersign
	</note>
	<outline>
		<contour>
			<point x="162" y="212" type="curve" smooth="yes"/>
			<point x="168" y="212"/>
			<point x="173.667" y="215.667"/>
			<point x="179" y="223" type="curve"/>
			<point x="191" y="251"/>
			<point x="201" y="289.333"/>
			<point x="209" y="338" type="curve"/>
			<point x="210.333" y="356.667"/>
			<point x="213" y="366.667"/>
			<point x="217" y="368" type="curve" smooth="yes"/>
			<point x="234" y="372" type="line" smooth="yes"/>
			<point x="261.333" y="379.333"/>
			<point x="279" y="385.333"/>
			<point x="287" y="390" type="curve" smooth="yes"/>
			<point x="295" y="394.667"/>
			<point x="299" y="400"/>
			<point x="299" y="406" type="curve" smooth="yes"/>
			<point x="299" y="414"/>
			<point x="295" y="419.333"/>
			<point x="287" y="422" type="curve"/>
			<point x="285.667" y="423.333"/>
			<point x="283.667" y="424"/>
			<point x="281" y="424" type="curve" smooth="yes"/>
			<point x="275" y="424"/>
			<point x="268" y="422.667"/>
			<point x="260" y="420" type="curve" smooth="yes"/>
			<point x="248" y="416.667"/>
			<point x="241.333" y="415"/>
			<point x="240" y="415" type="curve" smooth="yes"/>
			<point x="236.667" y="415"/>
			<point x="234.667" y="416.333"/>
			<point x="234" y="419" type="curve"/>
			<point x="230.667" y="422.333"/>
			<point x="229" y="426"/>
			<point x="229" y="430" type="curve" smooth="yes"/>
			<point x="229" y="440.667"/>
			<point x="235.667" y="449.667"/>
			<point x="249" y="457" type="curve" smooth="yes"/>
			<point x="261" y="464.333"/>
			<point x="267" y="472"/>
			<point x="267" y="480" type="curve" smooth="yes"/>
			<point x="267" y="486.667"/>
			<point x="263" y="491.333"/>
			<point x="255" y="494" type="curve"/>
			<point x="246.333" y="498.667"/>
			<point x="242" y="505"/>
			<point x="242" y="513" type="curve"/>
			<point x="244" y="527" type="line"/>
			<point x="246" y="546" type="line" smooth="yes"/>
			<point x="246" y="550"/>
			<point x="246.667" y="554.333"/>
			<point x="248" y="559" type="curve" smooth="yes"/>
			<point x="248.667" y="561"/>
			<point x="249" y="563.667"/>
			<point x="249" y="567" type="curve" smooth="yes"/>
			<point x="249" y="572" type="line" smooth="yes"/>
			<point x="249" y="576"/>
			<point x="248" y="580"/>
			<point x="246" y="584" type="curve"/>
			<point x="244" y="586"/>
			<point x="239.667" y="588.333"/>
			<point x="233" y="591" type="curve"/>
			<point x="227.667" y="591"/>
			<point x="223" y="588.667"/>
			<point x="219" y="584" type="curve" smooth="yes"/>
			<point x="214.333" y="579.333"/>
			<point x="210.333" y="556"/>
			<point x="207" y="514" type="curve" smooth="yes"/>
			<point x="204" y="486" type="line"/>
			<point x="192" y="480"/>
			<point x="179.333" y="477"/>
			<point x="166" y="477" type="curve" smooth="yes"/>
			<point x="151.333" y="477"/>
			<point x="144" y="482.333"/>
			<point x="144" y="493" type="curve" smooth="yes"/>
			<point x="144" y="496.333"/>
			<point x="144.333" y="498.667"/>
			<point x="145" y="500" type="curve"/>
			<point x="145" y="502" type="line" smooth="yes"/>
			<point x="145" y="508"/>
			<point x="146.667" y="517"/>
			<point x="150" y="529" type="curve" smooth="yes"/>
			<point x="153.333" y="543.667"/>
			<point x="155" y="553"/>
			<point x="155" y="557" type="curve" smooth="yes"/>
			<point x="155" y="566.333"/>
			<point x="150" y="571"/>
			<point x="140" y="571" type="curve" smooth="yes"/>
			<point x="132" y="571"/>
			<point x="122.333" y="562.333"/>
			<point x="121" y="553" type="curve"/>
			<point x="114" y="531" type="line"/>
			<point x="109.333" y="521.667"/>
			<point x="107" y="513.667"/>
			<point x="107" y="507" type="curve" smooth="yes"/>
			<point x="107" y="480.333"/>
			<point x="93.333" y="465"/>
			<point x="68" y="465" type="curve" smooth="yes"/>
			<point x="57.333" y="465"/>
			<point x="52" y="461"/>
			<point x="52" y="453" type="curve" smooth="yes"/>
			<point x="52" y="445.667"/>
			<point x="59.667" y="441"/>
			<point x="75" y="439" type="curve" smooth="yes"/>
			<point x="92" y="437" type="line"/>
			<point x="92" y="403" type="line" smooth="yes"/>
			<point x="92" y="380.333"/>
			<point x="85.667" y="375"/>
			<point x="63" y="371" type="curve" smooth="yes"/>
			<point x="43.667" y="369"/>
			<point x="34" y="363.333"/>
			<point x="34" y="354" type="curve" smooth="yes"/>
			<point x="34" y="351.333"/>
			<point x="36" y="347"/>
			<point x="40" y="341" type="curve"/>
			<point x="41.333" y="337.667"/>
			<point x="48.667" y="335.333"/>
			<point x="62" y="334" type="curve" smooth="yes"/>
			<point x="74.667" y="332"/>
			<point x="81" y="328"/>
			<point x="81" y="322" type="curve" smooth="yes"/>
			<point x="81" y="316.667"/>
			<point x="78" y="304.667"/>
			<point x="72" y="286" type="curve" smooth="yes"/>
			<point x="66" y="266.667"/>
			<point x="63" y="253.333"/>
			<point x="63" y="246" type="curve" smooth="yes"/>
			<point x="63" y="236"/>
			<point x="67.333" y="231"/>
			<point x="76" y="231" type="curve"/>
			<point x="76.667" y="230.333"/>
			<point x="77.667" y="230"/>
			<point x="79" y="230" type="curve" smooth="yes"/>
			<point x="82.333" y="230"/>
			<point x="85.333" y="233.333"/>
			<point x="88" y="240" type="curve" smooth="yes"/>
			<point x="90.667" y="246.667"/>
			<point x="94" y="256.333"/>
			<point x="98" y="269" type="curve" smooth="yes"/>
			<point x="102.667" y="286.333"/>
			<point x="106.333" y="297"/>
			<point x="109" y="301" type="curve"/>
			<point x="113" y="314.333"/>
			<point x="130" y="346.333"/>
			<point x="146" y="349" type="curve" smooth="yes"/>
			<point x="151.333" y="349.667"/>
			<point x="156.333" y="350.333"/>
			<point x="161" y="351" type="curve" smooth="yes"/>
			<point x="169.667" y="351"/>
			<point x="174" y="347"/>
			<point x="174" y="339" type="curve"/>
			<point x="172" y="328" type="line" smooth="yes"/>
			<point x="171.333" y="317.333"/>
			<point x="168" y="301.667"/>
			<point x="162" y="281" type="curve" smooth="yes"/>
			<point x="156.667" y="266.333"/>
			<point x="152.333" y="249"/>
			<point x="149" y="229" type="curve" smooth="yes"/>
			<point x="149" y="227"/>
			<point x="148.667" y="225"/>
			<point x="148" y="223" type="curve"/>
			<point x="148" y="216.333"/>
			<point x="156.667" y="212"/>
		</contour>
		<contour>
			<point x="144" y="388" type="curve" smooth="yes"/>
			<point x="138.667" y="388"/>
			<point x="135" y="389.667"/>
			<point x="133" y="393" type="curve" smooth="yes"/>
			<point x="131" y="396.333"/>
			<point x="130" y="403.333"/>
			<point x="130" y="414" type="curve" smooth="yes"/>
			<point x="130" y="432.667"/>
			<point x="139" y="436.333"/>
			<point x="167" y="439" type="curve"/>
			<point x="167.667" y="439.667"/>
			<point x="169.333" y="440"/>
			<point x="172" y="440" type="curve" smooth="yes"/>
			<point x="186.667" y="440"/>
			<point x="195" y="432.667"/>
			<point x="195" y="422" type="curve" smooth="yes"/>
			<point x="195" y="415.333"/>
			<point x="192" y="409.667"/>
			<point x="186" y="405" type="curve" smooth="yes"/>
			<point x="173.333" y="393.667"/>
			<point x="159.333" y="388"/>
		</contour>
	</outline>
</glyph>
<glyph name="dollar" format="2">
	<advance width="339" height="1352"/>
	<unicode hex="0024"/>
	<note>
		dollar
	</note>
	<outline>
		<contour>
			<point x="182" y="111" type="curve" smooth="yes"/>
			<point x="184.667" y="111"/>
			<point x="188.667" y="112.667"/>
			<point x="194" y="116" type="curve"/>
			<point x="198" y="117.333"/>
			<point x="200" y="129"/>
			<point x="200" y="151" type="curve" smooth="yes"/>
			<point x="200" y="183"/>
			<point x="198" y="207.333"/>
			<point x="194" y="224" type="curve" smooth="yes"/>
			<point x="192" y="234.667"/>
			<point x="191" y="242"/>
			<point x="191" y="246" type="curve" smooth="yes"/>
			<point x="191" y="258"/>
			<point x="196" y="263"/>
			<point x="212" y="271" type="curve" smooth="yes"/>
			<point x="236" y="280.333"/>
			<point x="261" y="296"/>
			<point x="287" y="318" type="curve"/>
			<point x="296.333" y="328.667"/>
			<point x="301" y="340.667"/>
			<point x="301" y="354" type="curve" smooth="yes"/>
			<point x="301" y="368.667"/>
			<point x="296.667" y="381.667"/>
			<point x="288" y="393" type="curve"/>
			<point x="281.333" y="398.333"/>
			<point x="236.667" y="421.667"/>
			<point x="222" y="427" type="curve" smooth="yes"/>
			<point x="200.667" y="432.333"/>
			<point x="197" y="439.333"/>
			<point x="197" y="478" type="curve" smooth="yes"/>
			<point x="197" y="514" type="line" smooth="yes"/>
			<point x="198.333" y="545.333"/>
			<point x="200" y="563.667"/>
			<point x="202" y="569" type="curve" smooth="yes"/>
			<point x="204" y="575.667"/>
			<point x="211.333" y="581.333"/>
			<point x="224" y="586" type="curve" smooth="yes"/>
			<point x="234" y="588.667"/>
			<point x="239" y="592.667"/>
			<point x="239" y="598" type="curve" smooth="yes"/>
			<point x="239" y="600.667"/>
			<point x="238" y="604.333"/>
			<point x="236" y="609" type="curve" smooth="yes"/>
			<point x="233.333" y="617"/>
			<point x="228.333" y="621"/>
			<point x="221" y="621" type="curve" smooth="yes"/>
			<point x="217.667" y="621"/>
			<point x="212.333" y="620"/>
			<point x="205" y="618" type="curve" smooth="yes"/>
			<point x="203" y="617.333"/>
			<point x="199.667" y="617"/>
			<point x="195" y="617" type="curve"/>
			<point x="192" y="644" type="line" smooth="yes"/>
			<point x="190" y="675.333"/>
			<point x="185.333" y="691"/>
			<point x="178" y="691" type="curve" smooth="yes"/>
			<point x="174.667" y="691"/>
			<point x="170.667" y="689.667"/>
			<point x="166" y="687" type="curve"/>
			<point x="162" y="683"/>
			<point x="158" y="658.333"/>
			<point x="154" y="613" type="curve" smooth="yes"/>
			<point x="151.333" y="594.333"/>
			<point x="142.333" y="583.667"/>
			<point x="113" y="569" type="curve"/>
			<point x="80.333" y="549"/>
			<point x="64" y="531.333"/>
			<point x="64" y="516" type="curve" smooth="yes"/>
			<point x="64" y="510.667"/>
			<point x="66" y="505"/>
			<point x="70" y="499" type="curve" smooth="yes"/>
			<point x="96.667" y="457"/>
			<point x="117.333" y="432.667"/>
			<point x="132" y="426" type="curve" smooth="yes"/>
			<point x="150.667" y="416.667"/>
			<point x="152" y="412.667"/>
			<point x="152" y="390" type="curve" smooth="yes"/>
			<point x="154" y="351" type="line" smooth="yes"/>
			<point x="154.667" y="342.333"/>
			<point x="155" y="329.333"/>
			<point x="155" y="312" type="curve" smooth="yes"/>
			<point x="155" y="288"/>
			<point x="151" y="282"/>
			<point x="131" y="282" type="curve" smooth="yes"/>
			<point x="112" y="282" type="line" smooth="yes"/>
			<point x="68" y="283.333"/>
			<point x="61" y="287.333"/>
			<point x="53" y="314" type="curve" smooth="yes"/>
			<point x="49.667" y="323.333"/>
			<point x="46" y="328"/>
			<point x="42" y="328" type="curve" smooth="yes"/>
			<point x="35.333" y="328"/>
			<point x="29" y="317.667"/>
			<point x="29" y="307" type="curve" smooth="yes"/>
			<point x="29" y="293.667"/>
			<point x="32.333" y="282.667"/>
			<point x="39" y="274" type="curve" smooth="yes"/>
			<point x="49.667" y="256.667"/>
			<point x="70.667" y="248"/>
			<point x="120" y="244" type="curve" smooth="yes"/>
			<point x="140" y="242.667"/>
			<point x="151" y="241"/>
			<point x="153" y="239" type="curve" smooth="yes"/>
			<point x="156.333" y="235.667"/>
			<point x="159" y="215"/>
			<point x="161" y="177" type="curve" smooth="yes"/>
			<point x="164.333" y="138.333"/>
			<point x="167.667" y="117.667"/>
			<point x="171" y="115" type="curve" smooth="yes"/>
			<point x="173.667" y="112.333"/>
			<point x="177.333" y="111"/>
		</contour>
		<contour>
			<point x="203" y="309" type="curve" smooth="yes"/>
			<point x="197" y="309"/>
			<point x="193.333" y="315.667"/>
			<point x="192" y="329" type="curve" smooth="yes"/>
			<point x="190.667" y="338.333"/>
			<point x="188" y="360.333"/>
			<point x="188" y="375" type="curve" smooth="yes"/>
			<point x="188" y="385"/>
			<point x="191.333" y="390"/>
			<point x="198" y="390" type="curve" smooth="yes"/>
			<point x="205.333" y="390"/>
			<point x="216.333" y="386.667"/>
			<point x="231" y="380" type="curve" smooth="yes"/>
			<point x="251.667" y="371.333"/>
			<point x="262" y="363.333"/>
			<point x="262" y="356" type="curve"/>
			<point x="261.333" y="354"/>
			<point x="260.667" y="352"/>
			<point x="260" y="350" type="curve" smooth="yes"/>
			<point x="256" y="340.667"/>
			<point x="221.667" y="312.667"/>
			<point x="211" y="310" type="curve" smooth="yes"/>
			<point x="209" y="309.333"/>
			<point x="206.333" y="309"/>
		</contour>
		<contour>
			<point x="149" y="464" type="curve" smooth="yes"/>
			<point x="144.333" y="464"/>
			<point x="135.667" y="473"/>
			<point x="123" y="491" type="curve" smooth="yes"/>
			<point x="117" y="499" type="line" smooth="yes"/>
			<point x="113" y="503"/>
			<point x="111" y="507.333"/>
			<point x="111" y="512" type="curve" smooth="yes"/>
			<point x="111" y="521.333"/>
			<point x="123.333" y="531.667"/>
			<point x="148" y="543" type="curve"/>
			<point x="148.667" y="543.667"/>
			<point x="150" y="544"/>
			<point x="152" y="544" type="curve"/>
			<point x="154.667" y="542.667"/>
			<point x="156.333" y="537.333"/>
			<point x="157" y="528" type="curve" smooth="yes"/>
			<point x="157.667" y="521.333"/>
			<point x="158" y="509.667"/>
			<point x="158" y="493" type="curve" smooth="yes"/>
			<point x="158" y="473.667"/>
			<point x="155" y="464"/>
		</contour>
	</outline>
</glyph>
<glyph name="percent" format="2">
	<advance width="419" height="850"/>
	<unicode hex="0025"/>
	<note>
		percent
	</note>
	<outline>
		<contour>
			<point x="102" y="226" type="curve" smooth="yes"/>
			<point x="118.667" y="226"/>
			<point x="129" y="238.333"/>
			<point x="133" y="263" type="curve"/>
			<point x="137" y="273"/>
			<point x="142.333" y="283.333"/>
			<point x="149" y="294" type="curve" smooth="yes"/>
			<point x="153" y="300"/>
			<point x="158.667" y="308.667"/>
			<point x="166" y="320" type="curve"/>
			<point x="178" y="346"/>
			<point x="205" y="390.333"/>
			<point x="247" y="453" type="curve" smooth="yes"/>
			<point x="257" y="468.333"/>
			<point x="266.667" y="483.667"/>
			<point x="276" y="499" type="curve" smooth="yes"/>
			<point x="279.333" y="505.667"/>
			<point x="288" y="516.667"/>
			<point x="302" y="532" type="curve" smooth="yes"/>
			<point x="315.333" y="547.333"/>
			<point x="323.333" y="557.667"/>
			<point x="326" y="563" type="curve"/>
			<point x="326" y="573"/>
			<point x="321.667" y="578"/>
			<point x="313" y="578" type="curve" smooth="yes"/>
			<point x="308.333" y="578"/>
			<point x="302" y="576.333"/>
			<point x="294" y="573" type="curve" smooth="yes"/>
			<point x="271.333" y="566.333"/>
			<point x="259" y="546.667"/>
			<point x="239" y="508" type="curve" smooth="yes"/>
			<point x="231.667" y="491.333"/>
			<point x="224.667" y="479"/>
			<point x="218" y="471" type="curve" smooth="yes"/>
			<point x="210" y="462.333"/>
			<point x="202" y="450.333"/>
			<point x="194" y="435" type="curve" smooth="yes"/>
			<point x="175" y="403" type="line"/>
			<point x="148.333" y="367"/>
			<point x="85.667" y="258"/>
			<point x="83" y="242" type="curve"/>
			<point x="83" y="231.333"/>
			<point x="89.333" y="226"/>
		</contour>
		<contour>
			<point x="91" y="445" type="curve" smooth="yes"/>
			<point x="83" y="445"/>
			<point x="79" y="447.333"/>
			<point x="79" y="452" type="curve" smooth="yes"/>
			<point x="79" y="464"/>
			<point x="101" y="484"/>
			<point x="113" y="484" type="curve" smooth="yes"/>
			<point x="118.333" y="484"/>
			<point x="121" y="480.667"/>
			<point x="121" y="474" type="curve" smooth="yes"/>
			<point x="121" y="463.333"/>
			<point x="101.667" y="445"/>
		</contour>
		<contour>
			<point x="75" y="402" type="curve" smooth="yes"/>
			<point x="102.833" y="402"/>
			<point x="155.298" y="431.194"/>
			<point x="166" y="474" type="curve"/>
			<point x="166.667" y="474.667"/>
			<point x="167" y="475.667"/>
			<point x="167" y="477" type="curve" smooth="yes"/>
			<point x="167" y="498.333"/>
			<point x="134" y="519"/>
			<point x="102" y="519" type="curve" smooth="yes"/>
			<point x="74.667" y="519"/>
			<point x="59.333" y="507.333"/>
			<point x="56" y="484" type="curve"/>
			<point x="53.333" y="477.333"/>
			<point x="43" y="456"/>
			<point x="43" y="436" type="curve" smooth="yes"/>
			<point x="43" y="424.667"/>
			<point x="48" y="415.333"/>
			<point x="58" y="408" type="curve" smooth="yes"/>
			<point x="62.667" y="404"/>
			<point x="68.333" y="402"/>
		</contour>
		<contour>
			<point x="309" y="298" type="curve" smooth="yes"/>
			<point x="344.592" y="298"/>
			<point x="386" y="335.343"/>
			<point x="386" y="370" type="curve" smooth="yes"/>
			<point x="386" y="394"/>
			<point x="356.667" y="424"/>
			<point x="330" y="424" type="curve" smooth="yes"/>
			<point x="314" y="424"/>
			<point x="296.667" y="415.667"/>
			<point x="278" y="399" type="curve"/>
			<point x="276.667" y="394.333"/>
			<point x="276" y="390.667"/>
			<point x="276" y="388" type="curve" smooth="yes"/>
			<point x="276" y="378" type="line" smooth="yes"/>
			<point x="276" y="370"/>
			<point x="274.667" y="363"/>
			<point x="272" y="357" type="curve"/>
			<point x="268" y="342" type="line"/>
			<point x="272" y="328" type="line" smooth="yes"/>
			<point x="278.667" y="308"/>
			<point x="291" y="298"/>
		</contour>
		<contour>
			<point x="320" y="341" type="curve" smooth="yes"/>
			<point x="315.333" y="341"/>
			<point x="313" y="344.333"/>
			<point x="313" y="351" type="curve" smooth="yes"/>
			<point x="313" y="363"/>
			<point x="317.333" y="373.667"/>
			<point x="326" y="383" type="curve" smooth="yes"/>
			<point x="329.333" y="386.333"/>
			<point x="332.667" y="388"/>
			<point x="336" y="388" type="curve" smooth="yes"/>
			<point x="344" y="388"/>
			<point x="354" y="380.333"/>
			<point x="354" y="371" type="curve" smooth="yes"/>
			<point x="354" y="367"/>
			<point x="352.667" y="363.667"/>
			<point x="350" y="361" type="curve"/>
			<point x="346" y="351.667"/>
			<point x="329.333" y="341"/>
		</contour>
	</outline>
</glyph>
<glyph name="ampersand" format="2">
	<advance width="288" height="840"/>
	<unicode hex="0026"/>
	<note>
		ampersand
	</note>
	<outline>
		<contour>
			<point x="224" y="235" type="curve" smooth="yes"/>
			<point x="234.667" y="235"/>
			<point x="247" y="249.667"/>
			<point x="247" y="259" type="curve"/>
			<point x="241" y="270" type="line" smooth="yes"/>
			<point x="223" y="305.333"/>
			<point x="209.667" y="328.333"/>
			<point x="201" y="339" type="curve" smooth="yes"/>
			<point x="189" y="355"/>
			<point x="186.667" y="371"/>
			<point x="184" y="395" type="curve" smooth="yes"/>
			<point x="182.667" y="408.333"/>
			<point x="181" y="418.333"/>
			<point x="179" y="425" type="curve" smooth="yes"/>
			<point x="177" y="429"/>
			<point x="176" y="432.667"/>
			<point x="176" y="436" type="curve" smooth="yes"/>
			<point x="176" y="445.333"/>
			<point x="181.667" y="458.333"/>
			<point x="193" y="475" type="curve" smooth="yes"/>
			<point x="208.333" y="495.667"/>
			<point x="216" y="510.333"/>
			<point x="216" y="519" type="curve" smooth="yes"/>
			<point x="216" y="526.333"/>
			<point x="212.667" y="533"/>
			<point x="206" y="539" type="curve" smooth="yes"/>
			<point x="201.333" y="543"/>
			<point x="189.333" y="550"/>
			<point x="170" y="560" type="curve" smooth="yes"/>
			<point x="159.333" y="566"/>
			<point x="143.333" y="569"/>
			<point x="122" y="569" type="curve" smooth="yes"/>
			<point x="95.333" y="569"/>
			<point x="82" y="555.667"/>
			<point x="82" y="529" type="curve" smooth="yes"/>
			<point x="82" y="511"/>
			<point x="87.333" y="490.333"/>
			<point x="98" y="467" type="curve" smooth="yes"/>
			<point x="107.333" y="443"/>
			<point x="112" y="429.333"/>
			<point x="112" y="426" type="curve" smooth="yes"/>
			<point x="112" y="422.667"/>
			<point x="111.667" y="420.333"/>
			<point x="111" y="419" type="curve" smooth="yes"/>
			<point x="105.667" y="407"/>
			<point x="68" y="354"/>
			<point x="56" y="342" type="curve" smooth="yes"/>
			<point x="50" y="334.667"/>
			<point x="46.667" y="329.667"/>
			<point x="46" y="327" type="curve"/>
			<point x="42" y="319"/>
			<point x="35" y="303.667"/>
			<point x="35" y="297" type="curve" smooth="yes"/>
			<point x="35" y="289"/>
			<point x="42" y="284"/>
			<point x="56" y="282" type="curve"/>
			<point x="57.333" y="280.667"/>
			<point x="59" y="280"/>
			<point x="61" y="280" type="curve" smooth="yes"/>
			<point x="70.333" y="280"/>
			<point x="95.667" y="289.667"/>
			<point x="137" y="309" type="curve"/>
			<point x="149.667" y="316.333"/>
			<point x="158" y="320.333"/>
			<point x="162" y="321" type="curve" smooth="yes"/>
			<point x="165.333" y="321"/>
			<point x="168.667" y="318.333"/>
			<point x="172" y="313" type="curve" smooth="yes"/>
			<point x="201" y="261" type="line" smooth="yes"/>
			<point x="211" y="243.667"/>
			<point x="218.667" y="235"/>
		</contour>
		<contour>
			<point x="109" y="332" type="curve" smooth="yes"/>
			<point x="105.667" y="332"/>
			<point x="104" y="334.333"/>
			<point x="104" y="339" type="curve" smooth="yes"/>
			<point x="104" y="345.667"/>
			<point x="116.333" y="366.667"/>
			<point x="123" y="372" type="curve"/>
			<point x="125.667" y="373.333"/>
			<point x="128" y="374"/>
			<point x="130" y="374" type="curve" smooth="yes"/>
			<point x="135.333" y="374"/>
			<point x="138.667" y="370.333"/>
			<point x="140" y="363" type="curve"/>
			<point x="140" y="353.667"/>
			<point x="119.667" y="332"/>
		</contour>
		<contour>
			<point x="146" y="468" type="curve" smooth="yes"/>
			<point x="144.667" y="468"/>
			<point x="143.667" y="468.333"/>
			<point x="143" y="469" type="curve" smooth="yes"/>
			<point x="133.667" y="478.333"/>
			<point x="123" y="502.333"/>
			<point x="123" y="517" type="curve" smooth="yes"/>
			<point x="123" y="527"/>
			<point x="128.333" y="532"/>
			<point x="139" y="532" type="curve" smooth="yes"/>
			<point x="143.667" y="532"/>
			<point x="149.333" y="531"/>
			<point x="156" y="529" type="curve" smooth="yes"/>
			<point x="167.333" y="525.667"/>
			<point x="173" y="520"/>
			<point x="173" y="512" type="curve" smooth="yes"/>
			<point x="173" y="498.667"/>
			<point x="154" y="468"/>
		</contour>
	</outline>
</glyph>
<glyph name="quotesingle" format="2">
	<advance width="114" height="475"/>
	<unicode hex="0027"/>
	<note>
		quotesingle
	</note>
	<outline>
		<contour>
			<point x="58" y="601" type="curve" smooth="yes"/>
			<point x="60.667" y="601"/>
			<point x="65.667" y="605"/>
			<point x="73" y="613" type="curve" smooth="yes"/>
			<point x="77" y="617"/>
			<point x="79" y="623.333"/>
			<point x="79" y="632" type="curve" smooth="yes"/>
			<point x="79" y="636.667"/>
			<point x="78.667" y="641"/>
			<point x="78" y="645" type="curve" smooth="yes"/>
			<point x="77.333" y="648.333"/>
			<point x="77" y="653.667"/>
			<point x="77" y="661" type="curve" smooth="yes"/>
			<point x="79" y="691" type="line"/>
			<point x="81" y="714" type="line" smooth="yes"/>
			<point x="81" y="720"/>
			<point x="80" y="723"/>
			<point x="78" y="723" type="curve" smooth="yes"/>
			<point x="55.333" y="721.667"/>
			<point x="39" y="706.667"/>
			<point x="35" y="684" type="curve" smooth="yes"/>
			<point x="33" y="676"/>
			<point x="32" y="666.667"/>
			<point x="32" y="656" type="curve" smooth="yes"/>
			<point x="32" y="642"/>
			<point x="33.333" y="631"/>
			<point x="36" y="623" type="curve" smooth="yes"/>
			<point x="39.333" y="613.667"/>
			<point x="42.667" y="609"/>
			<point x="46" y="609" type="curve" smooth="yes"/>
			<point x="46.667" y="609"/>
			<point x="49.333" y="607.333"/>
			<point x="54" y="604" type="curve" smooth="yes"/>
			<point x="56" y="602"/>
			<point x="57.333" y="601"/>
		</contour>
	</outline>
</glyph>
<glyph name="parenleft" format="2">
	<advance width="222" height="896"/>
	<unicode hex="0028"/>
	<note>
		parenleft
	</note>
	<outline>
		<contour>
			<point x="162" y="171" type="curve" smooth="yes"/>
			<point x="174" y="171"/>
			<point x="187" y="181.333"/>
			<point x="187" y="192" type="curve" smooth="yes"/>
			<point x="187" y="193" type="line" smooth="yes"/>
			<point x="187" y="199.667"/>
			<point x="178.333" y="209.667"/>
			<point x="161" y="223" type="curve" smooth="yes"/>
			<point x="144.333" y="235.667"/>
			<point x="136" y="246.333"/>
			<point x="136" y="255" type="curve" smooth="yes"/>
			<point x="136" y="256" type="line"/>
			<point x="129" y="282" type="line" smooth="yes"/>
			<point x="117" y="328"/>
			<point x="110.667" y="357.333"/>
			<point x="110" y="370" type="curve" smooth="yes"/>
			<point x="110" y="378" type="line"/>
			<point x="106" y="403.333"/>
			<point x="104" y="420.333"/>
			<point x="104" y="429" type="curve"/>
			<point x="100" y="458" type="line"/>
			<point x="100" y="504.667"/>
			<point x="129" y="568.667"/>
			<point x="153" y="590" type="curve" smooth="yes"/>
			<point x="161" y="597" type="line" smooth="yes"/>
			<point x="165" y="599.667"/>
			<point x="167" y="601.667"/>
			<point x="167" y="603" type="curve" smooth="yes"/>
			<point x="167" y="609.667"/>
			<point x="159" y="615"/>
			<point x="147" y="615" type="curve" smooth="yes"/>
			<point x="142.333" y="615"/>
			<point x="138.833" y="614.167"/>
			<point x="136.5" y="612.5" type="curve" smooth="yes"/>
			<point x="134.167" y="610.833"/>
			<point x="129.667" y="606.333"/>
			<point x="123" y="599" type="curve" smooth="yes"/>
			<point x="89" y="557"/>
			<point x="72" y="530.667"/>
			<point x="72" y="520" type="curve"/>
			<point x="65.333" y="494.667"/>
			<point x="62" y="472.333"/>
			<point x="62" y="453" type="curve" smooth="yes"/>
			<point x="62" y="441"/>
			<point x="62.667" y="429.667"/>
			<point x="64" y="419" type="curve" smooth="yes"/>
			<point x="69.333" y="377"/>
			<point x="73.333" y="351"/>
			<point x="76" y="341" type="curve" smooth="yes"/>
			<point x="82" y="318" type="line" smooth="yes"/>
			<point x="96.667" y="256.667"/>
			<point x="110.333" y="218.333"/>
			<point x="123" y="203" type="curve" smooth="yes"/>
			<point x="134.333" y="187.667"/>
			<point x="142" y="179"/>
			<point x="146" y="177" type="curve"/>
			<point x="149.333" y="173"/>
			<point x="154.667" y="171"/>
		</contour>
	</outline>
</glyph>
<glyph name="parenright" format="2">
	<advance width="257" height="892"/>
	<unicode hex="0029"/>
	<note>
		parenright
	</note>
	<outline>
		<contour>
			<point x="45" y="184" type="curve" smooth="yes"/>
			<point x="67.667" y="184"/>
			<point x="113" y="210.667"/>
			<point x="121" y="224" type="curve" smooth="yes"/>
			<point x="141" y="252" type="line" smooth="yes"/>
			<point x="167.667" y="289.333"/>
			<point x="173.333" y="298"/>
			<point x="184" y="334" type="curve" smooth="yes"/>
			<point x="189.333" y="356"/>
			<point x="193.333" y="380"/>
			<point x="196" y="406" type="curve" smooth="yes"/>
			<point x="197.333" y="418"/>
			<point x="198" y="429.333"/>
			<point x="198" y="440" type="curve" smooth="yes"/>
			<point x="198" y="474"/>
			<point x="195.333" y="498"/>
			<point x="190" y="512" type="curve" smooth="yes"/>
			<point x="175.333" y="548"/>
			<point x="151" y="588.667"/>
			<point x="131" y="602" type="curve"/>
			<point x="118.333" y="614"/>
			<point x="108" y="620"/>
			<point x="100" y="620" type="curve" smooth="yes"/>
			<point x="92" y="620"/>
			<point x="82" y="614"/>
			<point x="82" y="606" type="curve" smooth="yes"/>
			<point x="82" y="601.333"/>
			<point x="89" y="590.667"/>
			<point x="103" y="574" type="curve" smooth="yes"/>
			<point x="122.333" y="550"/>
			<point x="136.333" y="529.333"/>
			<point x="145" y="512" type="curve" smooth="yes"/>
			<point x="160" y="482" type="line"/>
			<point x="160" y="436" type="line" smooth="yes"/>
			<point x="160" y="364"/>
			<point x="148" y="318"/>
			<point x="112" y="266" type="curve" smooth="yes"/>
			<point x="93.333" y="236.667"/>
			<point x="82.667" y="228"/>
			<point x="56" y="216" type="curve" smooth="yes"/>
			<point x="46" y="211.333"/>
			<point x="39.333" y="207.333"/>
			<point x="36" y="204" type="curve" smooth="yes"/>
			<point x="33.333" y="201.333"/>
			<point x="32" y="198"/>
			<point x="32" y="194" type="curve" smooth="yes"/>
			<point x="32" y="187.333"/>
			<point x="36.333" y="184"/>
		</contour>
	</outline>
</glyph>
<glyph name="asterisk" format="2">
	<advance width="241" height="517"/>
	<unicode hex="002A"/>
	<note>
		asterisk
	</note>
	<outline>
		<contour>
			<point x="191" y="586" type="curve" smooth="yes"/>
			<point x="195" y="586"/>
			<point x="201" y="591.333"/>
			<point x="201" y="598" type="curve" smooth="yes"/>
			<point x="201" y="604.667"/>
			<point x="195.333" y="614"/>
			<point x="184" y="626" type="curve" smooth="yes"/>
			<point x="166.667" y="642.667"/>
			<point x="158" y="654.667"/>
			<point x="158" y="662" type="curve" smooth="yes"/>
			<point x="158" y="665.333"/>
			<point x="160" y="668"/>
			<point x="164" y="670" type="curve" smooth="yes"/>
			<point x="190.667" y="682.667"/>
			<point x="204" y="692.333"/>
			<point x="204" y="699" type="curve" smooth="yes"/>
			<point x="204" y="704.333"/>
			<point x="199.667" y="709"/>
			<point x="193" y="709" type="curve" smooth="yes"/>
			<point x="188.333" y="709"/>
			<point x="179.333" y="705.667"/>
			<point x="166" y="699" type="curve" smooth="yes"/>
			<point x="152.667" y="692.333"/>
			<point x="143.333" y="689"/>
			<point x="138" y="689" type="curve" smooth="yes"/>
			<point x="134" y="689"/>
			<point x="131" y="689.333"/>
			<point x="131" y="692" type="curve"/>
			<point x="129.667" y="694.667"/>
			<point x="129" y="700.667"/>
			<point x="129" y="710" type="curve" smooth="yes"/>
			<point x="129" y="726"/>
			<point x="123.333" y="748.667"/>
			<point x="118" y="754" type="curve"/>
			<point x="117.333" y="755.333"/>
			<point x="115.667" y="756"/>
			<point x="113" y="756" type="curve" smooth="yes"/>
			<point x="111.667" y="756"/>
			<point x="109.667" y="754.667"/>
			<point x="107" y="752" type="curve" smooth="yes"/>
			<point x="104.333" y="748.667"/>
			<point x="103" y="734.333"/>
			<point x="103" y="709" type="curve" smooth="yes"/>
			<point x="103" y="697.667"/>
			<point x="102.333" y="690.333"/>
			<point x="101" y="687" type="curve" smooth="yes"/>
			<point x="99.667" y="683.667"/>
			<point x="97.333" y="682"/>
			<point x="94" y="682" type="curve" smooth="yes"/>
			<point x="87" y="683" type="line" smooth="yes"/>
			<point x="83" y="683.667"/>
			<point x="79" y="684"/>
			<point x="75" y="684" type="curve" smooth="yes"/>
			<point x="67.667" y="684"/>
			<point x="63.333" y="683.667"/>
			<point x="62" y="683" type="curve" smooth="yes"/>
			<point x="54.667" y="679.667"/>
			<point x="51" y="674.333"/>
			<point x="51" y="667" type="curve" smooth="yes"/>
			<point x="51" y="658.333"/>
			<point x="56" y="654"/>
			<point x="66" y="654" type="curve"/>
			<point x="68.667" y="654.667"/>
			<point x="71" y="655"/>
			<point x="73" y="655" type="curve" smooth="yes"/>
			<point x="83" y="655" type="line" smooth="yes"/>
			<point x="86.333" y="655"/>
			<point x="88.333" y="654"/>
			<point x="89" y="652" type="curve" smooth="yes"/>
			<point x="89" y="651.333"/>
			<point x="85.333" y="643.333"/>
			<point x="78" y="628" type="curve" smooth="yes"/>
			<point x="70.667" y="612"/>
			<point x="67" y="602.333"/>
			<point x="67" y="599" type="curve" smooth="yes"/>
			<point x="67" y="591"/>
			<point x="73.333" y="587"/>
			<point x="80" y="587" type="curve" smooth="yes"/>
			<point x="85.333" y="587"/>
			<point x="90.667" y="593.333"/>
			<point x="92" y="600" type="curve" smooth="yes"/>
			<point x="93.333" y="608"/>
			<point x="108.333" y="639.333"/>
			<point x="115" y="646" type="curve"/>
			<point x="118.333" y="648"/>
			<point x="121" y="649"/>
			<point x="123" y="649" type="curve" smooth="yes"/>
			<point x="131.667" y="649"/>
			<point x="139.333" y="643"/>
			<point x="146" y="631" type="curve"/>
			<point x="147.333" y="624.333"/>
			<point x="172" y="599.667"/>
			<point x="184" y="589" type="curve" smooth="yes"/>
			<point x="186.667" y="587"/>
			<point x="189" y="586"/>
		</contour>
	</outline>
</glyph>
<glyph name="plus" format="2">
	<advance width="336" height="804"/>
	<unicode hex="002B"/>
	<note>
		plus
	</note>
	<outline>
		<contour>
			<point x="175" y="271" type="curve" smooth="yes"/>
			<point x="179" y="271"/>
			<point x="183.333" y="272.667"/>
			<point x="188" y="276" type="curve"/>
			<point x="190" y="279.333"/>
			<point x="191" y="288.333"/>
			<point x="191" y="303" type="curve" smooth="yes"/>
			<point x="190" y="339" type="line" smooth="yes"/>
			<point x="190" y="384.333"/>
			<point x="193.667" y="413.667"/>
			<point x="201" y="427" type="curve" smooth="yes"/>
			<point x="205" y="434.333"/>
			<point x="222.333" y="439"/>
			<point x="253" y="441" type="curve" smooth="yes"/>
			<point x="269" y="442.333"/>
			<point x="281.333" y="445.667"/>
			<point x="290" y="451" type="curve" smooth="yes"/>
			<point x="299.333" y="457"/>
			<point x="304" y="463.333"/>
			<point x="304" y="470" type="curve" smooth="yes"/>
			<point x="304" y="480"/>
			<point x="297.333" y="485"/>
			<point x="284" y="485" type="curve" smooth="yes"/>
			<point x="264" y="483" type="line" smooth="yes"/>
			<point x="254" y="481"/>
			<point x="246.333" y="480"/>
			<point x="241" y="480" type="curve" smooth="yes"/>
			<point x="235" y="480"/>
			<point x="231" y="480.333"/>
			<point x="229" y="481" type="curve"/>
			<point x="200" y="481" type="line"/>
			<point x="197.333" y="510.333"/>
			<point x="195" y="526"/>
			<point x="193" y="528" type="curve" smooth="yes"/>
			<point x="189.667" y="531.333"/>
			<point x="185" y="533"/>
			<point x="179" y="533" type="curve" smooth="yes"/>
			<point x="174.333" y="533"/>
			<point x="171" y="532"/>
			<point x="169" y="530" type="curve" smooth="yes"/>
			<point x="165.667" y="526.667"/>
			<point x="162" y="514"/>
			<point x="158" y="492" type="curve" smooth="yes"/>
			<point x="156" y="480"/>
			<point x="154.333" y="474"/>
			<point x="153" y="474" type="curve"/>
			<point x="147.667" y="470"/>
			<point x="130.667" y="466.333"/>
			<point x="102" y="463" type="curve" smooth="yes"/>
			<point x="72.667" y="459.667"/>
			<point x="54.333" y="456"/>
			<point x="47" y="452" type="curve" smooth="yes"/>
			<point x="43" y="450"/>
			<point x="41" y="447"/>
			<point x="41" y="443" type="curve" smooth="yes"/>
			<point x="41" y="437"/>
			<point x="44" y="432.333"/>
			<point x="50" y="429" type="curve" smooth="yes"/>
			<point x="56" y="425"/>
			<point x="66" y="423"/>
			<point x="80" y="423" type="curve" smooth="yes"/>
			<point x="87.333" y="423.667"/>
			<point x="94.667" y="424"/>
			<point x="102" y="424" type="curve" smooth="yes"/>
			<point x="123" y="424" type="line" smooth="yes"/>
			<point x="133.667" y="424"/>
			<point x="142" y="423.333"/>
			<point x="148" y="422" type="curve"/>
			<point x="152" y="420"/>
			<point x="154" y="416.667"/>
			<point x="154" y="412" type="curve" smooth="yes"/>
			<point x="153" y="401" type="line" smooth="yes"/>
			<point x="151.667" y="392.333"/>
			<point x="151" y="382"/>
			<point x="151" y="370" type="curve" smooth="yes"/>
			<point x="151" y="330"/>
			<point x="152.333" y="304.667"/>
			<point x="155" y="294" type="curve"/>
			<point x="155" y="280.667"/>
			<point x="164.333" y="271"/>
		</contour>
	</outline>
</glyph>
<glyph name="comma" format="2">
	<advance width="170" height="1330"/>
	<unicode hex="002C"/>
	<note>
		comma
	</note>
	<outline>
		<contour>
			<point x="87" y="144" type="curve" smooth="yes"/>
			<point x="95" y="144"/>
			<point x="106.333" y="159.333"/>
			<point x="121" y="190" type="curve" smooth="yes"/>
			<point x="133" y="214.667"/>
			<point x="139" y="236"/>
			<point x="139" y="254" type="curve" smooth="yes"/>
			<point x="139" y="273.333"/>
			<point x="132" y="286.333"/>
			<point x="118" y="293" type="curve"/>
			<point x="113.333" y="296.333"/>
			<point x="108.667" y="298"/>
			<point x="104" y="298" type="curve" smooth="yes"/>
			<point x="89.333" y="298"/>
			<point x="75" y="286"/>
			<point x="75" y="274" type="curve" smooth="yes"/>
			<point x="75" y="268" type="line" smooth="yes"/>
			<point x="75" y="253.333"/>
			<point x="79.333" y="249"/>
			<point x="102" y="245" type="curve"/>
			<point x="104.667" y="243.667"/>
			<point x="106" y="241"/>
			<point x="106" y="237" type="curve" smooth="yes"/>
			<point x="106" y="234.333"/>
			<point x="104.667" y="228.333"/>
			<point x="102" y="219" type="curve" smooth="yes"/>
			<point x="98" y="206.333"/>
			<point x="95.667" y="198.667"/>
			<point x="95" y="196" type="curve" smooth="yes"/>
			<point x="94.333" y="190.667"/>
			<point x="91.667" y="182.667"/>
			<point x="87" y="172" type="curve" smooth="yes"/>
			<point x="83" y="161.333"/>
			<point x="81" y="154.333"/>
			<point x="81" y="151" type="curve" smooth="yes"/>
			<point x="81" y="146.333"/>
			<point x="83" y="144"/>
		</contour>
	</outline>
</glyph>
<glyph name="hyphen" format="2">
	<advance width="346" height="699"/>
	<unicode hex="002D"/>
	<note>
		hyphen
	</note>
	<outline>
		<contour>
			<point x="102" y="376" type="curve" smooth="yes"/>
			<point x="112.667" y="376"/>
			<point x="127.333" y="377"/>
			<point x="146" y="379" type="curve"/>
			<point x="156.667" y="381.667"/>
			<point x="178.667" y="383"/>
			<point x="212" y="383" type="curve" smooth="yes"/>
			<point x="229.333" y="383.667"/>
			<point x="245.833" y="384.5"/>
			<point x="261.5" y="385.5" type="curve" smooth="yes"/>
			<point x="277.167" y="386.5"/>
			<point x="286" y="388.333"/>
			<point x="288" y="391" type="curve"/>
			<point x="293.333" y="393.667"/>
			<point x="296" y="398"/>
			<point x="296" y="404" type="curve" smooth="yes"/>
			<point x="296" y="408.667"/>
			<point x="294" y="412"/>
			<point x="290" y="414" type="curve" smooth="yes"/>
			<point x="264.667" y="422.667"/>
			<point x="242.667" y="427"/>
			<point x="224" y="427" type="curve" smooth="yes"/>
			<point x="213.333" y="427"/>
			<point x="197.333" y="425.667"/>
			<point x="176" y="423" type="curve" smooth="yes"/>
			<point x="151.333" y="419.667"/>
			<point x="127.333" y="417.667"/>
			<point x="104" y="417" type="curve" smooth="yes"/>
			<point x="82" y="416.333"/>
			<point x="68.333" y="414.667"/>
			<point x="63" y="412" type="curve" smooth="yes"/>
			<point x="57.667" y="408.667"/>
			<point x="55" y="403"/>
			<point x="55" y="395" type="curve" smooth="yes"/>
			<point x="55" y="393" type="line" smooth="yes"/>
			<point x="55" y="391"/>
			<point x="55.667" y="389.333"/>
			<point x="57" y="388" type="curve" smooth="yes"/>
			<point x="65" y="382" type="line"/>
			<point x="73" y="378"/>
			<point x="85.333" y="376"/>
		</contour>
	</outline>
</glyph>
<glyph name="period" format="2">
	<advance width="106" height="860"/>
	<unicode hex="002E"/>
	<note>
		period
	</note>
	<outline>
		<contour>
			<point x="45" y="215" type="curve" smooth="yes"/>
			<point x="57" y="215"/>
			<point x="80" y="229.667"/>
			<point x="84" y="239" type="curve"/>
			<point x="86" y="250" type="line"/>
			<point x="86" y="262"/>
			<point x="79" y="268"/>
			<point x="65" y="268" type="curve" smooth="yes"/>
			<point x="61" y="268"/>
			<point x="58" y="268"/>
			<point x="56" y="268" type="curve"/>
			<point x="46.667" y="264"/>
			<point x="21" y="243"/>
			<point x="21" y="235" type="curve" smooth="yes"/>
			<point x="21" y="233" type="line" smooth="yes"/>
			<point x="21" y="223.667"/>
			<point x="33" y="215"/>
		</contour>
	</outline>
</glyph>
<glyph name="slash" format="2">
	<advance width="262" height="923"/>
	<unicode hex="002F"/>
	<note>
		slash
	</note>
	<outline>
		<contour>
			<point x="39" y="152" type="curve" smooth="yes"/>
			<point x="42.333" y="152"/>
			<point x="46.333" y="153"/>
			<point x="51" y="155" type="curve" smooth="yes"/>
			<point x="55.667" y="157"/>
			<point x="59" y="160.333"/>
			<point x="61" y="165" type="curve" smooth="yes"/>
			<point x="73" y="205" type="line" smooth="yes"/>
			<point x="88.333" y="255"/>
			<point x="103.667" y="294.333"/>
			<point x="119" y="323" type="curve" smooth="yes"/>
			<point x="122.333" y="329.667"/>
			<point x="130.667" y="350"/>
			<point x="144" y="384" type="curve" smooth="yes"/>
			<point x="154" y="414.667"/>
			<point x="163.333" y="436.667"/>
			<point x="172" y="450" type="curve" smooth="yes"/>
			<point x="182" y="467.333"/>
			<point x="193.333" y="494.333"/>
			<point x="206" y="531" type="curve" smooth="yes"/>
			<point x="219.333" y="567.667"/>
			<point x="231.667" y="595.333"/>
			<point x="243" y="614" type="curve" smooth="yes"/>
			<point x="246.333" y="618.667"/>
			<point x="248" y="623.333"/>
			<point x="248" y="628" type="curve" smooth="yes"/>
			<point x="248" y="640"/>
			<point x="236.333" y="650"/>
			<point x="227" y="650" type="curve" smooth="yes"/>
			<point x="221.667" y="650"/>
			<point x="217" y="648"/>
			<point x="213" y="644" type="curve"/>
			<point x="209.667" y="635.333"/>
			<point x="203" y="623.333"/>
			<point x="193" y="608" type="curve" smooth="yes"/>
			<point x="183.667" y="594.667"/>
			<point x="176.333" y="580.667"/>
			<point x="171" y="566" type="curve" smooth="yes"/>
			<point x="163.667" y="546"/>
			<point x="153" y="522.333"/>
			<point x="139" y="495" type="curve" smooth="yes"/>
			<point x="124.333" y="469.667"/>
			<point x="113.333" y="446"/>
			<point x="106" y="424" type="curve" smooth="yes"/>
			<point x="97.333" y="393.333"/>
			<point x="85.333" y="360.333"/>
			<point x="70" y="325" type="curve" smooth="yes"/>
			<point x="59.333" y="301"/>
			<point x="48.333" y="273.333"/>
			<point x="37" y="242" type="curve" smooth="yes"/>
			<point x="25" y="212.667"/>
			<point x="19" y="191.667"/>
			<point x="19" y="179" type="curve" smooth="yes"/>
			<point x="19" y="164.333"/>
			<point x="29.667" y="152"/>
		</contour>
	</outline>
</glyph>
<glyph name="zero" format="2">
	<advance width="332" height="638"/>
	<unicode hex="0030"/>
	<note>
		zero
	</note>
	<outline>
		<contour>
			<point x="126" y="222" type="curve" smooth="yes"/>
			<point x="129.333" y="222"/>
			<point x="135" y="222.667"/>
			<point x="143" y="224" type="curve" smooth="yes"/>
			<point x="185.667" y="229.333"/>
			<point x="231.667" y="273.333"/>
			<point x="253" y="324" type="curve" smooth="yes"/>
			<point x="279.667" y="382.667"/>
			<point x="298" y="450.333"/>
			<point x="298" y="505" type="curve" smooth="yes"/>
			<point x="298" y="517"/>
			<point x="297" y="528.333"/>
			<point x="295" y="539" type="curve" smooth="yes"/>
			<point x="293.667" y="547"/>
			<point x="292.333" y="552.667"/>
			<point x="291" y="556" type="curve"/>
			<point x="273.667" y="580"/>
			<point x="265.333" y="586.333"/>
			<point x="236" y="593" type="curve" smooth="yes"/>
			<point x="231.333" y="594.333"/>
			<point x="224.667" y="595"/>
			<point x="216" y="595" type="curve" smooth="yes"/>
			<point x="208.667" y="595"/>
			<point x="203" y="594.667"/>
			<point x="199" y="594" type="curve" smooth="yes"/>
			<point x="172.333" y="589.333"/>
			<point x="140.333" y="571"/>
			<point x="103" y="539" type="curve" smooth="yes"/>
			<point x="85.667" y="524.333"/>
			<point x="78.333" y="504.667"/>
			<point x="65" y="466" type="curve" smooth="yes"/>
			<point x="60.333" y="448.667"/>
			<point x="56.333" y="437"/>
			<point x="53" y="431" type="curve" smooth="yes"/>
			<point x="39.667" y="401.667"/>
			<point x="39" y="399"/>
			<point x="39" y="371" type="curve" smooth="yes"/>
			<point x="39" y="356" type="line" smooth="yes"/>
			<point x="39" y="350"/>
			<point x="39.667" y="340.333"/>
			<point x="41" y="327" type="curve" smooth="yes"/>
			<point x="47.667" y="289"/>
			<point x="67.667" y="256"/>
			<point x="101" y="228" type="curve"/>
			<point x="107" y="224"/>
			<point x="115.333" y="222"/>
		</contour>
		<contour>
			<point x="139" y="264" type="curve" smooth="yes"/>
			<point x="122.333" y="264"/>
			<point x="107.667" y="279"/>
			<point x="95" y="309" type="curve" smooth="yes"/>
			<point x="91" y="317.667"/>
			<point x="88" y="327.333"/>
			<point x="86" y="338" type="curve" smooth="yes"/>
			<point x="84.667" y="346"/>
			<point x="84" y="352.667"/>
			<point x="84" y="358" type="curve" smooth="yes"/>
			<point x="84" y="370"/>
			<point x="85.667" y="384.667"/>
			<point x="89" y="402" type="curve"/>
			<point x="100" y="433" type="line" smooth="yes"/>
			<point x="102.667" y="441"/>
			<point x="105" y="447.667"/>
			<point x="107" y="453" type="curve" smooth="yes"/>
			<point x="111.667" y="472.333"/>
			<point x="119.333" y="488.667"/>
			<point x="130" y="502" type="curve"/>
			<point x="135.333" y="506"/>
			<point x="142.667" y="512.333"/>
			<point x="148" y="519" type="curve"/>
			<point x="156" y="526.333"/>
			<point x="164" y="533.667"/>
			<point x="172" y="541" type="curve"/>
			<point x="188" y="544.333"/>
			<point x="198" y="546"/>
			<point x="202" y="546" type="curve" smooth="yes"/>
			<point x="229" y="548" type="line" smooth="yes"/>
			<point x="234.333" y="548"/>
			<point x="240" y="546.667"/>
			<point x="246" y="544" type="curve"/>
			<point x="255.333" y="537.333"/>
			<point x="260" y="532"/>
			<point x="260" y="528" type="curve"/>
			<point x="262" y="521" type="line"/>
			<point x="267.333" y="467.667"/>
			<point x="241.667" y="375"/>
			<point x="211" y="335" type="curve"/>
			<point x="191" y="300.333"/>
			<point x="187" y="294.333"/>
			<point x="171" y="281" type="curve" smooth="yes"/>
			<point x="158.333" y="269.667"/>
			<point x="147.667" y="264"/>
		</contour>
	</outline>
</glyph>
<glyph name="one" format="2">
	<advance width="266" height="906"/>
	<unicode hex="0031"/>
	<note>
		one
	</note>
	<outline>
		<contour>
			<point x="122" y="143" type="curve"/>
			<point x="129.333" y="143.667"/>
			<point x="134.667" y="148.333"/>
			<point x="138" y="157" type="curve" smooth="yes"/>
			<point x="141.333" y="165.667"/>
			<point x="143" y="178"/>
			<point x="143" y="194" type="curve"/>
			<point x="147" y="234"/>
			<point x="164.333" y="345"/>
			<point x="167" y="349" type="curve"/>
			<point x="167" y="359.667"/>
			<point x="173.667" y="393"/>
			<point x="187" y="449" type="curve" smooth="yes"/>
			<point x="199.667" y="503"/>
			<point x="206" y="539.667"/>
			<point x="206" y="559" type="curve"/>
			<point x="210" y="587" type="line"/>
			<point x="215" y="629" type="line"/>
			<point x="211" y="645"/>
			<point x="198.667" y="652"/>
			<point x="188" y="652" type="curve" smooth="yes"/>
			<point x="181.333" y="652"/>
			<point x="167.667" y="646.667"/>
			<point x="147" y="636" type="curve" smooth="yes"/>
			<point x="141.667" y="632.667"/>
			<point x="129.667" y="625.333"/>
			<point x="111" y="614" type="curve" smooth="yes"/>
			<point x="105.667" y="610"/>
			<point x="100" y="606"/>
			<point x="94" y="602" type="curve" smooth="yes"/>
			<point x="80.667" y="595.333"/>
			<point x="67" y="585"/>
			<point x="63" y="577" type="curve" smooth="yes"/>
			<point x="61.667" y="573"/>
			<point x="61" y="569"/>
			<point x="61" y="565" type="curve" smooth="yes"/>
			<point x="61" y="561.667"/>
			<point x="62" y="557"/>
			<point x="64" y="551" type="curve" smooth="yes"/>
			<point x="66" y="547"/>
			<point x="72.333" y="547.5"/>
			<point x="83" y="552.5" type="curve" smooth="yes"/>
			<point x="93.667" y="557.5"/>
			<point x="105" y="563.667"/>
			<point x="117" y="571" type="curve" smooth="yes"/>
			<point x="127" y="575.667"/>
			<point x="135" y="580.333"/>
			<point x="141" y="585" type="curve"/>
			<point x="157" y="594.333"/>
			<point x="165" y="598.333"/>
			<point x="165" y="597" type="curve" smooth="yes"/>
			<point x="166.333" y="583.667"/>
			<point x="150.333" y="488"/>
			<point x="141" y="460" type="curve"/>
			<point x="124" y="376" type="line"/>
			<point x="106.667" y="313.333"/>
			<point x="90" y="185"/>
			<point x="94" y="161" type="curve" smooth="yes"/>
			<point x="96" y="152.333"/>
			<point x="102" y="146.667"/>
			<point x="112" y="144" type="curve"/>
			<point x="115.333" y="142"/>
			<point x="118.667" y="141.667"/>
		</contour>
	</outline>
</glyph>
<glyph name="two" format="2">
	<advance width="450" height="836"/>
	<unicode hex="0032"/>
	<note>
		two
	</note>
	<outline>
		<contour>
			<point x="330" y="239" type="curve" smooth="yes"/>
			<point x="362" y="239"/>
			<point x="373.667" y="242.333"/>
			<point x="395" y="257" type="curve" smooth="yes"/>
			<point x="408.333" y="264.333"/>
			<point x="415" y="272.667"/>
			<point x="415" y="282" type="curve" smooth="yes"/>
			<point x="415" y="288"/>
			<point x="410.333" y="291"/>
			<point x="401" y="291" type="curve"/>
			<point x="382" y="288" type="line"/>
			<point x="373.333" y="285.333"/>
			<point x="362.333" y="284"/>
			<point x="349" y="284" type="curve" smooth="yes"/>
			<point x="338.333" y="284"/>
			<point x="307.667" y="285.667"/>
			<point x="257" y="289" type="curve" smooth="yes"/>
			<point x="182" y="294" type="line" smooth="yes"/>
			<point x="169.333" y="294.667"/>
			<point x="163" y="297.667"/>
			<point x="163" y="303" type="curve" smooth="yes"/>
			<point x="163" y="307"/>
			<point x="168.333" y="313.333"/>
			<point x="179" y="322" type="curve" smooth="yes"/>
			<point x="197" y="340"/>
			<point x="218.167" y="361"/>
			<point x="242.5" y="385" type="curve" smooth="yes"/>
			<point x="266.833" y="409"/>
			<point x="281" y="423.667"/>
			<point x="285" y="429" type="curve" smooth="yes"/>
			<point x="303.667" y="457"/>
			<point x="314" y="473.333"/>
			<point x="316" y="478" type="curve" smooth="yes"/>
			<point x="319.333" y="486"/>
			<point x="321" y="494.667"/>
			<point x="321" y="504" type="curve" smooth="yes"/>
			<point x="321" y="518.667"/>
			<point x="319.667" y="527"/>
			<point x="317" y="529" type="curve"/>
			<point x="310.333" y="539.667"/>
			<point x="278.667" y="550.333"/>
			<point x="248" y="553" type="curve" smooth="yes"/>
			<point x="236" y="554.333"/>
			<point x="217.167" y="556.667"/>
			<point x="191.5" y="560" type="curve" smooth="yes"/>
			<point x="165.833" y="563.333"/>
			<point x="147.667" y="565"/>
			<point x="137" y="565" type="curve" smooth="yes"/>
			<point x="129" y="565"/>
			<point x="123.333" y="564.667"/>
			<point x="120" y="564" type="curve"/>
			<point x="109.333" y="559.333"/>
			<point x="104" y="553.667"/>
			<point x="104" y="547" type="curve" smooth="yes"/>
			<point x="104" y="541.667"/>
			<point x="108.333" y="536.333"/>
			<point x="117" y="531" type="curve" smooth="yes"/>
			<point x="125.667" y="526.333"/>
			<point x="138" y="523"/>
			<point x="154" y="521" type="curve" smooth="yes"/>
			<point x="191" y="514" type="line"/>
			<point x="207" y="509.333"/>
			<point x="222.333" y="507"/>
			<point x="237" y="507" type="curve" smooth="yes"/>
			<point x="251" y="507"/>
			<point x="259.667" y="506.667"/>
			<point x="263" y="506" type="curve" smooth="yes"/>
			<point x="267.667" y="505.333"/>
			<point x="270" y="502"/>
			<point x="270" y="496" type="curve" smooth="yes"/>
			<point x="270" y="494"/>
			<point x="267.333" y="487.333"/>
			<point x="262" y="476" type="curve" smooth="yes"/>
			<point x="254" y="459.333"/>
			<point x="233.333" y="431.667"/>
			<point x="200" y="393" type="curve" smooth="yes"/>
			<point x="164" y="349"/>
			<point x="92" y="300.333"/>
			<point x="52" y="291" type="curve" smooth="yes"/>
			<point x="38" y="288.333"/>
			<point x="31" y="281.667"/>
			<point x="31" y="271" type="curve" smooth="yes"/>
			<point x="31" y="266.333"/>
			<point x="32.333" y="262.667"/>
			<point x="35" y="260" type="curve" smooth="yes"/>
			<point x="51" y="244" type="line"/>
			<point x="138" y="246" type="line" smooth="yes"/>
			<point x="165.333" y="246"/>
			<point x="201.667" y="245"/>
			<point x="247" y="243" type="curve" smooth="yes"/>
			<point x="288.333" y="240.333"/>
			<point x="316" y="239"/>
		</contour>
	</outline>
</glyph>
<glyph name="three" format="2">
	<advance width="316" height="928"/>
	<unicode hex="0033"/>
	<note>
		three
	</note>
	<outline>
		<contour>
			<point x="104" y="147" type="curve" smooth="yes"/>
			<point x="106.667" y="147"/>
			<point x="108.667" y="147.333"/>
			<point x="110" y="148" type="curve"/>
			<point x="111" y="148" type="line" smooth="yes"/>
			<point x="144.333" y="152.667"/>
			<point x="177.333" y="177"/>
			<point x="210" y="221" type="curve" smooth="yes"/>
			<point x="220" y="233" type="line" smooth="yes"/>
			<point x="248" y="269"/>
			<point x="256.333" y="281.667"/>
			<point x="271" y="319" type="curve" smooth="yes"/>
			<point x="277.667" y="339.667"/>
			<point x="281" y="360.333"/>
			<point x="281" y="381" type="curve" smooth="yes"/>
			<point x="281" y="425"/>
			<point x="262" y="447"/>
			<point x="224" y="447" type="curve" smooth="yes"/>
			<point x="212" y="447"/>
			<point x="196.333" y="444.333"/>
			<point x="177" y="439" type="curve" smooth="yes"/>
			<point x="158.333" y="433.667"/>
			<point x="146.333" y="431"/>
			<point x="141" y="431" type="curve" smooth="yes"/>
			<point x="135" y="431"/>
			<point x="132" y="432.333"/>
			<point x="132" y="435" type="curve" smooth="yes"/>
			<point x="132" y="438.333"/>
			<point x="139.333" y="446"/>
			<point x="154" y="458" type="curve" smooth="yes"/>
			<point x="186" y="482"/>
			<point x="201.333" y="496.667"/>
			<point x="208" y="518" type="curve"/>
			<point x="210.667" y="522.667"/>
			<point x="212" y="528.667"/>
			<point x="212" y="536" type="curve" smooth="yes"/>
			<point x="212" y="564.667"/>
			<point x="181.333" y="595.333"/>
			<point x="120" y="628" type="curve" smooth="yes"/>
			<point x="109" y="634" type="line"/>
			<point x="107" y="634"/>
			<point x="104.333" y="636"/>
			<point x="101" y="640" type="curve"/>
			<point x="99.667" y="649.333"/>
			<point x="82.667" y="655"/>
			<point x="64" y="655" type="curve" smooth="yes"/>
			<point x="58" y="655"/>
			<point x="54" y="654.667"/>
			<point x="52" y="654" type="curve"/>
			<point x="46.667" y="650"/>
			<point x="44" y="642.333"/>
			<point x="44" y="631" type="curve" smooth="yes"/>
			<point x="44" y="628.333"/>
			<point x="44.333" y="626.667"/>
			<point x="45" y="626" type="curve" smooth="yes"/>
			<point x="58.333" y="612.667"/>
			<point x="79" y="597.667"/>
			<point x="107" y="581" type="curve" smooth="yes"/>
			<point x="130.333" y="568.333"/>
			<point x="146" y="558.667"/>
			<point x="154" y="552" type="curve" smooth="yes"/>
			<point x="162.667" y="545.333"/>
			<point x="167" y="538.667"/>
			<point x="167" y="532" type="curve"/>
			<point x="165" y="528" type="line" smooth="yes"/>
			<point x="157" y="514.667"/>
			<point x="91.333" y="452"/>
			<point x="78" y="444" type="curve" smooth="yes"/>
			<point x="46" y="428"/>
			<point x="30" y="412.667"/>
			<point x="30" y="398" type="curve" smooth="yes"/>
			<point x="30" y="384.667"/>
			<point x="51.333" y="375"/>
			<point x="74" y="375" type="curve" smooth="yes"/>
			<point x="93.333" y="375"/>
			<point x="129.667" y="382.667"/>
			<point x="183" y="398" type="curve" smooth="yes"/>
			<point x="191" y="400.667"/>
			<point x="199.667" y="402"/>
			<point x="209" y="402" type="curve" smooth="yes"/>
			<point x="229.667" y="402"/>
			<point x="240" y="391.333"/>
			<point x="240" y="370" type="curve" smooth="yes"/>
			<point x="240" y="352"/>
			<point x="233.333" y="330.667"/>
			<point x="220" y="306" type="curve" smooth="yes"/>
			<point x="200.667" y="272"/>
			<point x="179.333" y="243.333"/>
			<point x="156" y="220" type="curve" smooth="yes"/>
			<point x="136" y="199.333"/>
			<point x="120.667" y="189"/>
			<point x="110" y="189" type="curve" smooth="yes"/>
			<point x="104.667" y="189"/>
			<point x="98.333" y="191.333"/>
			<point x="91" y="196" type="curve" smooth="yes"/>
			<point x="83.667" y="200.667"/>
			<point x="77.667" y="203"/>
			<point x="73" y="203" type="curve" smooth="yes"/>
			<point x="66.333" y="203"/>
			<point x="63" y="198.667"/>
			<point x="63" y="190" type="curve" smooth="yes"/>
			<point x="63" y="175.333"/>
			<point x="88" y="147"/>
		</contour>
	</outline>
</glyph>
<glyph name="four" format="2">
	<advance width="407" height="910"/>
	<unicode hex="0034"/>
	<note>
		four
	</note>
	<outline>
		<contour>
			<point x="203" y="165" type="curve" smooth="yes"/>
			<point x="213" y="165"/>
			<point x="221.667" y="185.333"/>
			<point x="229" y="226" type="curve" smooth="yes"/>
			<point x="229" y="226.667"/>
			<point x="231" y="238.333"/>
			<point x="235" y="261" type="curve" smooth="yes"/>
			<point x="240.333" y="286.333"/>
			<point x="244.333" y="320.667"/>
			<point x="247" y="364" type="curve" smooth="yes"/>
			<point x="247" y="374.667"/>
			<point x="247.333" y="382.667"/>
			<point x="248" y="388" type="curve" smooth="yes"/>
			<point x="248" y="405" type="line" smooth="yes"/>
			<point x="248" y="416.333"/>
			<point x="249" y="425.333"/>
			<point x="251" y="432" type="curve"/>
			<point x="254.333" y="434.667"/>
			<point x="262" y="437"/>
			<point x="274" y="439" type="curve" smooth="yes"/>
			<point x="291" y="442" type="line" smooth="yes"/>
			<point x="321.667" y="448"/>
			<point x="343" y="454"/>
			<point x="355" y="460" type="curve" smooth="yes"/>
			<point x="368.333" y="466"/>
			<point x="375" y="472.667"/>
			<point x="375" y="480" type="curve" smooth="yes"/>
			<point x="375" y="484.667"/>
			<point x="373.333" y="488"/>
			<point x="370" y="490" type="curve" smooth="yes"/>
			<point x="366" y="491.333"/>
			<point x="359.667" y="492"/>
			<point x="351" y="492" type="curve" smooth="yes"/>
			<point x="306" y="490" type="line"/>
			<point x="261" y="487" type="line" smooth="yes"/>
			<point x="247.667" y="487"/>
			<point x="247" y="487.333"/>
			<point x="247" y="506" type="curve" smooth="yes"/>
			<point x="247" y="516.667"/>
			<point x="248" y="528.333"/>
			<point x="250" y="541" type="curve" smooth="yes"/>
			<point x="252" y="562" type="line" smooth="yes"/>
			<point x="252" y="571.333"/>
			<point x="247.333" y="576"/>
			<point x="238" y="576" type="curve" smooth="yes"/>
			<point x="233" y="576" type="line" smooth="yes"/>
			<point x="231.667" y="576"/>
			<point x="230.333" y="575.667"/>
			<point x="229" y="575" type="curve"/>
			<point x="219.667" y="575"/>
			<point x="215" y="577.667"/>
			<point x="215" y="583" type="curve" smooth="yes"/>
			<point x="215" y="585"/>
			<point x="218.667" y="590.333"/>
			<point x="226" y="599" type="curve" smooth="yes"/>
			<point x="232" y="605.667"/>
			<point x="235" y="612"/>
			<point x="235" y="618" type="curve" smooth="yes"/>
			<point x="235" y="622.667"/>
			<point x="233" y="627"/>
			<point x="229" y="631" type="curve" smooth="yes"/>
			<point x="225" y="635.667"/>
			<point x="221.333" y="638"/>
			<point x="218" y="638" type="curve" smooth="yes"/>
			<point x="210" y="638"/>
			<point x="195" y="625.667"/>
			<point x="173" y="601" type="curve" smooth="yes"/>
			<point x="119" y="544" type="line" smooth="yes"/>
			<point x="89.667" y="511.333"/>
			<point x="67.667" y="489.333"/>
			<point x="53" y="478" type="curve"/>
			<point x="37.667" y="470.667"/>
			<point x="30" y="461.667"/>
			<point x="30" y="451" type="curve" smooth="yes"/>
			<point x="30" y="431"/>
			<point x="42.333" y="428.333"/>
			<point x="73" y="427" type="curve" smooth="yes"/>
			<point x="92.333" y="425.667"/>
			<point x="103.333" y="424"/>
			<point x="106" y="422" type="curve" smooth="yes"/>
			<point x="109.333" y="419.333"/>
			<point x="119.333" y="418"/>
			<point x="136" y="418" type="curve" smooth="yes"/>
			<point x="142" y="418.667"/>
			<point x="147.667" y="419"/>
			<point x="153" y="419" type="curve" smooth="yes"/>
			<point x="171" y="419" type="line" smooth="yes"/>
			<point x="187.667" y="419"/>
			<point x="197.333" y="416.667"/>
			<point x="200" y="412" type="curve"/>
			<point x="202.667" y="398.667"/>
			<point x="204" y="381.333"/>
			<point x="204" y="360" type="curve" smooth="yes"/>
			<point x="204" y="313.333"/>
			<point x="197" y="262.667"/>
			<point x="183" y="208" type="curve"/>
			<point x="182.333" y="202.667"/>
			<point x="181.667" y="197"/>
			<point x="181" y="191" type="curve" smooth="yes"/>
			<point x="181" y="176.333"/>
			<point x="191" y="165"/>
		</contour>
		<contour>
			<point x="147" y="463" type="curve" smooth="yes"/>
			<point x="128.333" y="463"/>
			<point x="119" y="467.333"/>
			<point x="119" y="476" type="curve" smooth="yes"/>
			<point x="119" y="481.333"/>
			<point x="123.333" y="488.333"/>
			<point x="132" y="497" type="curve" smooth="yes"/>
			<point x="141.333" y="507.667"/>
			<point x="151" y="518"/>
			<point x="161" y="528" type="curve"/>
			<point x="176.333" y="547.333"/>
			<point x="186.667" y="557"/>
			<point x="192" y="557" type="curve" smooth="yes"/>
			<point x="200" y="557"/>
			<point x="204" y="543.333"/>
			<point x="204" y="516" type="curve" smooth="yes"/>
			<point x="204" y="496"/>
			<point x="203" y="484"/>
			<point x="201" y="480" type="curve" smooth="yes"/>
			<point x="197" y="470.667"/>
			<point x="171" y="463"/>
		</contour>
	</outline>
</glyph>
<glyph name="five" format="2">
	<advance width="381" height="890"/>
	<unicode hex="0035"/>
	<note>
		five
	</note>
	<outline>
		<contour>
			<point x="80" y="185" type="curve" smooth="yes"/>
			<point x="98" y="185"/>
			<point x="125.333" y="196.667"/>
			<point x="162" y="220" type="curve" smooth="yes"/>
			<point x="188.667" y="238.667"/>
			<point x="209.333" y="265.667"/>
			<point x="224" y="301" type="curve" smooth="yes"/>
			<point x="231.333" y="316.333"/>
			<point x="235" y="331"/>
			<point x="235" y="345" type="curve" smooth="yes"/>
			<point x="235" y="387.667"/>
			<point x="199.333" y="422.333"/>
			<point x="150" y="425" type="curve" smooth="yes"/>
			<point x="133.333" y="425.667"/>
			<point x="118" y="429"/>
			<point x="104" y="435" type="curve" smooth="yes"/>
			<point x="87" y="444" type="line"/>
			<point x="87" y="446" type="line"/>
			<point x="88" y="462" type="line" smooth="yes"/>
			<point x="89.333" y="484.667"/>
			<point x="101.333" y="523"/>
			<point x="108" y="527" type="curve" smooth="yes"/>
			<point x="111.333" y="529"/>
			<point x="134" y="530"/>
			<point x="176" y="530" type="curve" smooth="yes"/>
			<point x="192" y="530" type="line" smooth="yes"/>
			<point x="226.667" y="530"/>
			<point x="259" y="535.333"/>
			<point x="275" y="542" type="curve" smooth="yes"/>
			<point x="325" y="561" type="line"/>
			<point x="340.333" y="570.333"/>
			<point x="348" y="578.667"/>
			<point x="348" y="586" type="curve" smooth="yes"/>
			<point x="348" y="593.333"/>
			<point x="342.333" y="597"/>
			<point x="331" y="597" type="curve" smooth="yes"/>
			<point x="311" y="597"/>
			<point x="288.333" y="593"/>
			<point x="263" y="585" type="curve" smooth="yes"/>
			<point x="244.333" y="579"/>
			<point x="209.333" y="576"/>
			<point x="158" y="576" type="curve" smooth="yes"/>
			<point x="127.333" y="576"/>
			<point x="122.333" y="578.667"/>
			<point x="121" y="596" type="curve"/>
			<point x="118.333" y="608"/>
			<point x="110.667" y="617"/>
			<point x="104" y="617" type="curve" smooth="yes"/>
			<point x="98.667" y="617"/>
			<point x="94" y="613"/>
			<point x="90" y="605" type="curve" smooth="yes"/>
			<point x="70.667" y="558.333"/>
			<point x="57.667" y="522"/>
			<point x="51" y="496" type="curve"/>
			<point x="50.333" y="490"/>
			<point x="46.667" y="480.333"/>
			<point x="40" y="467" type="curve" smooth="yes"/>
			<point x="34" y="454.333"/>
			<point x="31" y="444.667"/>
			<point x="31" y="438" type="curve" smooth="yes"/>
			<point x="31" y="428.667"/>
			<point x="37" y="419"/>
			<point x="49" y="409" type="curve" smooth="yes"/>
			<point x="58.333" y="399"/>
			<point x="76.667" y="391.333"/>
			<point x="104" y="386" type="curve" smooth="yes"/>
			<point x="142" y="379" type="line"/>
			<point x="144" y="379.667"/>
			<point x="146.333" y="380"/>
			<point x="149" y="380" type="curve" smooth="yes"/>
			<point x="172.333" y="380"/>
			<point x="187" y="367"/>
			<point x="193" y="341" type="curve"/>
			<point x="193" y="333"/>
			<point x="167.333" y="280"/>
			<point x="158" y="268" type="curve"/>
			<point x="142" y="252"/>
			<point x="99.667" y="223"/>
			<point x="85" y="223" type="curve" smooth="yes"/>
			<point x="80.333" y="223"/>
			<point x="75" y="224"/>
			<point x="69" y="226" type="curve" smooth="yes"/>
			<point x="65" y="227.333"/>
			<point x="60.333" y="228.333"/>
			<point x="55" y="229" type="curve" smooth="yes"/>
			<point x="46.333" y="229"/>
			<point x="42" y="224.333"/>
			<point x="42" y="215" type="curve" smooth="yes"/>
			<point x="42" y="196.333"/>
			<point x="58.667" y="185"/>
		</contour>
	</outline>
</glyph>
<glyph name="six" format="2">
	<advance width="332" height="1326"/>
	<unicode hex="0036"/>
	<note>
		six
	</note>
	<outline>
		<contour>
			<point x="124" y="147" type="curve" smooth="yes"/>
			<point x="149.333" y="147"/>
			<point x="178" y="163"/>
			<point x="210" y="195" type="curve" smooth="yes"/>
			<point x="263.333" y="245.667"/>
			<point x="283" y="280.333"/>
			<point x="295" y="343" type="curve" smooth="yes"/>
			<point x="296.333" y="349.667"/>
			<point x="297.333" y="356.667"/>
			<point x="298" y="364" type="curve" smooth="yes"/>
			<point x="298" y="369.333"/>
			<point x="296" y="377"/>
			<point x="292" y="387" type="curve" smooth="yes"/>
			<point x="281.333" y="417.667"/>
			<point x="250.667" y="436"/>
			<point x="216" y="436" type="curve" smooth="yes"/>
			<point x="198" y="436"/>
			<point x="178.333" y="431.333"/>
			<point x="157" y="422" type="curve" smooth="yes"/>
			<point x="135.667" y="411.333"/>
			<point x="121" y="406"/>
			<point x="113" y="406" type="curve" smooth="yes"/>
			<point x="103" y="406"/>
			<point x="98" y="412"/>
			<point x="98" y="424" type="curve" smooth="yes"/>
			<point x="98.667" y="428.667"/>
			<point x="99.333" y="433"/>
			<point x="100" y="437" type="curve" smooth="yes"/>
			<point x="105.333" y="466.333"/>
			<point x="112.333" y="493.667"/>
			<point x="121" y="519" type="curve" smooth="yes"/>
			<point x="135" y="559" type="line" smooth="yes"/>
			<point x="139.667" y="576.333"/>
			<point x="148" y="593.667"/>
			<point x="160" y="611" type="curve" smooth="yes"/>
			<point x="178" y="640" type="line"/>
			<point x="178" y="648"/>
			<point x="165.333" y="656"/>
			<point x="152" y="656" type="curve" smooth="yes"/>
			<point x="146.667" y="656"/>
			<point x="141.667" y="654.667"/>
			<point x="137" y="652" type="curve" smooth="yes"/>
			<point x="127" y="647.333"/>
			<point x="112.667" y="619"/>
			<point x="94" y="567" type="curve" smooth="yes"/>
			<point x="88.667" y="551"/>
			<point x="82.667" y="535.667"/>
			<point x="76" y="521" type="curve" smooth="yes"/>
			<point x="67.333" y="505.667"/>
			<point x="63" y="492.333"/>
			<point x="63" y="481" type="curve"/>
			<point x="60.333" y="465"/>
			<point x="57.667" y="433"/>
			<point x="55" y="385" type="curve"/>
			<point x="41" y="374" type="line" smooth="yes"/>
			<point x="35.667" y="370"/>
			<point x="33" y="364.667"/>
			<point x="33" y="358" type="curve"/>
			<point x="34.333" y="353.333"/>
			<point x="35.333" y="348.667"/>
			<point x="36" y="344" type="curve" smooth="yes"/>
			<point x="38" y="325" type="line" smooth="yes"/>
			<point x="38" y="321"/>
			<point x="37.333" y="315.667"/>
			<point x="36" y="309" type="curve" smooth="yes"/>
			<point x="34" y="303.667"/>
			<point x="33" y="299.667"/>
			<point x="33" y="297" type="curve" smooth="yes"/>
			<point x="33" y="289.667"/>
			<point x="37" y="279.667"/>
			<point x="45" y="267" type="curve" smooth="yes"/>
			<point x="53" y="253"/>
			<point x="57" y="241.333"/>
			<point x="57" y="232" type="curve" smooth="yes"/>
			<point x="57" y="230" type="line" smooth="yes"/>
			<point x="59.667" y="203.333"/>
			<point x="82.333" y="163.667"/>
			<point x="101" y="153" type="curve" smooth="yes"/>
			<point x="107.667" y="149"/>
			<point x="115.333" y="147"/>
		</contour>
		<contour>
			<point x="134" y="195" type="curve" smooth="yes"/>
			<point x="115.333" y="195"/>
			<point x="105.667" y="204.333"/>
			<point x="99" y="235" type="curve"/>
			<point x="94.333" y="241.667"/>
			<point x="92" y="255.667"/>
			<point x="92" y="277" type="curve" smooth="yes"/>
			<point x="92" y="319.667"/>
			<point x="95.667" y="343.667"/>
			<point x="103" y="349" type="curve" smooth="yes"/>
			<point x="111.667" y="354.333"/>
			<point x="126.333" y="362"/>
			<point x="147" y="372" type="curve" smooth="yes"/>
			<point x="174.333" y="385.333"/>
			<point x="194" y="392"/>
			<point x="206" y="392" type="curve" smooth="yes"/>
			<point x="222" y="392"/>
			<point x="233" y="390.667"/>
			<point x="239" y="388" type="curve" smooth="yes"/>
			<point x="250.333" y="384"/>
			<point x="256" y="376"/>
			<point x="256" y="364" type="curve" smooth="yes"/>
			<point x="256" y="356.667"/>
			<point x="254" y="346.333"/>
			<point x="250" y="333" type="curve" smooth="yes"/>
			<point x="239.333" y="293"/>
			<point x="230" y="272.667"/>
			<point x="198" y="238" type="curve" smooth="yes"/>
			<point x="182" y="220.667"/>
			<point x="169.667" y="209.167"/>
			<point x="161" y="203.5" type="curve" smooth="yes"/>
			<point x="152.333" y="197.833"/>
			<point x="143.333" y="195"/>
		</contour>
	</outline>
</glyph>
<glyph name="seven" format="2">
	<advance width="276" height="1313"/>
	<unicode hex="0037"/>
	<note>
		seven
	</note>
	<outline>
		<contour>
			<point x="104" y="102" type="curve" smooth="yes"/>
			<point x="109.333" y="102"/>
			<point x="114.333" y="104.333"/>
			<point x="119" y="109" type="curve" smooth="yes"/>
			<point x="130.333" y="121"/>
			<point x="150" y="166.333"/>
			<point x="178" y="245" type="curve" smooth="yes"/>
			<point x="222" y="362.333"/>
			<point x="238.667" y="430.667"/>
			<point x="240" y="540" type="curve" smooth="yes"/>
			<point x="242" y="615" type="line"/>
			<point x="238" y="617.667"/>
			<point x="224" y="624.667"/>
			<point x="224" y="634" type="curve"/>
			<point x="213.333" y="646"/>
			<point x="200" y="657.667"/>
			<point x="184" y="669" type="curve" smooth="yes"/>
			<point x="166.667" y="682.333"/>
			<point x="143.667" y="700"/>
			<point x="129" y="700" type="curve" smooth="yes"/>
			<point x="121.667" y="700"/>
			<point x="114.667" y="697.667"/>
			<point x="108" y="693" type="curve" smooth="yes"/>
			<point x="105.333" y="690.333"/>
			<point x="95.667" y="679"/>
			<point x="79" y="659" type="curve" smooth="yes"/>
			<point x="63.667" y="639.667"/>
			<point x="53.667" y="628.333"/>
			<point x="49" y="625" type="curve" smooth="yes"/>
			<point x="37.667" y="615.667"/>
			<point x="32" y="606.333"/>
			<point x="32" y="597" type="curve" smooth="yes"/>
			<point x="32" y="586.333"/>
			<point x="43.333" y="577"/>
			<point x="58" y="577" type="curve" smooth="yes"/>
			<point x="70.667" y="577"/>
			<point x="83" y="583.333"/>
			<point x="95" y="596" type="curve" smooth="yes"/>
			<point x="112.333" y="615.333"/>
			<point x="131" y="625"/>
			<point x="151" y="625" type="curve" smooth="yes"/>
			<point x="167.667" y="625"/>
			<point x="180" y="617.667"/>
			<point x="188" y="603" type="curve"/>
			<point x="190" y="602.333"/>
			<point x="191.667" y="597.667"/>
			<point x="193" y="589" type="curve" smooth="yes"/>
			<point x="194.333" y="577"/>
			<point x="195" y="564.333"/>
			<point x="195" y="551" type="curve" smooth="yes"/>
			<point x="195" y="503"/>
			<point x="190.667" y="436"/>
			<point x="188" y="428" type="curve"/>
			<point x="180" y="387" type="line" smooth="yes"/>
			<point x="176" y="363.667"/>
			<point x="166.333" y="332.333"/>
			<point x="151" y="293" type="curve" smooth="yes"/>
			<point x="140" y="258" type="line" smooth="yes"/>
			<point x="122" y="206"/>
			<point x="107" y="171.333"/>
			<point x="95" y="154" type="curve" smooth="yes"/>
			<point x="89.667" y="146.667"/>
			<point x="87" y="138.667"/>
			<point x="87" y="130" type="curve" smooth="yes"/>
			<point x="87" y="114"/>
			<point x="94.667" y="102"/>
		</contour>
	</outline>
</glyph>
<glyph name="eight" format="2">
	<advance width="306" height="1284"/>
	<unicode hex="0038"/>
	<note>
		eight
	</note>
	<outline>
		<contour>
			<point x="151" y="178" type="line"/>
			<point x="157.667" y="178"/>
			<point x="163.667" y="180.333"/>
			<point x="169" y="185" type="curve" smooth="yes"/>
			<point x="179.667" y="193.667"/>
			<point x="185" y="215"/>
			<point x="185" y="249" type="curve" smooth="yes"/>
			<point x="185" y="292.333"/>
			<point x="176.333" y="334.667"/>
			<point x="159" y="376" type="curve" smooth="yes"/>
			<point x="156.333" y="382"/>
			<point x="155" y="387.667"/>
			<point x="155" y="393" type="curve" smooth="yes"/>
			<point x="155" y="396" type="line" smooth="yes"/>
			<point x="155" y="398"/>
			<point x="171.333" y="415.333"/>
			<point x="204" y="448" type="curve" smooth="yes"/>
			<point x="246.667" y="490"/>
			<point x="269.333" y="514.333"/>
			<point x="272" y="521" type="curve"/>
			<point x="272" y="523" type="line" smooth="yes"/>
			<point x="272" y="532.333"/>
			<point x="241" y="569"/>
			<point x="213" y="593" type="curve" smooth="yes"/>
			<point x="188.333" y="615"/>
			<point x="163.333" y="626"/>
			<point x="138" y="626" type="curve" smooth="yes"/>
			<point x="129.333" y="626"/>
			<point x="119.333" y="625"/>
			<point x="108" y="623" type="curve" smooth="yes"/>
			<point x="76" y="616.333"/>
			<point x="73.333" y="614.333"/>
			<point x="60" y="601" type="curve" smooth="yes"/>
			<point x="50" y="590.333"/>
			<point x="45" y="580.667"/>
			<point x="45" y="572" type="curve" smooth="yes"/>
			<point x="45" y="566"/>
			<point x="47.333" y="557.333"/>
			<point x="52" y="546" type="curve" smooth="yes"/>
			<point x="56" y="533.333"/>
			<point x="58" y="525"/>
			<point x="58" y="521" type="curve" smooth="yes"/>
			<point x="58" y="518" type="line"/>
			<point x="80" y="463" type="line" smooth="yes"/>
			<point x="92.667" y="432.333"/>
			<point x="99.333" y="414.667"/>
			<point x="100" y="410" type="curve" smooth="yes"/>
			<point x="100" y="408"/>
			<point x="97" y="402.333"/>
			<point x="91" y="393" type="curve"/>
			<point x="63" y="362.333"/>
			<point x="33.667" y="301.667"/>
			<point x="31" y="271" type="curve"/>
			<point x="32.333" y="211"/>
			<point x="60.333" y="182.667"/>
			<point x="127" y="180" type="curve" smooth="yes"/>
			<point x="151" y="178" type="line"/>
		</contour>
		<contour>
			<point x="119" y="218" type="curve"/>
			<point x="90.333" y="224.667"/>
			<point x="76" y="238.333"/>
			<point x="76" y="259" type="curve" smooth="yes"/>
			<point x="76" y="273"/>
			<point x="83.667" y="294.333"/>
			<point x="99" y="323" type="curve" smooth="yes"/>
			<point x="107" y="340.333"/>
			<point x="113.667" y="349"/>
			<point x="119" y="349" type="curve" smooth="yes"/>
			<point x="123" y="349"/>
			<point x="126" y="343.5"/>
			<point x="128" y="332.5" type="curve" smooth="yes"/>
			<point x="130" y="321.5"/>
			<point x="132.333" y="303.667"/>
			<point x="135" y="279" type="curve" smooth="yes"/>
			<point x="139" y="245" type="line" smooth="yes"/>
			<point x="139.667" y="241.667"/>
			<point x="140" y="238.333"/>
			<point x="140" y="235" type="curve" smooth="yes"/>
			<point x="140" y="223.667"/>
			<point x="133" y="218"/>
		</contour>
		<contour>
			<point x="143" y="450" type="curve" smooth="yes"/>
			<point x="137.667" y="450"/>
			<point x="134" y="452"/>
			<point x="132" y="456" type="curve"/>
			<point x="121.333" y="470.667"/>
			<point x="99" y="544"/>
			<point x="99" y="564" type="curve" smooth="yes"/>
			<point x="99" y="575.333"/>
			<point x="108.333" y="581"/>
			<point x="127" y="581" type="curve" smooth="yes"/>
			<point x="138" y="581" type="line" smooth="yes"/>
			<point x="158" y="579.667"/>
			<point x="164.333" y="578.333"/>
			<point x="183" y="565" type="curve"/>
			<point x="198.333" y="557"/>
			<point x="206" y="548.667"/>
			<point x="206" y="540" type="curve" smooth="yes"/>
			<point x="206" y="533.333"/>
			<point x="203" y="523.333"/>
			<point x="197" y="510" type="curve"/>
			<point x="194.333" y="496.667"/>
			<point x="152.333" y="450"/>
		</contour>
	</outline>
</glyph>
<glyph name="nine" format="2">
	<advance width="327" height="1298"/>
	<unicode hex="0039"/>
	<note>
		nine
	</note>
	<outline>
		<contour>
			<point x="162" y="88" type="curve"/>
			<point x="177.333" y="88"/>
			<point x="186" y="104.667"/>
			<point x="188" y="138" type="curve" smooth="yes"/>
			<point x="197" y="231" type="line"/>
			<point x="200" y="256" type="line"/>
			<point x="205" y="302" type="line" smooth="yes"/>
			<point x="209" y="339.333"/>
			<point x="213.667" y="360.333"/>
			<point x="219" y="387" type="curve" smooth="yes"/>
			<point x="228" y="426" type="line" smooth="yes"/>
			<point x="231.333" y="439.333"/>
			<point x="235.667" y="461"/>
			<point x="241" y="491" type="curve" smooth="yes"/>
			<point x="253" y="556.333"/>
			<point x="263.333" y="594.333"/>
			<point x="282" y="621" type="curve" smooth="yes"/>
			<point x="290.667" y="631.667"/>
			<point x="295" y="640.667"/>
			<point x="295" y="648" type="curve" smooth="yes"/>
			<point x="295" y="661.333"/>
			<point x="287" y="668"/>
			<point x="271" y="668" type="curve" smooth="yes"/>
			<point x="260.333" y="668"/>
			<point x="254.333" y="672"/>
			<point x="237" y="688" type="curve"/>
			<point x="223.667" y="706"/>
			<point x="207.333" y="715"/>
			<point x="188" y="715" type="curve" smooth="yes"/>
			<point x="139.378" y="715"/>
			<point x="72.627" y="663.64"/>
			<point x="44" y="604" type="curve" smooth="yes"/>
			<point x="37.333" y="589.333"/>
			<point x="34" y="575.333"/>
			<point x="34" y="562" type="curve" smooth="yes"/>
			<point x="34" y="550.667"/>
			<point x="37" y="540"/>
			<point x="43" y="530" type="curve" smooth="yes"/>
			<point x="52.333" y="513.333"/>
			<point x="72" y="505"/>
			<point x="102" y="505" type="curve" smooth="yes"/>
			<point x="130" y="505"/>
			<point x="152.333" y="511"/>
			<point x="169" y="523" type="curve"/>
			<point x="173" y="525"/>
			<point x="176.667" y="527"/>
			<point x="180" y="529" type="curve" smooth="yes"/>
			<point x="188.667" y="535"/>
			<point x="194.667" y="538"/>
			<point x="198" y="538" type="curve" smooth="yes"/>
			<point x="202" y="538"/>
			<point x="204" y="535"/>
			<point x="204" y="529" type="curve" smooth="yes"/>
			<point x="204" y="524.333"/>
			<point x="202" y="514.667"/>
			<point x="198" y="500" type="curve" smooth="yes"/>
			<point x="194.667" y="481.333"/>
			<point x="191.333" y="462.333"/>
			<point x="188" y="443" type="curve" smooth="yes"/>
			<point x="183.333" y="425"/>
			<point x="179" y="406.333"/>
			<point x="175" y="387" type="curve"/>
			<point x="159" y="269.667"/>
			<point x="147.667" y="175.667"/>
			<point x="141" y="105" type="curve"/>
			<point x="141.667" y="101.667"/>
			<point x="145" y="98.333"/>
			<point x="151" y="95" type="curve" smooth="yes"/>
			<point x="157" y="91.667"/>
			<point x="160.667" y="89.333"/>
		</contour>
		<contour>
			<point x="107" y="549" type="curve" smooth="yes"/>
			<point x="96.333" y="549"/>
			<point x="89.333" y="551.667"/>
			<point x="86" y="557" type="curve" smooth="yes"/>
			<point x="82.667" y="561.667"/>
			<point x="81" y="566.667"/>
			<point x="81" y="572" type="curve" smooth="yes"/>
			<point x="81" y="580"/>
			<point x="84.333" y="590"/>
			<point x="91" y="602" type="curve"/>
			<point x="95" y="620.667"/>
			<point x="160.667" y="669"/>
			<point x="182" y="669" type="curve" smooth="yes"/>
			<point x="184" y="669"/>
			<point x="185.333" y="668.667"/>
			<point x="186" y="668" type="curve"/>
			<point x="194.667" y="668"/>
			<point x="200.333" y="664.667"/>
			<point x="203" y="658" type="curve" smooth="yes"/>
			<point x="205.667" y="653.333"/>
			<point x="207" y="649.667"/>
			<point x="207" y="647" type="curve" smooth="yes"/>
			<point x="207" y="644.333"/>
			<point x="204" y="638"/>
			<point x="198" y="628" type="curve" smooth="yes"/>
			<point x="194" y="618.667"/>
			<point x="187" y="609"/>
			<point x="177" y="599" type="curve" smooth="yes"/>
			<point x="166.333" y="587.667"/>
			<point x="159.333" y="579"/>
			<point x="156" y="573" type="curve" smooth="yes"/>
			<point x="149.333" y="558.333"/>
			<point x="128.333" y="549"/>
		</contour>
	</outline>
</glyph>
<glyph name="colon" format="2">
	<advance width="180" height="819"/>
	<unicode hex="003A"/>
	<note>
		colon
	</note>
	<outline>
		<contour>
			<point x="98" y="256" type="curve" smooth="yes"/>
			<point x="99" y="256" type="line" smooth="yes"/>
			<point x="107" y="256"/>
			<point x="113" y="265.333"/>
			<point x="113" y="276" type="curve" smooth="yes"/>
			<point x="113" y="282"/>
			<point x="111.333" y="288.333"/>
			<point x="108" y="295" type="curve" smooth="yes"/>
			<point x="96.667" y="313.667"/>
			<point x="87.333" y="323"/>
			<point x="80" y="323" type="curve" smooth="yes"/>
			<point x="70.667" y="323"/>
			<point x="66" y="318"/>
			<point x="66" y="308" type="curve" smooth="yes"/>
			<point x="66" y="288"/>
			<point x="86" y="256"/>
		</contour>
		<contour>
			<point x="90" y="416" type="curve" smooth="yes"/>
			<point x="95.333" y="416"/>
			<point x="104" y="426.667"/>
			<point x="104" y="436" type="curve" smooth="yes"/>
			<point x="104" y="442"/>
			<point x="102" y="448"/>
			<point x="98" y="454" type="curve"/>
			<point x="93.333" y="464.667"/>
			<point x="87" y="470"/>
			<point x="79" y="470" type="curve" smooth="yes"/>
			<point x="71" y="470"/>
			<point x="64" y="462.667"/>
			<point x="64" y="452" type="curve" smooth="yes"/>
			<point x="64" y="445.333"/>
			<point x="67" y="438.667"/>
			<point x="73" y="432" type="curve"/>
			<point x="79.667" y="421.333"/>
			<point x="85.333" y="416"/>
		</contour>
	</outline>
</glyph>
<glyph name="semicolon" format="2">
	<advance width="260" height="892"/>
	<unicode hex="003B"/>
	<note>
		semicolon
	</note>
	<outline>
		<contour>
			<point x="126" y="184" type="curve" smooth="yes"/>
			<point x="130.667" y="184"/>
			<point x="136.333" y="187.667"/>
			<point x="143" y="195" type="curve" smooth="yes"/>
			<point x="155" y="211"/>
			<point x="156.333" y="213.667"/>
			<point x="163" y="243" type="curve" smooth="yes"/>
			<point x="167" y="265.667"/>
			<point x="169" y="283"/>
			<point x="169" y="295" type="curve" smooth="yes"/>
			<point x="169" y="324.333"/>
			<point x="157.333" y="339"/>
			<point x="132" y="339" type="curve" smooth="yes"/>
			<point x="125.333" y="338.333"/>
			<point x="118.333" y="337.667"/>
			<point x="111" y="337" type="curve"/>
			<point x="101.667" y="334.333"/>
			<point x="90" y="321.667"/>
			<point x="90" y="315" type="curve" smooth="yes"/>
			<point x="90" y="304.333"/>
			<point x="109.667" y="292"/>
			<point x="131" y="288" type="curve"/>
			<point x="133.667" y="285.333"/>
			<point x="135" y="280"/>
			<point x="135" y="272" type="curve" smooth="yes"/>
			<point x="135" y="250"/>
			<point x="129.667" y="229"/>
			<point x="119" y="209" type="curve" smooth="yes"/>
			<point x="115.667" y="203.667"/>
			<point x="114" y="198.667"/>
			<point x="114" y="194" type="curve" smooth="yes"/>
			<point x="114" y="187.333"/>
			<point x="118" y="184"/>
		</contour>
		<contour>
			<point x="129" y="430" type="curve" smooth="yes"/>
			<point x="141" y="430"/>
			<point x="151" y="446"/>
			<point x="151" y="462" type="curve" smooth="yes"/>
			<point x="151" y="467" type="line" smooth="yes"/>
			<point x="150.333" y="470.333"/>
			<point x="147.667" y="473"/>
			<point x="143" y="475" type="curve" smooth="yes"/>
			<point x="138.333" y="477"/>
			<point x="135" y="479"/>
			<point x="133" y="481" type="curve"/>
			<point x="127.667" y="481"/>
			<point x="121" y="478.333"/>
			<point x="113" y="473" type="curve" smooth="yes"/>
			<point x="105.667" y="468.333"/>
			<point x="102" y="461.667"/>
			<point x="102" y="453" type="curve" smooth="yes"/>
			<point x="102" y="444.333"/>
			<point x="107" y="438"/>
			<point x="117" y="434" type="curve" smooth="yes"/>
			<point x="121.667" y="431.333"/>
			<point x="125.667" y="430"/>
		</contour>
	</outline>
</glyph>
<glyph name="less" format="2">
	<advance width="281" height="839"/>
	<unicode hex="003C"/>
	<note>
		less
	</note>
	<outline>
		<contour>
			<point x="229" y="236" type="curve" smooth="yes"/>
			<point x="235.667" y="236"/>
			<point x="245" y="245"/>
			<point x="245" y="257" type="curve" smooth="yes"/>
			<point x="245" y="260.333"/>
			<point x="244.667" y="262.667"/>
			<point x="244" y="264" type="curve" smooth="yes"/>
			<point x="241.333" y="270"/>
			<point x="214.333" y="298.333"/>
			<point x="163" y="349" type="curve" smooth="yes"/>
			<point x="160.333" y="351"/>
			<point x="157.667" y="353"/>
			<point x="155" y="355" type="curve" smooth="yes"/>
			<point x="137.667" y="372.333"/>
			<point x="123.667" y="386.667"/>
			<point x="113" y="398" type="curve" smooth="yes"/>
			<point x="106.333" y="406.667"/>
			<point x="103" y="413.333"/>
			<point x="103" y="418" type="curve" smooth="yes"/>
			<point x="103" y="422.667"/>
			<point x="107.667" y="428.667"/>
			<point x="117" y="436" type="curve" smooth="yes"/>
			<point x="147" y="460.667"/>
			<point x="179.333" y="489.333"/>
			<point x="214" y="522" type="curve" smooth="yes"/>
			<point x="228.667" y="536"/>
			<point x="236" y="543.333"/>
			<point x="236" y="544" type="curve"/>
			<point x="240.667" y="546.667"/>
			<point x="243" y="550.333"/>
			<point x="243" y="555" type="curve" smooth="yes"/>
			<point x="243" y="560.333"/>
			<point x="238" y="567"/>
			<point x="230" y="567" type="curve"/>
			<point x="228.667" y="566.333"/>
			<point x="226.667" y="565.667"/>
			<point x="224" y="565" type="curve"/>
			<point x="208" y="555"/>
			<point x="194.667" y="545"/>
			<point x="184" y="535" type="curve" smooth="yes"/>
			<point x="173.333" y="526.333"/>
			<point x="162.667" y="518"/>
			<point x="152" y="510" type="curve" smooth="yes"/>
			<point x="110" y="475" type="line" smooth="yes"/>
			<point x="89.333" y="455.667"/>
			<point x="75" y="443.333"/>
			<point x="67" y="438" type="curve" smooth="yes"/>
			<point x="55" y="430"/>
			<point x="49" y="422"/>
			<point x="49" y="414" type="curve"/>
			<point x="49.667" y="412"/>
			<point x="50" y="409.667"/>
			<point x="50" y="407" type="curve"/>
			<point x="51.333" y="401.667"/>
			<point x="78" y="373.333"/>
			<point x="130" y="322" type="curve" smooth="yes"/>
			<point x="168.667" y="284"/>
			<point x="192" y="261.333"/>
			<point x="200" y="254" type="curve" smooth="yes"/>
			<point x="213.333" y="242"/>
			<point x="223" y="236"/>
		</contour>
	</outline>
</glyph>
<glyph name="equal" format="2">
	<advance width="334" height="753"/>
	<unicode hex="003D"/>
	<note>
		equal
	</note>
	<outline>
		<contour>
			<point x="68" y="322" type="curve" smooth="yes"/>
			<point x="92" y="322"/>
			<point x="116.333" y="325"/>
			<point x="141" y="331" type="curve" smooth="yes"/>
			<point x="157" y="334" type="line" smooth="yes"/>
			<point x="216.333" y="344"/>
			<point x="251.667" y="353"/>
			<point x="263" y="361" type="curve" smooth="yes"/>
			<point x="277" y="371.667"/>
			<point x="284" y="380.667"/>
			<point x="284" y="388" type="curve" smooth="yes"/>
			<point x="284" y="392.667"/>
			<point x="279.667" y="396"/>
			<point x="271" y="398" type="curve"/>
			<point x="229.667" y="384.667"/>
			<point x="194.333" y="377.667"/>
			<point x="165" y="377" type="curve" smooth="yes"/>
			<point x="150.333" y="377"/>
			<point x="125.667" y="373.333"/>
			<point x="91" y="366" type="curve" smooth="yes"/>
			<point x="63" y="360" type="line"/>
			<point x="51" y="360"/>
			<point x="43" y="352.667"/>
			<point x="43" y="342" type="curve" smooth="yes"/>
			<point x="43" y="332.667"/>
			<point x="47.667" y="326.333"/>
			<point x="57" y="323" type="curve" smooth="yes"/>
			<point x="58.333" y="322.333"/>
			<point x="62" y="322"/>
		</contour>
		<contour>
			<point x="95" y="433" type="curve" smooth="yes"/>
			<point x="104" y="433" type="line" smooth="yes"/>
			<point x="115.333" y="433"/>
			<point x="127.667" y="434"/>
			<point x="141" y="436" type="curve" smooth="yes"/>
			<point x="153" y="438.667"/>
			<point x="165" y="440"/>
			<point x="177" y="440" type="curve" smooth="yes"/>
			<point x="214.333" y="440"/>
			<point x="233" y="448.667"/>
			<point x="233" y="466" type="curve" smooth="yes"/>
			<point x="233" y="472.667"/>
			<point x="230.667" y="476.667"/>
			<point x="226" y="478" type="curve" smooth="yes"/>
			<point x="220" y="480"/>
			<point x="205.333" y="481"/>
			<point x="182" y="481" type="curve" smooth="yes"/>
			<point x="156" y="481"/>
			<point x="137.333" y="479.333"/>
			<point x="126" y="476" type="curve" smooth="yes"/>
			<point x="119.333" y="474.667"/>
			<point x="107.333" y="472.333"/>
			<point x="90" y="469" type="curve" smooth="yes"/>
			<point x="78.667" y="467"/>
			<point x="70.5" y="465"/>
			<point x="65.5" y="463" type="curve" smooth="yes"/>
			<point x="60.5" y="461"/>
			<point x="58" y="458"/>
			<point x="58" y="454" type="curve" smooth="yes"/>
			<point x="58" y="449.333"/>
			<point x="60" y="444.667"/>
			<point x="64" y="440" type="curve" smooth="yes"/>
			<point x="72" y="432"/>
			<point x="73.667" y="433"/>
		</contour>
	</outline>
</glyph>
<glyph name="greater" format="2">
	<advance width="284" height="806"/>
	<unicode hex="003E"/>
	<note>
		greater
	</note>
	<outline>
		<contour>
			<point x="56" y="269" type="curve" smooth="yes"/>
			<point x="62.667" y="269"/>
			<point x="70.667" y="273.333"/>
			<point x="80" y="282" type="curve"/>
			<point x="100" y="306"/>
			<point x="117.333" y="327.333"/>
			<point x="132" y="346" type="curve" smooth="yes"/>
			<point x="168" y="389" type="line"/>
			<point x="170.667" y="393.667"/>
			<point x="184.667" y="408.667"/>
			<point x="210" y="434" type="curve" smooth="yes"/>
			<point x="236" y="460.667"/>
			<point x="249" y="478"/>
			<point x="249" y="486" type="curve" smooth="yes"/>
			<point x="249" y="488"/>
			<point x="248.667" y="489.333"/>
			<point x="248" y="490" type="curve"/>
			<point x="246" y="494.667"/>
			<point x="239.333" y="498.333"/>
			<point x="228" y="501" type="curve" smooth="yes"/>
			<point x="211.333" y="504.333"/>
			<point x="195" y="507.333"/>
			<point x="179" y="510" type="curve" smooth="yes"/>
			<point x="137" y="518" type="line"/>
			<point x="131.667" y="518"/>
			<point x="119.333" y="520.667"/>
			<point x="100" y="526" type="curve" smooth="yes"/>
			<point x="78.667" y="531.333"/>
			<point x="65.333" y="534"/>
			<point x="60" y="534" type="curve" smooth="yes"/>
			<point x="49.333" y="534"/>
			<point x="42" y="527.667"/>
			<point x="42" y="521" type="curve" smooth="yes"/>
			<point x="42" y="518.333"/>
			<point x="43" y="515.333"/>
			<point x="45" y="512" type="curve" smooth="yes"/>
			<point x="54.333" y="500"/>
			<point x="92" y="484"/>
			<point x="132" y="476" type="curve" smooth="yes"/>
			<point x="153" y="471" type="line" smooth="yes"/>
			<point x="165.667" y="468.333"/>
			<point x="172" y="465.333"/>
			<point x="172" y="462" type="curve" smooth="yes"/>
			<point x="172" y="456.667"/>
			<point x="150.667" y="427.333"/>
			<point x="108" y="374" type="curve" smooth="yes"/>
			<point x="86.667" y="347.333"/>
			<point x="66.667" y="321.333"/>
			<point x="48" y="296" type="curve" smooth="yes"/>
			<point x="43.333" y="289.333"/>
			<point x="41" y="284.333"/>
			<point x="41" y="281" type="curve" smooth="yes"/>
			<point x="41" y="275.667"/>
			<point x="48" y="269"/>
		</contour>
	</outline>
</glyph>
<glyph name="question" format="2">
	<advance width="305" height="1236"/>
	<unicode hex="003F"/>
	<note>
		question
	</note>
	<outline>
		<contour>
			<point x="141" y="361" type="curve" smooth="yes"/>
			<point x="144.333" y="361"/>
			<point x="148" y="363"/>
			<point x="152" y="367" type="curve"/>
			<point x="155.333" y="372.333"/>
			<point x="157" y="384.667"/>
			<point x="157" y="404" type="curve" smooth="yes"/>
			<point x="157" y="444"/>
			<point x="159" y="446.333"/>
			<point x="187" y="461" type="curve" smooth="yes"/>
			<point x="224.333" y="479.667"/>
			<point x="234.333" y="491.667"/>
			<point x="245" y="529" type="curve" smooth="yes"/>
			<point x="247.667" y="539"/>
			<point x="249" y="550.333"/>
			<point x="249" y="563" type="curve" smooth="yes"/>
			<point x="249" y="604.333"/>
			<point x="233.667" y="639"/>
			<point x="207" y="651" type="curve"/>
			<point x="201.667" y="654.333"/>
			<point x="192" y="656"/>
			<point x="178" y="656" type="curve" smooth="yes"/>
			<point x="158" y="656"/>
			<point x="141.667" y="653"/>
			<point x="129" y="647" type="curve" smooth="yes"/>
			<point x="104" y="638" type="line" smooth="yes"/>
			<point x="90" y="631.333"/>
			<point x="80.333" y="627.667"/>
			<point x="75" y="627" type="curve" smooth="yes"/>
			<point x="60.333" y="627"/>
			<point x="50" y="616"/>
			<point x="50" y="604" type="curve" smooth="yes"/>
			<point x="50" y="597.333"/>
			<point x="54" y="592.333"/>
			<point x="62" y="589" type="curve"/>
			<point x="64" y="586.333"/>
			<point x="67.333" y="585"/>
			<point x="72" y="585" type="curve" smooth="yes"/>
			<point x="80" y="585"/>
			<point x="94.667" y="590"/>
			<point x="116" y="600" type="curve" smooth="yes"/>
			<point x="137.333" y="608.667"/>
			<point x="152" y="613"/>
			<point x="160" y="613" type="curve" smooth="yes"/>
			<point x="163.333" y="613"/>
			<point x="165.333" y="612.667"/>
			<point x="166" y="612" type="curve"/>
			<point x="202.677" y="612"/>
			<point x="206" y="601.821"/>
			<point x="206" y="563" type="curve" smooth="yes"/>
			<point x="206" y="533.667"/>
			<point x="199" y="521"/>
			<point x="171" y="497" type="curve" smooth="yes"/>
			<point x="148.333" y="478.333"/>
			<point x="133.333" y="461.667"/>
			<point x="126" y="447" type="curve"/>
			<point x="124" y="445"/>
			<point x="123" y="439.333"/>
			<point x="123" y="430" type="curve" smooth="yes"/>
			<point x="124" y="405" type="line" smooth="yes"/>
			<point x="125.333" y="381"/>
			<point x="128" y="368"/>
			<point x="132" y="366" type="curve" smooth="yes"/>
			<point x="136.667" y="362.667"/>
			<point x="139.667" y="361"/>
		</contour>
		<contour>
			<point x="137" y="210" type="curve" smooth="yes"/>
			<point x="141" y="210" type="line" smooth="yes"/>
			<point x="158.333" y="212.667"/>
			<point x="166" y="221.333"/>
			<point x="166" y="248" type="curve" smooth="yes"/>
			<point x="166" y="274.667"/>
			<point x="154.667" y="295"/>
			<point x="140" y="295" type="curve" smooth="yes"/>
			<point x="138.667" y="295"/>
			<point x="137.333" y="295"/>
			<point x="136" y="295" type="curve" smooth="yes"/>
			<point x="134.667" y="295"/>
			<point x="133.667" y="294.667"/>
			<point x="133" y="294" type="curve"/>
			<point x="123.667" y="291.333"/>
			<point x="115" y="267.667"/>
			<point x="115" y="245" type="curve" smooth="yes"/>
			<point x="115" y="221.667"/>
			<point x="122.333" y="210"/>
		</contour>
	</outline>
</glyph>
<glyph name="at" format="2">
	<advance width="465" height="829"/>
	<unicode hex="0040"/>
	<note>
		at
	</note>
	<outline>
		<contour>
			<point x="327" y="246" type="curve" smooth="yes"/>
			<point x="330" y="246" type="line" smooth="yes"/>
			<point x="362" y="246"/>
			<point x="372.667" y="252.667"/>
			<point x="394" y="282" type="curve" smooth="yes"/>
			<point x="406.667" y="300.667"/>
			<point x="413" y="325.667"/>
			<point x="413" y="357" type="curve" smooth="yes"/>
			<point x="413" y="449"/>
			<point x="381.333" y="488.333"/>
			<point x="324" y="527" type="curve" smooth="yes"/>
			<point x="300" y="544.333"/>
			<point x="288.667" y="547.667"/>
			<point x="250" y="553" type="curve" smooth="yes"/>
			<point x="231.333" y="555.667"/>
			<point x="217" y="557"/>
			<point x="207" y="557" type="curve" smooth="yes"/>
			<point x="201" y="557"/>
			<point x="192.667" y="555.333"/>
			<point x="182" y="552" type="curve" smooth="yes"/>
			<point x="159.333" y="545.333"/>
			<point x="118" y="520"/>
			<point x="110" y="508" type="curve" smooth="yes"/>
			<point x="108.667" y="506.667"/>
			<point x="105" y="501.333"/>
			<point x="99" y="492" type="curve"/>
			<point x="75" y="465.333"/>
			<point x="67.667" y="453.333"/>
			<point x="57" y="428" type="curve" smooth="yes"/>
			<point x="50.333" y="414"/>
			<point x="47" y="400.333"/>
			<point x="47" y="387" type="curve" smooth="yes"/>
			<point x="47" y="337.667"/>
			<point x="86.333" y="289.333"/>
			<point x="149" y="268" type="curve"/>
			<point x="154.333" y="263.333"/>
			<point x="173.333" y="261"/>
			<point x="206" y="261" type="curve" smooth="yes"/>
			<point x="232" y="261"/>
			<point x="252" y="263"/>
			<point x="266" y="267" type="curve" smooth="yes"/>
			<point x="285" y="271" type="line"/>
			<point x="289" y="271"/>
			<point x="295" y="267"/>
			<point x="303" y="259" type="curve" smooth="yes"/>
			<point x="313.667" y="247"/>
			<point x="315" y="246"/>
		</contour>
		<contour>
			<point x="323" y="278" type="curve" smooth="yes"/>
			<point x="313" y="278"/>
			<point x="308" y="281.667"/>
			<point x="308" y="289" type="curve" smooth="yes"/>
			<point x="308" y="293"/>
			<point x="309.667" y="299.333"/>
			<point x="313" y="308" type="curve" smooth="yes"/>
			<point x="317" y="317.333"/>
			<point x="319" y="329.333"/>
			<point x="319" y="344" type="curve" smooth="yes"/>
			<point x="319" y="352"/>
			<point x="318.667" y="360"/>
			<point x="318" y="368" type="curve" smooth="yes"/>
			<point x="317" y="415" type="line"/>
			<point x="305" y="444" type="line"/>
			<point x="294" y="467" type="line" smooth="yes"/>
			<point x="290.667" y="474.333"/>
			<point x="287.333" y="479"/>
			<point x="284" y="481" type="curve" smooth="yes"/>
			<point x="279.333" y="483.667"/>
			<point x="269" y="485.333"/>
			<point x="253" y="486" type="curve" smooth="yes"/>
			<point x="229" y="488" type="line" smooth="yes"/>
			<point x="207.667" y="488"/>
			<point x="198" y="482.333"/>
			<point x="182" y="465" type="curve" smooth="yes"/>
			<point x="155.333" y="437"/>
			<point x="148" y="420.333"/>
			<point x="148" y="379" type="curve" smooth="yes"/>
			<point x="148" y="352.333"/>
			<point x="152.333" y="343.333"/>
			<point x="167" y="334" type="curve" smooth="yes"/>
			<point x="173.667" y="329.333"/>
			<point x="180.667" y="327"/>
			<point x="188" y="327" type="curve" smooth="yes"/>
			<point x="208" y="327"/>
			<point x="227.667" y="345.667"/>
			<point x="247" y="383" type="curve" smooth="yes"/>
			<point x="255" y="397"/>
			<point x="262" y="404"/>
			<point x="268" y="404" type="curve" smooth="yes"/>
			<point x="276.667" y="404"/>
			<point x="281.333" y="388.333"/>
			<point x="282" y="357" type="curve" smooth="yes"/>
			<point x="282" y="345" type="line" smooth="yes"/>
			<point x="282" y="309"/>
			<point x="271" y="302.333"/>
			<point x="227" y="297" type="curve" smooth="yes"/>
			<point x="219.667" y="296.333"/>
			<point x="210" y="296"/>
			<point x="198" y="296" type="curve" smooth="yes"/>
			<point x="173.333" y="296"/>
			<point x="150.333" y="301"/>
			<point x="129" y="311" type="curve" smooth="yes"/>
			<point x="110.333" y="319"/>
			<point x="107" y="324"/>
			<point x="95" y="340" type="curve" smooth="yes"/>
			<point x="88.333" y="350"/>
			<point x="85" y="361"/>
			<point x="85" y="373" type="curve" smooth="yes"/>
			<point x="85" y="389" type="line" smooth="yes"/>
			<point x="85" y="405.667"/>
			<point x="86.333" y="415.667"/>
			<point x="89" y="419" type="curve" smooth="yes"/>
			<point x="99" y="431.667"/>
			<point x="107.333" y="442.667"/>
			<point x="114" y="452" type="curve" smooth="yes"/>
			<point x="120.667" y="461.333"/>
			<point x="128" y="469.667"/>
			<point x="136" y="477" type="curve" smooth="yes"/>
			<point x="144" y="485.667"/>
			<point x="153" y="493"/>
			<point x="163" y="499" type="curve" smooth="yes"/>
			<point x="179.667" y="509.667"/>
			<point x="197" y="515"/>
			<point x="215" y="515" type="curve" smooth="yes"/>
			<point x="227.667" y="515"/>
			<point x="242.333" y="513.667"/>
			<point x="259" y="511" type="curve" smooth="yes"/>
			<point x="272.333" y="509"/>
			<point x="284.667" y="504"/>
			<point x="296" y="496" type="curve" smooth="yes"/>
			<point x="332" y="472"/>
			<point x="350.333" y="449"/>
			<point x="365" y="409" type="curve" smooth="yes"/>
			<point x="371" y="395.667"/>
			<point x="374" y="378.667"/>
			<point x="374" y="358" type="curve" smooth="yes"/>
			<point x="374" y="338"/>
			<point x="370.667" y="323.333"/>
			<point x="364" y="314" type="curve"/>
			<point x="352" y="290"/>
			<point x="338.333" y="278"/>
		</contour>
		<contour>
			<point x="190" y="373" type="curve" smooth="yes"/>
			<point x="186" y="373"/>
			<point x="179" y="378.333"/>
			<point x="179" y="385" type="curve"/>
			<point x="180.333" y="390.333"/>
			<point x="181.333" y="395.333"/>
			<point x="182" y="400" type="curve" smooth="yes"/>
			<point x="186" y="424"/>
			<point x="189.333" y="430"/>
			<point x="208" y="446" type="curve"/>
			<point x="216" y="455.333"/>
			<point x="224.333" y="460"/>
			<point x="233" y="460" type="curve" smooth="yes"/>
			<point x="246.333" y="460"/>
			<point x="253" y="456.667"/>
			<point x="253" y="450" type="curve" smooth="yes"/>
			<point x="253" y="446.667"/>
			<point x="243.667" y="432"/>
			<point x="225" y="406" type="curve" smooth="yes"/>
			<point x="208.333" y="384"/>
			<point x="196.667" y="373"/>
		</contour>
	</outline>
</glyph>
<glyph name="B" format="2">
	<advance width="395" height="916"/>
	<unicode hex="0042"/>
	<note>
		B
	</note>
	<outline>
		<contour>
			<point x="80" y="160" type="curve"/>
			<point x="81.333" y="158.667"/>
			<point x="122" y="160.333"/>
			<point x="122" y="163" type="curve"/>
			<point x="171.333" y="165.667"/>
			<point x="195.667" y="173.667"/>
			<point x="225" y="191" type="curve" smooth="yes"/>
			<point x="258.333" y="213.667"/>
			<point x="320.333" y="283"/>
			<point x="339" y="319" type="curve" smooth="yes"/>
			<point x="343" y="327"/>
			<point x="350.667" y="351.667"/>
			<point x="362" y="393" type="curve"/>
			<point x="360.667" y="393.667"/>
			<point x="358.333" y="399.333"/>
			<point x="355" y="410" type="curve" smooth="yes"/>
			<point x="354.333" y="413.333"/>
			<point x="352.667" y="417"/>
			<point x="350" y="421" type="curve" smooth="yes"/>
			<point x="347.333" y="425"/>
			<point x="345.333" y="428.667"/>
			<point x="344" y="432" type="curve"/>
			<point x="339" y="437" type="line"/>
			<point x="337" y="442.333"/>
			<point x="327" y="445"/>
			<point x="309" y="445" type="curve" smooth="yes"/>
			<point x="303" y="445"/>
			<point x="288.333" y="443.667"/>
			<point x="265" y="441" type="curve" smooth="yes"/>
			<point x="261.667" y="441"/>
			<point x="258" y="440.667"/>
			<point x="254" y="440" type="curve" smooth="yes"/>
			<point x="250" y="439" type="line" smooth="yes"/>
			<point x="246" y="439"/>
			<point x="244" y="441.667"/>
			<point x="244" y="447" type="curve" smooth="yes"/>
			<point x="244" y="451.667"/>
			<point x="251" y="462.667"/>
			<point x="265" y="480" type="curve" smooth="yes"/>
			<point x="296.333" y="514.667"/>
			<point x="312" y="550.333"/>
			<point x="312" y="587" type="curve" smooth="yes"/>
			<point x="312" y="600.333"/>
			<point x="309.667" y="612"/>
			<point x="305" y="622" type="curve" smooth="yes"/>
			<point x="295.667" y="642"/>
			<point x="254" y="663"/>
			<point x="222" y="663" type="curve" smooth="yes"/>
			<point x="210.667" y="663"/>
			<point x="200.667" y="660.667"/>
			<point x="192" y="656" type="curve" smooth="yes"/>
			<point x="184" y="651.333"/>
			<point x="178.333" y="649"/>
			<point x="175" y="649" type="curve" smooth="yes"/>
			<point x="172.333" y="649"/>
			<point x="168" y="650.333"/>
			<point x="162" y="653" type="curve" smooth="yes"/>
			<point x="155.333" y="655"/>
			<point x="150" y="656"/>
			<point x="146" y="656" type="curve" smooth="yes"/>
			<point x="140.667" y="656"/>
			<point x="137" y="654.333"/>
			<point x="135" y="651" type="curve" smooth="yes"/>
			<point x="129.667" y="645"/>
			<point x="122" y="606.667"/>
			<point x="112" y="536" type="curve" smooth="yes"/>
			<point x="110" y="522"/>
			<point x="107.333" y="508"/>
			<point x="104" y="494" type="curve" smooth="yes"/>
			<point x="98.667" y="479.333"/>
			<point x="95.667" y="467"/>
			<point x="95" y="457" type="curve" smooth="yes"/>
			<point x="87" y="406.333"/>
			<point x="65.333" y="309.333"/>
			<point x="52" y="276" type="curve"/>
			<point x="48" y="270"/>
			<point x="45.667" y="263.667"/>
			<point x="45" y="257" type="curve" smooth="yes"/>
			<point x="44.333" y="251.667"/>
			<point x="42" y="244.333"/>
			<point x="38" y="235" type="curve"/>
			<point x="31" y="209" type="line"/>
			<point x="31" y="195.667"/>
			<point x="36.333" y="191"/>
			<point x="59" y="175" type="curve" smooth="yes"/>
			<point x="61" y="173.667"/>
			<point x="65" y="171.667"/>
			<point x="71" y="169" type="curve" smooth="yes"/>
			<point x="77" y="166.333"/>
			<point x="80" y="163.333"/>
		</contour>
		<contour>
			<point x="96" y="196" type="curve" smooth="yes"/>
			<point x="82.667" y="196"/>
			<point x="76" y="201.333"/>
			<point x="76" y="212" type="curve" smooth="yes"/>
			<point x="76" y="218"/>
			<point x="78.333" y="225.333"/>
			<point x="83" y="234" type="curve" smooth="yes"/>
			<point x="96.333" y="263.333"/>
			<point x="104.667" y="286.667"/>
			<point x="108" y="304" type="curve" smooth="yes"/>
			<point x="110.667" y="317.333"/>
			<point x="126.333" y="336"/>
			<point x="137" y="336" type="curve"/>
			<point x="143.667" y="337.333"/>
			<point x="164" y="348"/>
			<point x="198" y="368" type="curve" smooth="yes"/>
			<point x="230.667" y="388"/>
			<point x="253" y="398"/>
			<point x="265" y="398" type="curve" smooth="yes"/>
			<point x="266" y="398" type="line"/>
			<point x="283" y="401" type="line" smooth="yes"/>
			<point x="292.333" y="403"/>
			<point x="299.333" y="404"/>
			<point x="304" y="404" type="curve" smooth="yes"/>
			<point x="312.667" y="404"/>
			<point x="317" y="399"/>
			<point x="317" y="389" type="curve" smooth="yes"/>
			<point x="317" y="370.333"/>
			<point x="303" y="339.333"/>
			<point x="279" y="310" type="curve" smooth="yes"/>
			<point x="224.333" y="240.667"/>
			<point x="193.333" y="218"/>
			<point x="132" y="202" type="curve" smooth="yes"/>
			<point x="115.333" y="198"/>
			<point x="103.333" y="196"/>
		</contour>
		<contour>
			<point x="140" y="388" type="curve" smooth="yes"/>
			<point x="134" y="388"/>
			<point x="131" y="391"/>
			<point x="131" y="397" type="curve" smooth="yes"/>
			<point x="131" y="401"/>
			<point x="133" y="409"/>
			<point x="137" y="421" type="curve" smooth="yes"/>
			<point x="140.333" y="432.333"/>
			<point x="142" y="439.667"/>
			<point x="142" y="443" type="curve" smooth="yes"/>
			<point x="142" y="445"/>
			<point x="141.667" y="446.333"/>
			<point x="141" y="447" type="curve"/>
			<point x="141.667" y="457"/>
			<point x="144.333" y="473.333"/>
			<point x="149" y="496" type="curve" smooth="yes"/>
			<point x="153.667" y="517.333"/>
			<point x="156.667" y="533.667"/>
			<point x="158" y="545" type="curve" smooth="yes"/>
			<point x="160.295" y="581.713"/>
			<point x="164.414" y="600.586"/>
			<point x="178.5" y="608" type="curve" smooth="yes"/>
			<point x="184.833" y="611.333"/>
			<point x="195" y="614"/>
			<point x="209" y="616" type="curve" smooth="yes"/>
			<point x="228" y="618" type="line"/>
			<point x="232" y="618" type="line" smooth="yes"/>
			<point x="256" y="618"/>
			<point x="263.333" y="609"/>
			<point x="266" y="585" type="curve"/>
			<point x="266" y="563.667"/>
			<point x="256" y="539.667"/>
			<point x="236" y="513" type="curve" smooth="yes"/>
			<point x="232" y="508.333"/>
			<point x="224.667" y="496"/>
			<point x="214" y="476" type="curve" smooth="yes"/>
			<point x="200" y="451.333"/>
			<point x="187.667" y="431.333"/>
			<point x="177" y="416" type="curve" smooth="yes"/>
			<point x="170.333" y="406"/>
			<point x="163.667" y="398.667"/>
			<point x="157" y="394" type="curve" smooth="yes"/>
			<point x="150.333" y="390"/>
			<point x="144.667" y="388"/>
		</contour>
	</outline>
</glyph>
<glyph name="C" format="2">
	<advance width="460" height="881"/>
	<unicode hex="0043"/>
	<note>
		C
	</note>
	<outline>
		<contour>
			<point x="181" y="194" type="curve" smooth="yes"/>
			<point x="201" y="194"/>
			<point x="250.667" y="205.333"/>
			<point x="276" y="216" type="curve" smooth="yes"/>
			<point x="287.333" y="220.667"/>
			<point x="313.333" y="236.333"/>
			<point x="354" y="263" type="curve" smooth="yes"/>
			<point x="372" y="275" type="line"/>
			<point x="376" y="278" type="line"/>
			<point x="377" y="279" type="line"/>
			<point x="409" y="299"/>
			<point x="425" y="315.333"/>
			<point x="425" y="328" type="curve" smooth="yes"/>
			<point x="425" y="334.667"/>
			<point x="416.333" y="341"/>
			<point x="411" y="341" type="curve" smooth="yes"/>
			<point x="407.667" y="341"/>
			<point x="394" y="334.333"/>
			<point x="370" y="321" type="curve" smooth="yes"/>
			<point x="356" y="313" type="line" smooth="yes"/>
			<point x="280" y="266.333"/>
			<point x="273.667" y="265"/>
			<point x="223" y="245" type="curve" smooth="yes"/>
			<point x="213" y="241.667"/>
			<point x="203" y="240"/>
			<point x="193" y="240" type="curve" smooth="yes"/>
			<point x="158.333" y="240"/>
			<point x="120.667" y="262.667"/>
			<point x="110" y="284" type="curve" smooth="yes"/>
			<point x="106.667" y="290.667"/>
			<point x="103.667" y="296.333"/>
			<point x="101" y="301" type="curve" smooth="yes"/>
			<point x="87.667" y="321"/>
			<point x="81" y="337.333"/>
			<point x="81" y="350" type="curve" smooth="yes"/>
			<point x="81" y="354.667"/>
			<point x="81.333" y="358"/>
			<point x="82" y="360" type="curve"/>
			<point x="84.667" y="388"/>
			<point x="96" y="410.333"/>
			<point x="128" y="453" type="curve" smooth="yes"/>
			<point x="151" y="484" type="line" smooth="yes"/>
			<point x="156.333" y="492.667"/>
			<point x="166" y="503"/>
			<point x="180" y="515" type="curve" smooth="yes"/>
			<point x="192.667" y="527"/>
			<point x="213" y="538"/>
			<point x="241" y="548" type="curve"/>
			<point x="257.667" y="552"/>
			<point x="267.667" y="555.667"/>
			<point x="271" y="559" type="curve"/>
			<point x="281.667" y="560.333"/>
			<point x="287" y="563.667"/>
			<point x="287" y="569" type="curve" smooth="yes"/>
			<point x="287" y="575"/>
			<point x="281.667" y="580.333"/>
			<point x="271" y="585" type="curve" smooth="yes"/>
			<point x="265" y="588.333"/>
			<point x="256.667" y="590"/>
			<point x="246" y="590" type="curve" smooth="yes"/>
			<point x="226.667" y="590"/>
			<point x="206.333" y="586.333"/>
			<point x="185" y="579" type="curve"/>
			<point x="174.333" y="572.333"/>
			<point x="111" y="504.333"/>
			<point x="83" y="471" type="curve" smooth="yes"/>
			<point x="57.667" y="441.667"/>
			<point x="33" y="387.333"/>
			<point x="33" y="354" type="curve" smooth="yes"/>
			<point x="33" y="336.667"/>
			<point x="41.333" y="314"/>
			<point x="58" y="286" type="curve" smooth="yes"/>
			<point x="74.605" y="254.865"/>
			<point x="84.565" y="237.131"/>
			<point x="97.5" y="228" type="curve" smooth="yes"/>
			<point x="103.167" y="224"/>
			<point x="113" y="218.333"/>
			<point x="127" y="211" type="curve" smooth="yes"/>
			<point x="156.333" y="195"/>
			<point x="161" y="194"/>
		</contour>
	</outline>
</glyph>
<glyph name="D" format="2">
	<advance width="380" height="887"/>
	<unicode hex="0044"/>
	<note>
		D
	</note>
	<outline>
		<contour>
			<point x="126" y="188" type="curve" smooth="yes"/>
			<point x="156.667" y="188"/>
			<point x="224.667" y="233"/>
			<point x="238" y="265" type="curve" smooth="yes"/>
			<point x="240.667" y="271.667"/>
			<point x="247.667" y="281.667"/>
			<point x="259" y="295" type="curve" smooth="yes"/>
			<point x="275" y="312.333"/>
			<point x="314" y="387.333"/>
			<point x="318" y="406" type="curve"/>
			<point x="327" y="434" type="line" smooth="yes"/>
			<point x="341" y="472.667"/>
			<point x="348" y="502.667"/>
			<point x="348" y="524" type="curve" smooth="yes"/>
			<point x="348" y="534" type="line" smooth="yes"/>
			<point x="348" y="584.667"/>
			<point x="345.333" y="595.667"/>
			<point x="324" y="617" type="curve"/>
			<point x="310.667" y="634.333"/>
			<point x="283.667" y="648.667"/>
			<point x="243" y="660" type="curve" smooth="yes"/>
			<point x="236.333" y="662"/>
			<point x="228.667" y="663"/>
			<point x="220" y="663" type="curve" smooth="yes"/>
			<point x="203.333" y="663"/>
			<point x="183.333" y="657.333"/>
			<point x="160" y="646" type="curve"/>
			<point x="155.333" y="642.667"/>
			<point x="150" y="640"/>
			<point x="144" y="638" type="curve"/>
			<point x="135.333" y="638"/>
			<point x="130.667" y="647"/>
			<point x="130" y="665" type="curve" smooth="yes"/>
			<point x="130" y="681"/>
			<point x="118" y="692"/>
			<point x="106" y="692" type="curve" smooth="yes"/>
			<point x="102" y="692"/>
			<point x="97.667" y="690.333"/>
			<point x="93" y="687" type="curve" smooth="yes"/>
			<point x="89.667" y="684.333"/>
			<point x="88" y="672"/>
			<point x="88" y="650" type="curve" smooth="yes"/>
			<point x="88" y="632" type="line" smooth="yes"/>
			<point x="88" y="590.667"/>
			<point x="80" y="525"/>
			<point x="64" y="435" type="curve" smooth="yes"/>
			<point x="54" y="372" type="line"/>
			<point x="53.333" y="361.333"/>
			<point x="50" y="342.667"/>
			<point x="44" y="316" type="curve" smooth="yes"/>
			<point x="38" y="290"/>
			<point x="34.667" y="269"/>
			<point x="34" y="253" type="curve" smooth="yes"/>
			<point x="32" y="208" type="line"/>
			<point x="43.333" y="196.667"/>
			<point x="51.333" y="191"/>
			<point x="56" y="191" type="curve" smooth="yes"/>
			<point x="59.333" y="191"/>
			<point x="64" y="192.667"/>
			<point x="70" y="196" type="curve" smooth="yes"/>
			<point x="76.667" y="199.333"/>
			<point x="81" y="201"/>
			<point x="83" y="201" type="curve"/>
			<point x="100" y="195" type="line"/>
			<point x="108.667" y="190.333"/>
			<point x="117.333" y="188"/>
		</contour>
		<contour>
			<point x="113" y="229" type="curve" smooth="yes"/>
			<point x="100.333" y="229"/>
			<point x="91.333" y="231.667"/>
			<point x="86" y="237" type="curve" smooth="yes"/>
			<point x="81.333" y="241.667"/>
			<point x="79" y="247.667"/>
			<point x="79" y="255" type="curve" smooth="yes"/>
			<point x="79" y="264.333"/>
			<point x="83.667" y="281"/>
			<point x="89" y="301" type="curve" smooth="yes"/>
			<point x="95.667" y="326.333"/>
			<point x="99" y="343.667"/>
			<point x="99" y="353" type="curve" smooth="yes"/>
			<point x="101.667" y="378.333"/>
			<point x="107.333" y="415.333"/>
			<point x="116" y="464" type="curve" smooth="yes"/>
			<point x="123.333" y="500"/>
			<point x="129" y="535.667"/>
			<point x="133" y="571" type="curve" smooth="yes"/>
			<point x="137" y="600.333"/>
			<point x="141" y="606.333"/>
			<point x="169" y="617" type="curve" smooth="yes"/>
			<point x="181.667" y="622.333"/>
			<point x="194.333" y="625"/>
			<point x="207" y="625" type="curve" smooth="yes"/>
			<point x="253.667" y="625"/>
			<point x="301.667" y="594"/>
			<point x="303" y="562" type="curve"/>
			<point x="304.333" y="554.667"/>
			<point x="305" y="546.667"/>
			<point x="305" y="538" type="curve" smooth="yes"/>
			<point x="305" y="508"/>
			<point x="302.333" y="487.333"/>
			<point x="297" y="476" type="curve" smooth="yes"/>
			<point x="295" y="472"/>
			<point x="292" y="462"/>
			<point x="288" y="446" type="curve" smooth="yes"/>
			<point x="260.656" y="346.566"/>
			<point x="181.261" y="244.378"/>
			<point x="140" y="232" type="curve" smooth="yes"/>
			<point x="131.333" y="230"/>
			<point x="122.333" y="229"/>
		</contour>
	</outline>
</glyph>
<glyph name="E" format="2">
	<advance width="383" height="917"/>
	<unicode hex="0045"/>
	<note>
		E
	</note>
	<outline>
		<contour>
			<point x="127" y="158" type="curve" smooth="yes"/>
			<point x="145" y="158" type="line" smooth="yes"/>
			<point x="159" y="158"/>
			<point x="174" y="161"/>
			<point x="190" y="167" type="curve" smooth="yes"/>
			<point x="238" y="184.333"/>
			<point x="298.333" y="226"/>
			<point x="329" y="266" type="curve"/>
			<point x="343" y="281.333"/>
			<point x="350" y="293"/>
			<point x="350" y="301" type="curve" smooth="yes"/>
			<point x="350" y="306.333"/>
			<point x="344.333" y="312"/>
			<point x="339" y="312" type="curve" smooth="yes"/>
			<point x="333" y="312"/>
			<point x="321.667" y="304.667"/>
			<point x="305" y="290" type="curve" smooth="yes"/>
			<point x="291" y="277.333"/>
			<point x="281.333" y="269.333"/>
			<point x="276" y="266" type="curve" smooth="yes"/>
			<point x="261" y="255" type="line" smooth="yes"/>
			<point x="227.667" y="231"/>
			<point x="180.333" y="206.333"/>
			<point x="155" y="205" type="curve" smooth="yes"/>
			<point x="132" y="203" type="line" smooth="yes"/>
			<point x="119.333" y="203"/>
			<point x="111.333" y="206"/>
			<point x="108" y="212" type="curve" smooth="yes"/>
			<point x="106" y="215" type="line"/>
			<point x="104" y="227.667"/>
			<point x="103" y="253.667"/>
			<point x="103" y="293" type="curve" smooth="yes"/>
			<point x="103" y="305"/>
			<point x="103.333" y="312.667"/>
			<point x="104" y="316" type="curve" smooth="yes"/>
			<point x="104.667" y="321.333"/>
			<point x="105.667" y="324"/>
			<point x="107" y="324" type="curve" smooth="yes"/>
			<point x="108" y="324" type="line"/>
			<point x="125.333" y="332"/>
			<point x="204.333" y="358"/>
			<point x="215" y="358" type="curve" smooth="yes"/>
			<point x="219" y="358"/>
			<point x="227.667" y="361"/>
			<point x="241" y="367" type="curve" smooth="yes"/>
			<point x="253" y="372.333"/>
			<point x="262" y="375.667"/>
			<point x="268" y="377" type="curve" smooth="yes"/>
			<point x="274" y="377.667"/>
			<point x="289.667" y="387.333"/>
			<point x="315" y="406" type="curve" smooth="yes"/>
			<point x="328" y="415" type="line" smooth="yes"/>
			<point x="338" y="420.333"/>
			<point x="343" y="427.667"/>
			<point x="343" y="437" type="curve" smooth="yes"/>
			<point x="343" y="447.667"/>
			<point x="338" y="453"/>
			<point x="328" y="453" type="curve" smooth="yes"/>
			<point x="320.667" y="453"/>
			<point x="313" y="449.667"/>
			<point x="305" y="443" type="curve" smooth="yes"/>
			<point x="288.333" y="431.667"/>
			<point x="263" y="420.667"/>
			<point x="229" y="410" type="curve" smooth="yes"/>
			<point x="193" y="397" type="line" smooth="yes"/>
			<point x="187.667" y="394.333"/>
			<point x="180" y="393"/>
			<point x="170" y="393" type="curve" smooth="yes"/>
			<point x="161.333" y="392.333"/>
			<point x="153.333" y="390"/>
			<point x="146" y="386" type="curve" smooth="yes"/>
			<point x="137.333" y="382"/>
			<point x="131.333" y="380"/>
			<point x="128" y="380" type="curve" smooth="yes"/>
			<point x="120.667" y="380"/>
			<point x="117" y="388.333"/>
			<point x="117" y="405" type="curve" smooth="yes"/>
			<point x="117" y="419"/>
			<point x="119.667" y="431.667"/>
			<point x="125" y="443" type="curve" smooth="yes"/>
			<point x="131" y="457"/>
			<point x="135.333" y="468"/>
			<point x="138" y="476" type="curve" smooth="yes"/>
			<point x="141.333" y="485.333"/>
			<point x="147.333" y="499.667"/>
			<point x="156" y="519" type="curve" smooth="yes"/>
			<point x="175" y="557" type="line"/>
			<point x="225.667" y="575.667"/>
			<point x="241.667" y="584.667"/>
			<point x="275" y="602" type="curve" smooth="yes"/>
			<point x="291.667" y="611.333"/>
			<point x="305.667" y="620.667"/>
			<point x="317" y="630" type="curve" smooth="yes"/>
			<point x="326.333" y="637.333"/>
			<point x="331" y="643"/>
			<point x="331" y="647" type="curve" smooth="yes"/>
			<point x="331" y="655"/>
			<point x="319.667" y="665"/>
			<point x="309" y="665" type="curve" smooth="yes"/>
			<point x="301" y="665"/>
			<point x="288.333" y="660"/>
			<point x="271" y="650" type="curve" smooth="yes"/>
			<point x="259.667" y="644.667"/>
			<point x="222.333" y="628"/>
			<point x="159" y="600" type="curve" smooth="yes"/>
			<point x="150.333" y="596"/>
			<point x="140.333" y="593.667"/>
			<point x="129" y="593" type="curve" smooth="yes"/>
			<point x="115.667" y="592.333"/>
			<point x="106.333" y="590.667"/>
			<point x="101" y="588" type="curve" smooth="yes"/>
			<point x="93.667" y="584.667"/>
			<point x="83.333" y="582.333"/>
			<point x="70" y="581" type="curve" smooth="yes"/>
			<point x="56.667" y="578.333"/>
			<point x="46.833" y="575.833"/>
			<point x="40.5" y="573.5" type="curve" smooth="yes"/>
			<point x="34.167" y="571.167"/>
			<point x="31" y="567"/>
			<point x="31" y="561" type="curve" smooth="yes"/>
			<point x="31" y="559" type="line" smooth="yes"/>
			<point x="31" y="544.333"/>
			<point x="46.333" y="533"/>
			<point x="65" y="533" type="curve" smooth="yes"/>
			<point x="70.333" y="533.667"/>
			<point x="75.333" y="534.333"/>
			<point x="80" y="535" type="curve" smooth="yes"/>
			<point x="93" y="537" type="line"/>
			<point x="101" y="537"/>
			<point x="105" y="533.333"/>
			<point x="105" y="526" type="curve" smooth="yes"/>
			<point x="105" y="520.667"/>
			<point x="103.333" y="513.667"/>
			<point x="100" y="505" type="curve" smooth="yes"/>
			<point x="79.333" y="461.667"/>
			<point x="69" y="426.333"/>
			<point x="69" y="399" type="curve" smooth="yes"/>
			<point x="69" y="389.667"/>
			<point x="65.667" y="376.667"/>
			<point x="59" y="360" type="curve" smooth="yes"/>
			<point x="51" y="344"/>
			<point x="47" y="334.333"/>
			<point x="47" y="331" type="curve" smooth="yes"/>
			<point x="47" y="330.333"/>
			<point x="48.5" y="322.5"/>
			<point x="51.5" y="307.5" type="curve" smooth="yes"/>
			<point x="54.5" y="292.5"/>
			<point x="56.333" y="277.667"/>
			<point x="57" y="263" type="curve" smooth="yes"/>
			<point x="59" y="211"/>
			<point x="66.667" y="179"/>
			<point x="80" y="167" type="curve" smooth="yes"/>
			<point x="84" y="164.333"/>
			<point x="88.667" y="162.333"/>
			<point x="94" y="161" type="curve"/>
			<point x="104.667" y="160.333"/>
			<point x="115.667" y="159.333"/>
		</contour>
	</outline>
</glyph>
<glyph name="F" format="2">
	<advance width="411" height="946"/>
	<unicode hex="0046"/>
	<note>
		F
	</note>
	<outline>
		<contour>
			<point x="121" y="129" type="curve" smooth="yes"/>
			<point x="135.667" y="129"/>
			<point x="144.667" y="142"/>
			<point x="148" y="168" type="curve" smooth="yes"/>
			<point x="157" y="214" type="line" smooth="yes"/>
			<point x="167" y="267.333"/>
			<point x="173" y="304"/>
			<point x="175" y="324" type="curve" smooth="yes"/>
			<point x="176.333" y="354.667"/>
			<point x="178.333" y="356"/>
			<point x="197" y="360" type="curve" smooth="yes"/>
			<point x="214" y="364" type="line"/>
			<point x="215" y="364" type="line" smooth="yes"/>
			<point x="268.333" y="374"/>
			<point x="304" y="384"/>
			<point x="322" y="394" type="curve" smooth="yes"/>
			<point x="344" y="404" type="line" smooth="yes"/>
			<point x="376" y="418.667"/>
			<point x="392.667" y="431.667"/>
			<point x="394" y="443" type="curve" smooth="yes"/>
			<point x="394" y="455"/>
			<point x="386.333" y="461"/>
			<point x="371" y="461" type="curve" smooth="yes"/>
			<point x="357" y="461"/>
			<point x="338.667" y="453.667"/>
			<point x="316" y="439" type="curve" smooth="yes"/>
			<point x="296" y="428.333"/>
			<point x="290.333" y="425.667"/>
			<point x="257" y="423" type="curve" smooth="yes"/>
			<point x="237" y="421"/>
			<point x="223" y="418.667"/>
			<point x="215" y="416" type="curve" smooth="yes"/>
			<point x="207" y="413.333"/>
			<point x="201" y="412"/>
			<point x="197" y="412" type="curve" smooth="yes"/>
			<point x="187.667" y="412"/>
			<point x="183" y="416.333"/>
			<point x="183" y="425" type="curve" smooth="yes"/>
			<point x="183.667" y="429"/>
			<point x="184.333" y="432.333"/>
			<point x="185" y="435" type="curve" smooth="yes"/>
			<point x="195.667" y="501.667"/>
			<point x="204.333" y="543"/>
			<point x="211" y="559" type="curve" smooth="yes"/>
			<point x="215" y="567.667"/>
			<point x="222.667" y="576.667"/>
			<point x="234" y="586" type="curve" smooth="yes"/>
			<point x="244.667" y="593.333"/>
			<point x="264" y="604"/>
			<point x="292" y="618" type="curve" smooth="yes"/>
			<point x="330.667" y="636.667"/>
			<point x="350" y="650.667"/>
			<point x="350" y="660" type="curve" smooth="yes"/>
			<point x="350" y="664"/>
			<point x="347.667" y="668.333"/>
			<point x="343" y="673" type="curve" smooth="yes"/>
			<point x="338.333" y="676.333"/>
			<point x="333" y="678"/>
			<point x="327" y="678" type="curve" smooth="yes"/>
			<point x="318.333" y="678"/>
			<point x="308" y="674.667"/>
			<point x="296" y="668" type="curve" smooth="yes"/>
			<point x="249.333" y="643.333"/>
			<point x="218.333" y="630"/>
			<point x="203" y="628" type="curve" smooth="yes"/>
			<point x="196.333" y="627.333"/>
			<point x="181.667" y="623.333"/>
			<point x="159" y="616" type="curve" smooth="yes"/>
			<point x="135.667" y="608.667"/>
			<point x="116" y="605"/>
			<point x="100" y="605" type="curve" smooth="yes"/>
			<point x="89" y="605" type="line"/>
			<point x="53" y="603" type="line" smooth="yes"/>
			<point x="49" y="602.333"/>
			<point x="44.333" y="600.333"/>
			<point x="39" y="597" type="curve"/>
			<point x="33.667" y="590.333"/>
			<point x="31" y="585.667"/>
			<point x="31" y="583" type="curve" smooth="yes"/>
			<point x="33" y="561.667"/>
			<point x="47.667" y="551"/>
			<point x="75" y="551" type="curve" smooth="yes"/>
			<point x="87" y="551"/>
			<point x="102.667" y="553"/>
			<point x="122" y="557" type="curve" smooth="yes"/>
			<point x="140.667" y="560.333"/>
			<point x="152" y="562"/>
			<point x="156" y="562" type="curve" smooth="yes"/>
			<point x="164" y="562"/>
			<point x="168" y="559.667"/>
			<point x="168" y="555" type="curve"/>
			<point x="153.333" y="511"/>
			<point x="146" y="475.667"/>
			<point x="146" y="449" type="curve" smooth="yes"/>
			<point x="146" y="446" type="line" smooth="yes"/>
			<point x="144.667" y="431.333"/>
			<point x="142.333" y="414"/>
			<point x="139" y="394" type="curve" smooth="yes"/>
			<point x="135" y="375.333"/>
			<point x="132.333" y="353.667"/>
			<point x="131" y="329" type="curve" smooth="yes"/>
			<point x="130.333" y="297"/>
			<point x="125.333" y="264.333"/>
			<point x="116" y="231" type="curve" smooth="yes"/>
			<point x="105" y="184" type="line"/>
			<point x="105" y="184" type="line"/>
			<point x="102.333" y="169.333"/>
			<point x="101" y="158.667"/>
			<point x="101" y="152" type="curve" smooth="yes"/>
			<point x="101" y="136.667"/>
			<point x="107.667" y="129"/>
		</contour>
	</outline>
</glyph>
<glyph name="H" format="2">
	<advance width="444" height="922"/>
	<unicode hex="0048"/>
	<note>
		H
	</note>
	<outline>
		<contour>
			<point x="329" y="153" type="curve" smooth="yes"/>
			<point x="335" y="153"/>
			<point x="340.667" y="155.333"/>
			<point x="346" y="160" type="curve" smooth="yes"/>
			<point x="349.333" y="162.667"/>
			<point x="351.667" y="166"/>
			<point x="353" y="170" type="curve" smooth="yes"/>
			<point x="353.667" y="172"/>
			<point x="354" y="178.333"/>
			<point x="354" y="189" type="curve" smooth="yes"/>
			<point x="354" y="208.333"/>
			<point x="358.667" y="239.667"/>
			<point x="368" y="283" type="curve" smooth="yes"/>
			<point x="377.333" y="329.667"/>
			<point x="383" y="361.333"/>
			<point x="385" y="378" type="curve" smooth="yes"/>
			<point x="385" y="388.667"/>
			<point x="390.667" y="417"/>
			<point x="402" y="463" type="curve" smooth="yes"/>
			<point x="408.667" y="486.333"/>
			<point x="412" y="508.333"/>
			<point x="412" y="529" type="curve" smooth="yes"/>
			<point x="412" y="559" type="line" smooth="yes"/>
			<point x="410.667" y="597.667"/>
			<point x="408" y="619"/>
			<point x="404" y="623" type="curve" smooth="yes"/>
			<point x="400" y="628.333"/>
			<point x="394.333" y="631"/>
			<point x="387" y="631" type="curve" smooth="yes"/>
			<point x="381.667" y="631"/>
			<point x="378" y="629"/>
			<point x="376" y="625" type="curve" smooth="yes"/>
			<point x="374" y="621"/>
			<point x="371.333" y="605.333"/>
			<point x="368" y="578" type="curve" smooth="yes"/>
			<point x="359" y="501" type="line" smooth="yes"/>
			<point x="357" y="491"/>
			<point x="355" y="483.667"/>
			<point x="353" y="479" type="curve"/>
			<point x="346.333" y="471"/>
			<point x="278.333" y="435.667"/>
			<point x="249" y="425" type="curve" smooth="yes"/>
			<point x="241" y="423"/>
			<point x="234.333" y="419.667"/>
			<point x="229" y="415" type="curve"/>
			<point x="195" y="405" type="line" smooth="yes"/>
			<point x="177.667" y="399.667"/>
			<point x="165.333" y="395.333"/>
			<point x="158" y="392" type="curve" smooth="yes"/>
			<point x="142.667" y="384.667"/>
			<point x="132.667" y="381"/>
			<point x="128" y="381" type="curve" smooth="yes"/>
			<point x="122" y="381"/>
			<point x="119" y="385"/>
			<point x="119" y="393" type="curve"/>
			<point x="123" y="423" type="line" smooth="yes"/>
			<point x="125" y="442.333"/>
			<point x="126" y="457.667"/>
			<point x="126" y="469" type="curve" smooth="yes"/>
			<point x="126" y="491"/>
			<point x="119.333" y="504.667"/>
			<point x="106" y="510" type="curve" smooth="yes"/>
			<point x="99" y="512" type="line"/>
			<point x="97" y="512"/>
			<point x="93.333" y="510.333"/>
			<point x="88" y="507" type="curve" smooth="yes"/>
			<point x="83.333" y="503.667"/>
			<point x="80.667" y="499.667"/>
			<point x="80" y="495" type="curve" smooth="yes"/>
			<point x="79.333" y="490.333"/>
			<point x="78.333" y="476"/>
			<point x="77" y="452" type="curve" smooth="yes"/>
			<point x="76.333" y="436.667"/>
			<point x="74.333" y="419.167"/>
			<point x="71" y="399.5" type="curve" smooth="yes"/>
			<point x="67.667" y="379.833"/>
			<point x="65.333" y="365.667"/>
			<point x="64" y="357" type="curve" smooth="yes"/>
			<point x="62.667" y="337.667"/>
			<point x="57.667" y="313.333"/>
			<point x="49" y="284" type="curve" smooth="yes"/>
			<point x="40.333" y="254"/>
			<point x="35" y="229.667"/>
			<point x="33" y="211" type="curve" smooth="yes"/>
			<point x="33" y="207" type="line" smooth="yes"/>
			<point x="33" y="192.333"/>
			<point x="39.333" y="185"/>
			<point x="52" y="185" type="curve" smooth="yes"/>
			<point x="59.333" y="185"/>
			<point x="64.667" y="188.667"/>
			<point x="68" y="196" type="curve" smooth="yes"/>
			<point x="72.667" y="204"/>
			<point x="76.333" y="216.333"/>
			<point x="79" y="233" type="curve" smooth="yes"/>
			<point x="81" y="244.333"/>
			<point x="84" y="255.333"/>
			<point x="88" y="266" type="curve" smooth="yes"/>
			<point x="92" y="280.667"/>
			<point x="94.333" y="290.333"/>
			<point x="95" y="295" type="curve" smooth="yes"/>
			<point x="99" y="319"/>
			<point x="110.667" y="332"/>
			<point x="140" y="340" type="curve" smooth="yes"/>
			<point x="173" y="351" type="line" smooth="yes"/>
			<point x="197" y="359"/>
			<point x="216.333" y="366.333"/>
			<point x="231" y="373" type="curve" smooth="yes"/>
			<point x="241.667" y="376.333"/>
			<point x="260.333" y="384.333"/>
			<point x="287" y="397" type="curve" smooth="yes"/>
			<point x="307" y="405" type="line" smooth="yes"/>
			<point x="319" y="410.333"/>
			<point x="326.333" y="413"/>
			<point x="329" y="413" type="curve" smooth="yes"/>
			<point x="335.667" y="413"/>
			<point x="339" y="408"/>
			<point x="339" y="398" type="curve" smooth="yes"/>
			<point x="339" y="391.333"/>
			<point x="336.333" y="374.333"/>
			<point x="331" y="347" type="curve" smooth="yes"/>
			<point x="325.667" y="321"/>
			<point x="323" y="304.333"/>
			<point x="323" y="297" type="curve" smooth="yes"/>
			<point x="323" y="287"/>
			<point x="320" y="270.333"/>
			<point x="314" y="247" type="curve"/>
			<point x="312.667" y="236.333"/>
			<point x="311" y="226"/>
			<point x="309" y="216" type="curve" smooth="yes"/>
			<point x="307" y="206"/>
			<point x="306" y="198.333"/>
			<point x="306" y="193" type="curve" smooth="yes"/>
			<point x="306" y="191" type="line" smooth="yes"/>
			<point x="305.333" y="189"/>
			<point x="305" y="186.667"/>
			<point x="305" y="184" type="curve" smooth="yes"/>
			<point x="305" y="166.667"/>
			<point x="315.667" y="153"/>
		</contour>
	</outline>
</glyph>
<glyph name="J" format="2">
	<advance width="415" height="942"/>
	<unicode hex="004A"/>
	<note>
		J
	</note>
	<outline>
		<contour>
			<point x="214" y="133" type="curve" smooth="yes"/>
			<point x="228" y="133" type="line" smooth="yes"/>
			<point x="260.173" y="133"/>
			<point x="264.701" y="132.978"/>
			<point x="272" y="164" type="curve" smooth="yes"/>
			<point x="276" y="178.667"/>
			<point x="278.333" y="192.333"/>
			<point x="279" y="205" type="curve" smooth="yes"/>
			<point x="280.333" y="241.667"/>
			<point x="281.333" y="278"/>
			<point x="282" y="314" type="curve" smooth="yes"/>
			<point x="284" y="483" type="line" smooth="yes"/>
			<point x="284" y="538.333"/>
			<point x="282.667" y="572.333"/>
			<point x="280" y="585" type="curve"/>
			<point x="280" y="591"/>
			<point x="279.667" y="596.333"/>
			<point x="279" y="601" type="curve" smooth="yes"/>
			<point x="279" y="607.667"/>
			<point x="279.333" y="611.667"/>
			<point x="280" y="613" type="curve" smooth="yes"/>
			<point x="284" y="619"/>
			<point x="298.667" y="629"/>
			<point x="324" y="643" type="curve" smooth="yes"/>
			<point x="364" y="663"/>
			<point x="384" y="678.333"/>
			<point x="384" y="689" type="curve" smooth="yes"/>
			<point x="384" y="698.333"/>
			<point x="373.667" y="711"/>
			<point x="363" y="711" type="curve" smooth="yes"/>
			<point x="356.333" y="711"/>
			<point x="341.667" y="704.667"/>
			<point x="319" y="692" type="curve" smooth="yes"/>
			<point x="281.667" y="670.667"/>
			<point x="205" y="640"/>
			<point x="193" y="640" type="curve"/>
			<point x="181.667" y="636.667"/>
			<point x="169.667" y="633.333"/>
			<point x="157" y="630" type="curve" smooth="yes"/>
			<point x="137" y="624"/>
			<point x="121" y="621"/>
			<point x="109" y="621" type="curve" smooth="yes"/>
			<point x="105" y="621"/>
			<point x="102" y="621.333"/>
			<point x="100" y="622" type="curve"/>
			<point x="79.333" y="622"/>
			<point x="66.667" y="620.333"/>
			<point x="62" y="617" type="curve"/>
			<point x="56" y="614.333"/>
			<point x="53" y="608.667"/>
			<point x="53" y="600" type="curve" smooth="yes"/>
			<point x="53" y="582"/>
			<point x="70.333" y="573"/>
			<point x="105" y="573" type="curve" smooth="yes"/>
			<point x="125" y="573"/>
			<point x="146" y="576"/>
			<point x="168" y="582" type="curve" smooth="yes"/>
			<point x="201.333" y="591.333"/>
			<point x="220.333" y="596"/>
			<point x="225" y="596" type="curve" smooth="yes"/>
			<point x="229.667" y="596"/>
			<point x="233.333" y="590.667"/>
			<point x="236" y="580" type="curve" smooth="yes"/>
			<point x="237.333" y="573.333"/>
			<point x="238" y="538"/>
			<point x="238" y="474" type="curve" smooth="yes"/>
			<point x="238" y="342.667"/>
			<point x="236.667" y="251.333"/>
			<point x="234" y="200" type="curve" smooth="yes"/>
			<point x="232.667" y="184.667"/>
			<point x="232" y="177"/>
			<point x="232" y="177" type="curve"/>
			<point x="230" y="174.333"/>
			<point x="227.333" y="173"/>
			<point x="224" y="173" type="curve" smooth="yes"/>
			<point x="218.667" y="173"/>
			<point x="205.667" y="175.333"/>
			<point x="185" y="180" type="curve" smooth="yes"/>
			<point x="166.333" y="184.667"/>
			<point x="153.333" y="191"/>
			<point x="146" y="199" type="curve" smooth="yes"/>
			<point x="140" y="205"/>
			<point x="130.333" y="211.667"/>
			<point x="117" y="219" type="curve" smooth="yes"/>
			<point x="90.333" y="233.667"/>
			<point x="73.667" y="247"/>
			<point x="67" y="267" type="curve" smooth="yes"/>
			<point x="64.333" y="275"/>
			<point x="63" y="279"/>
			<point x="63" y="279" type="curve"/>
			<point x="62.333" y="280.333"/>
			<point x="60" y="281"/>
			<point x="56" y="281" type="curve" smooth="yes"/>
			<point x="55" y="281" type="line" smooth="yes"/>
			<point x="49" y="281"/>
			<point x="44.333" y="278"/>
			<point x="41" y="272" type="curve"/>
			<point x="33" y="243" type="line"/>
			<point x="33" y="221.667"/>
			<point x="46.667" y="212"/>
			<point x="76" y="192" type="curve" smooth="yes"/>
			<point x="114" y="169" type="line" smooth="yes"/>
			<point x="143.333" y="149"/>
			<point x="147.667" y="145.667"/>
			<point x="173" y="139" type="curve" smooth="yes"/>
			<point x="185.667" y="135"/>
			<point x="199.333" y="133"/>
		</contour>
	</outline>
</glyph>
<glyph name="K" format="2">
	<advance width="464" height="937"/>
	<unicode hex="004B"/>
	<note>
		K
	</note>
	<outline>
		<contour>
			<point x="62" y="181" type="curve" smooth="yes"/>
			<point x="63" y="181" type="line" smooth="yes"/>
			<point x="80.333" y="181"/>
			<point x="92" y="192.667"/>
			<point x="92" y="210" type="curve" smooth="yes"/>
			<point x="92" y="216.667"/>
			<point x="90" y="223"/>
			<point x="86" y="229" type="curve" smooth="yes"/>
			<point x="81.333" y="235.667"/>
			<point x="79" y="242.667"/>
			<point x="79" y="250" type="curve" smooth="yes"/>
			<point x="81" y="269" type="line" smooth="yes"/>
			<point x="83" y="277.667"/>
			<point x="84" y="291"/>
			<point x="84" y="309" type="curve" smooth="yes"/>
			<point x="84.667" y="325"/>
			<point x="85.833" y="336.333"/>
			<point x="87.5" y="343" type="curve" smooth="yes"/>
			<point x="89.167" y="349.667"/>
			<point x="93.333" y="353.667"/>
			<point x="100" y="355" type="curve"/>
			<point x="104.667" y="355"/>
			<point x="116.667" y="349"/>
			<point x="136" y="337" type="curve" smooth="yes"/>
			<point x="169.333" y="317"/>
			<point x="211" y="296"/>
			<point x="261" y="274" type="curve" smooth="yes"/>
			<point x="354" y="232" type="line" smooth="yes"/>
			<point x="382" y="219.333"/>
			<point x="400" y="213"/>
			<point x="408" y="213" type="curve" smooth="yes"/>
			<point x="414.667" y="213"/>
			<point x="420" y="216.667"/>
			<point x="424" y="224" type="curve"/>
			<point x="428.667" y="228.667"/>
			<point x="431" y="234.667"/>
			<point x="431" y="242" type="curve" smooth="yes"/>
			<point x="431" y="255.333"/>
			<point x="422.333" y="264.333"/>
			<point x="405" y="269" type="curve"/>
			<point x="393" y="270.333"/>
			<point x="365" y="283.667"/>
			<point x="337" y="297" type="curve" smooth="yes"/>
			<point x="324.333" y="302.333"/>
			<point x="311.5" y="307.833"/>
			<point x="298.5" y="313.5" type="curve" smooth="yes"/>
			<point x="285.5" y="319.167"/>
			<point x="272.333" y="324.667"/>
			<point x="259" y="330" type="curve" smooth="yes"/>
			<point x="225.667" y="343.333"/>
			<point x="195" y="358.333"/>
			<point x="167" y="375" type="curve" smooth="yes"/>
			<point x="142.333" y="389.667"/>
			<point x="130" y="401"/>
			<point x="130" y="409" type="curve" smooth="yes"/>
			<point x="130" y="415"/>
			<point x="133" y="420.333"/>
			<point x="139" y="425" type="curve" smooth="yes"/>
			<point x="142.333" y="428.333"/>
			<point x="148" y="436"/>
			<point x="156" y="448" type="curve" smooth="yes"/>
			<point x="166" y="462"/>
			<point x="173" y="470.333"/>
			<point x="177" y="473" type="curve" smooth="yes"/>
			<point x="179.667" y="475"/>
			<point x="184.667" y="482"/>
			<point x="192" y="494" type="curve" smooth="yes"/>
			<point x="198.667" y="506"/>
			<point x="204.667" y="514"/>
			<point x="210" y="518" type="curve" smooth="yes"/>
			<point x="217.333" y="525.333"/>
			<point x="224" y="534.667"/>
			<point x="230" y="546" type="curve" smooth="yes"/>
			<point x="234.667" y="554"/>
			<point x="246" y="577"/>
			<point x="264" y="615" type="curve" smooth="yes"/>
			<point x="278" y="644" type="line"/>
			<point x="280.667" y="647.333"/>
			<point x="282" y="650"/>
			<point x="282" y="652" type="curve" smooth="yes"/>
			<point x="282" y="660"/>
			<point x="273.667" y="673"/>
			<point x="263" y="673" type="curve" smooth="yes"/>
			<point x="251.667" y="673"/>
			<point x="243.667" y="666.667"/>
			<point x="239" y="654" type="curve"/>
			<point x="223" y="623" type="line" smooth="yes"/>
			<point x="213" y="604.333"/>
			<point x="207.333" y="593"/>
			<point x="206" y="589" type="curve" smooth="yes"/>
			<point x="196.667" y="567.667"/>
			<point x="123" y="466"/>
			<point x="111" y="458" type="curve" smooth="yes"/>
			<point x="108.333" y="456.667"/>
			<point x="106" y="456"/>
			<point x="104" y="456" type="curve" smooth="yes"/>
			<point x="97.333" y="456"/>
			<point x="96.333" y="457.667"/>
			<point x="95" y="467" type="curve" smooth="yes"/>
			<point x="91" y="489.667"/>
			<point x="89" y="530.333"/>
			<point x="89" y="589" type="curve" smooth="yes"/>
			<point x="89" y="622.333"/>
			<point x="90" y="645"/>
			<point x="92" y="657" type="curve" smooth="yes"/>
			<point x="94" y="668.333"/>
			<point x="95" y="676.667"/>
			<point x="95" y="682" type="curve" smooth="yes"/>
			<point x="95" y="692.667"/>
			<point x="91.333" y="699.667"/>
			<point x="84" y="703" type="curve" smooth="yes"/>
			<point x="79.333" y="705.667"/>
			<point x="75.333" y="707"/>
			<point x="72" y="707" type="curve" smooth="yes"/>
			<point x="68.667" y="707"/>
			<point x="65.333" y="704"/>
			<point x="62" y="698" type="curve"/>
			<point x="56" y="691.333"/>
			<point x="52.667" y="677.667"/>
			<point x="52" y="657" type="curve" smooth="yes"/>
			<point x="50.667" y="634.333"/>
			<point x="49.667" y="578"/>
			<point x="49" y="488" type="curve" smooth="yes"/>
			<point x="48" y="431" type="line" smooth="yes"/>
			<point x="48" y="399"/>
			<point x="47.667" y="379.667"/>
			<point x="47" y="373" type="curve" smooth="yes"/>
			<point x="45.667" y="356.333"/>
			<point x="44.333" y="345.667"/>
			<point x="43" y="341" type="curve" smooth="yes"/>
			<point x="39" y="332.333"/>
			<point x="37" y="305.333"/>
			<point x="37" y="260" type="curve" smooth="yes"/>
			<point x="37" y="220"/>
			<point x="38.333" y="197"/>
			<point x="41" y="191" type="curve" smooth="yes"/>
			<point x="43" y="184.333"/>
			<point x="50" y="181"/>
		</contour>
	</outline>
</glyph>
<glyph name="L" format="2">
	<advance width="396" height="859"/>
	<unicode hex="004C"/>
	<note>
		L
	</note>
	<outline>
		<contour>
			<point x="68" y="216" type="curve"/>
			<point x="85" y="216" type="line" smooth="yes"/>
			<point x="105.667" y="216"/>
			<point x="129.667" y="218.333"/>
			<point x="157" y="223" type="curve" smooth="yes"/>
			<point x="181" y="226.333"/>
			<point x="205.667" y="228.667"/>
			<point x="231" y="230" type="curve" smooth="yes"/>
			<point x="260.333" y="231.333"/>
			<point x="279.333" y="232.667"/>
			<point x="288" y="234" type="curve" smooth="yes"/>
			<point x="296.667" y="235.333"/>
			<point x="306" y="238"/>
			<point x="316" y="242" type="curve" smooth="yes"/>
			<point x="342.667" y="251.333"/>
			<point x="360" y="266"/>
			<point x="360" y="278" type="curve" smooth="yes"/>
			<point x="360" y="286"/>
			<point x="350" y="295"/>
			<point x="342" y="295" type="curve" smooth="yes"/>
			<point x="338" y="295"/>
			<point x="314.667" y="290.333"/>
			<point x="272" y="281" type="curve" smooth="yes"/>
			<point x="268" y="280.333"/>
			<point x="248.667" y="279.333"/>
			<point x="214" y="278" type="curve" smooth="yes"/>
			<point x="181.333" y="277.333"/>
			<point x="158.667" y="275"/>
			<point x="146" y="271" type="curve" smooth="yes"/>
			<point x="132" y="267"/>
			<point x="117.333" y="265"/>
			<point x="102" y="265" type="curve" smooth="yes"/>
			<point x="84.667" y="265"/>
			<point x="80" y="270"/>
			<point x="80" y="290" type="curve" smooth="yes"/>
			<point x="80" y="302.667"/>
			<point x="83" y="337.333"/>
			<point x="89" y="394" type="curve" smooth="yes"/>
			<point x="95" y="450.667"/>
			<point x="98" y="504"/>
			<point x="98" y="554" type="curve" smooth="yes"/>
			<point x="98" y="601" type="line" smooth="yes"/>
			<point x="98" y="633"/>
			<point x="96.333" y="650.667"/>
			<point x="93" y="654" type="curve"/>
			<point x="82" y="659" type="line"/>
			<point x="78.667" y="659"/>
			<point x="74.667" y="656.667"/>
			<point x="70" y="652" type="curve" smooth="yes"/>
			<point x="58.667" y="638"/>
			<point x="53" y="598.333"/>
			<point x="53" y="533" type="curve" smooth="yes"/>
			<point x="53" y="433"/>
			<point x="49" y="369.333"/>
			<point x="41" y="342" type="curve" smooth="yes"/>
			<point x="37" y="328"/>
			<point x="35" y="312"/>
			<point x="35" y="294" type="curve" smooth="yes"/>
			<point x="35" y="246"/>
			<point x="46" y="220"/>
		</contour>
	</outline>
</glyph>
<glyph name="M" format="2">
	<advance width="592" height="871"/>
	<unicode hex="004D"/>
	<note>
		M
	</note>
	<outline>
		<contour>
			<point x="59" y="204" type="curve" smooth="yes"/>
			<point x="70.333" y="204"/>
			<point x="78.333" y="209.333"/>
			<point x="83" y="220" type="curve" smooth="yes"/>
			<point x="87.667" y="229.333"/>
			<point x="90" y="248.333"/>
			<point x="90" y="277" type="curve" smooth="yes"/>
			<point x="90" y="297" type="line" smooth="yes"/>
			<point x="90" y="311"/>
			<point x="91.333" y="321"/>
			<point x="94" y="327" type="curve" smooth="yes"/>
			<point x="98.667" y="337.667"/>
			<point x="106.333" y="353.667"/>
			<point x="117" y="375" type="curve"/>
			<point x="132.977" y="398.965"/>
			<point x="121.859" y="438"/>
			<point x="144" y="438" type="curve" smooth="yes"/>
			<point x="149.333" y="438"/>
			<point x="159.667" y="431.667"/>
			<point x="175" y="419" type="curve" smooth="yes"/>
			<point x="200.333" y="395.667"/>
			<point x="228.667" y="359.667"/>
			<point x="260" y="311" type="curve" smooth="yes"/>
			<point x="271.333" y="292.333"/>
			<point x="281" y="279"/>
			<point x="289" y="271" type="curve" smooth="yes"/>
			<point x="295" y="264.333"/>
			<point x="300.667" y="261"/>
			<point x="306" y="261" type="curve" smooth="yes"/>
			<point x="308.667" y="261"/>
			<point x="310.667" y="261.333"/>
			<point x="312" y="262" type="curve" smooth="yes"/>
			<point x="326.667" y="266"/>
			<point x="357" y="302.667"/>
			<point x="377" y="344" type="curve" smooth="yes"/>
			<point x="383.667" y="357.333"/>
			<point x="393.333" y="374.333"/>
			<point x="406" y="395" type="curve" smooth="yes"/>
			<point x="420" y="419"/>
			<point x="430" y="439.333"/>
			<point x="436" y="456" type="curve" smooth="yes"/>
			<point x="440.667" y="467.333"/>
			<point x="447.667" y="479.667"/>
			<point x="457" y="493" type="curve" smooth="yes"/>
			<point x="467" y="507"/>
			<point x="474.333" y="518.667"/>
			<point x="479" y="528" type="curve" smooth="yes"/>
			<point x="488.333" y="546.667"/>
			<point x="496.333" y="556"/>
			<point x="503" y="556" type="curve" smooth="yes"/>
			<point x="508.333" y="556"/>
			<point x="511" y="550.333"/>
			<point x="511" y="539" type="curve" smooth="yes"/>
			<point x="511" y="529.667"/>
			<point x="509.667" y="519.667"/>
			<point x="507" y="509" type="curve" smooth="yes"/>
			<point x="504.333" y="499.667"/>
			<point x="501" y="466.667"/>
			<point x="497" y="410" type="curve" smooth="yes"/>
			<point x="493" y="356.667"/>
			<point x="489.333" y="323.667"/>
			<point x="486" y="311" type="curve" smooth="yes"/>
			<point x="481.333" y="292.333"/>
			<point x="479" y="274.667"/>
			<point x="479" y="258" type="curve" smooth="yes"/>
			<point x="479" y="239.333"/>
			<point x="481.333" y="227"/>
			<point x="486" y="221" type="curve" smooth="yes"/>
			<point x="490" y="215"/>
			<point x="494.333" y="212"/>
			<point x="499" y="212" type="curve" smooth="yes"/>
			<point x="503" y="212"/>
			<point x="507.333" y="213.333"/>
			<point x="512" y="216" type="curve" smooth="yes"/>
			<point x="518" y="218"/>
			<point x="521" y="221.667"/>
			<point x="521" y="227" type="curve"/>
			<point x="523" y="235.667"/>
			<point x="524.333" y="253"/>
			<point x="525" y="279" type="curve" smooth="yes"/>
			<point x="525.667" y="301"/>
			<point x="528.333" y="324.667"/>
			<point x="533" y="350" type="curve" smooth="yes"/>
			<point x="537" y="372"/>
			<point x="540" y="398"/>
			<point x="542" y="428" type="curve" smooth="yes"/>
			<point x="550" y="513" type="line" smooth="yes"/>
			<point x="556" y="569"/>
			<point x="559" y="606.333"/>
			<point x="559" y="625" type="curve" smooth="yes"/>
			<point x="559" y="646.333"/>
			<point x="552" y="657"/>
			<point x="538" y="657" type="curve" smooth="yes"/>
			<point x="532" y="657"/>
			<point x="526" y="654.667"/>
			<point x="520" y="650" type="curve" smooth="yes"/>
			<point x="502.667" y="633.333"/>
			<point x="479" y="602.667"/>
			<point x="449" y="558" type="curve" smooth="yes"/>
			<point x="425" y="521" type="line" smooth="yes"/>
			<point x="409" y="498.333"/>
			<point x="397.667" y="477.667"/>
			<point x="391" y="459" type="curve"/>
			<point x="379" y="435"/>
			<point x="359" y="399.333"/>
			<point x="331" y="352" type="curve" smooth="yes"/>
			<point x="326.333" y="344.667"/>
			<point x="321.333" y="336.667"/>
			<point x="316" y="328" type="curve"/>
			<point x="312.667" y="326.667"/>
			<point x="310.333" y="326"/>
			<point x="309" y="326" type="curve" smooth="yes"/>
			<point x="303" y="326"/>
			<point x="298.333" y="329.667"/>
			<point x="295" y="337" type="curve" smooth="yes"/>
			<point x="284.333" y="369"/>
			<point x="198" y="470"/>
			<point x="166" y="486" type="curve" smooth="yes"/>
			<point x="154" y="492"/>
			<point x="148" y="499.333"/>
			<point x="148" y="508" type="curve" smooth="yes"/>
			<point x="148" y="512"/>
			<point x="149.333" y="516.667"/>
			<point x="152" y="522" type="curve" smooth="yes"/>
			<point x="154.667" y="528"/>
			<point x="156" y="534"/>
			<point x="156" y="540" type="curve" smooth="yes"/>
			<point x="156" y="554.667"/>
			<point x="148.333" y="560"/>
			<point x="139" y="560" type="curve" smooth="yes"/>
			<point x="132.333" y="560"/>
			<point x="127.333" y="557.333"/>
			<point x="124" y="552" type="curve" smooth="yes"/>
			<point x="115" y="539" type="line" smooth="yes"/>
			<point x="111" y="533"/>
			<point x="108.333" y="527"/>
			<point x="107" y="521" type="curve" smooth="yes"/>
			<point x="102" y="496" type="line"/>
			<point x="99" y="477" type="line" smooth="yes"/>
			<point x="93.667" y="448.333"/>
			<point x="87.667" y="425.667"/>
			<point x="81" y="409" type="curve" smooth="yes"/>
			<point x="49" y="325.667"/>
			<point x="33" y="270"/>
			<point x="33" y="242" type="curve" smooth="yes"/>
			<point x="33" y="212.667"/>
			<point x="37.667" y="204"/>
		</contour>
	</outline>
</glyph>
<glyph name="N" format="2">
	<advance width="580" height="861"/>
	<unicode hex="004E"/>
	<note>
		N
	</note>
	<outline>
		<contour>
			<point x="54" y="214" type="curve" smooth="yes"/>
			<point x="68.667" y="214"/>
			<point x="91" y="242.667"/>
			<point x="91" y="264" type="curve" smooth="yes"/>
			<point x="91" y="269.333"/>
			<point x="95" y="279"/>
			<point x="103" y="293" type="curve" smooth="yes"/>
			<point x="109" y="304.333"/>
			<point x="116" y="321.333"/>
			<point x="124" y="344" type="curve" smooth="yes"/>
			<point x="130" y="360.667"/>
			<point x="137.333" y="378.333"/>
			<point x="146" y="397" type="curve"/>
			<point x="148.667" y="401"/>
			<point x="150.333" y="405"/>
			<point x="151" y="409" type="curve" smooth="yes"/>
			<point x="154.333" y="419"/>
			<point x="158.667" y="424.333"/>
			<point x="164" y="425" type="curve" smooth="yes"/>
			<point x="168.667" y="425"/>
			<point x="179.333" y="418.333"/>
			<point x="196" y="405" type="curve" smooth="yes"/>
			<point x="214.667" y="391.667"/>
			<point x="231.667" y="377.333"/>
			<point x="247" y="362" type="curve" smooth="yes"/>
			<point x="271" y="338.667"/>
			<point x="292" y="321.333"/>
			<point x="310" y="310" type="curve" smooth="yes"/>
			<point x="324.667" y="300.667"/>
			<point x="337.333" y="292"/>
			<point x="348" y="284" type="curve"/>
			<point x="351.333" y="279.333"/>
			<point x="359" y="274"/>
			<point x="371" y="268" type="curve" smooth="yes"/>
			<point x="381" y="263.333"/>
			<point x="389.333" y="258.333"/>
			<point x="396" y="253" type="curve" smooth="yes"/>
			<point x="422.667" y="229.667"/>
			<point x="442.667" y="218"/>
			<point x="456" y="218" type="curve" smooth="yes"/>
			<point x="475.333" y="218"/>
			<point x="492" y="247.667"/>
			<point x="506" y="307" type="curve" smooth="yes"/>
			<point x="515.333" y="340.333"/>
			<point x="520.667" y="363"/>
			<point x="522" y="375" type="curve" smooth="yes"/>
			<point x="525.333" y="394.333"/>
			<point x="527.667" y="406.667"/>
			<point x="529" y="412" type="curve" smooth="yes"/>
			<point x="532.333" y="421.333"/>
			<point x="535.333" y="443.667"/>
			<point x="538" y="479" type="curve" smooth="yes"/>
			<point x="544" y="544" type="line"/>
			<point x="546" y="567" type="line"/>
			<point x="548" y="592" type="line" smooth="yes"/>
			<point x="548" y="605.333"/>
			<point x="545.333" y="614.667"/>
			<point x="540" y="620" type="curve" smooth="yes"/>
			<point x="534" y="626"/>
			<point x="526.667" y="629"/>
			<point x="518" y="629" type="curve" smooth="yes"/>
			<point x="512" y="629"/>
			<point x="508.667" y="627.667"/>
			<point x="508" y="625" type="curve" smooth="yes"/>
			<point x="506" y="615.667"/>
			<point x="504.667" y="601.333"/>
			<point x="504" y="582" type="curve" smooth="yes"/>
			<point x="502" y="559.333"/>
			<point x="500" y="544.333"/>
			<point x="498" y="537" type="curve"/>
			<point x="489" y="469" type="line" smooth="yes"/>
			<point x="479.667" y="388.333"/>
			<point x="469.333" y="331.333"/>
			<point x="458" y="298" type="curve" smooth="yes"/>
			<point x="455.333" y="287.333"/>
			<point x="450.667" y="282"/>
			<point x="444" y="282" type="curve" smooth="yes"/>
			<point x="438" y="282"/>
			<point x="416" y="295.333"/>
			<point x="378" y="322" type="curve" smooth="yes"/>
			<point x="326" y="361.333"/>
			<point x="292.333" y="388.667"/>
			<point x="277" y="404" type="curve"/>
			<point x="271" y="412.667"/>
			<point x="248" y="430.667"/>
			<point x="208" y="458" type="curve" smooth="yes"/>
			<point x="188.667" y="471.333"/>
			<point x="179" y="479"/>
			<point x="179" y="481" type="curve"/>
			<point x="177" y="484.333"/>
			<point x="171" y="487.667"/>
			<point x="161" y="491" type="curve"/>
			<point x="146.333" y="491"/>
			<point x="124.333" y="466.333"/>
			<point x="115" y="437" type="curve"/>
			<point x="111.667" y="431.667"/>
			<point x="94.667" y="388"/>
			<point x="64" y="306" type="curve" smooth="yes"/>
			<point x="60.667" y="298"/>
			<point x="58.667" y="291"/>
			<point x="58" y="285" type="curve" smooth="yes"/>
			<point x="56" y="276.333"/>
			<point x="52.667" y="269"/>
			<point x="48" y="263" type="curve" smooth="yes"/>
			<point x="36.667" y="246.333"/>
			<point x="31" y="236"/>
			<point x="31" y="232" type="curve" smooth="yes"/>
			<point x="31" y="230"/>
			<point x="31.667" y="228"/>
			<point x="33" y="226" type="curve" smooth="yes"/>
			<point x="38.333" y="215.333"/>
			<point x="40.667" y="214"/>
		</contour>
	</outline>
</glyph>
<glyph name="O" format="2">
	<advance width="393" height="875"/>
	<unicode hex="004F"/>
	<note>
		O
	</note>
	<outline>
		<contour>
			<point x="122" y="200" type="curve" smooth="yes"/>
			<point x="137" y="200" type="line" smooth="yes"/>
			<point x="162.333" y="200"/>
			<point x="189.333" y="209.667"/>
			<point x="204" y="219" type="curve" smooth="yes"/>
			<point x="212.667" y="223.667"/>
			<point x="221.333" y="229.667"/>
			<point x="230" y="237" type="curve" smooth="yes"/>
			<point x="240.667" y="245"/>
			<point x="248.667" y="250.667"/>
			<point x="254" y="254" type="curve" smooth="yes"/>
			<point x="286" y="274"/>
			<point x="335.667" y="350.667"/>
			<point x="353" y="408" type="curve" smooth="yes"/>
			<point x="357.667" y="426.667"/>
			<point x="360" y="447"/>
			<point x="360" y="469" type="curve"/>
			<point x="360.667" y="471.667"/>
			<point x="361" y="475.333"/>
			<point x="361" y="480" type="curve" smooth="yes"/>
			<point x="361" y="504"/>
			<point x="349.667" y="532"/>
			<point x="327" y="564" type="curve"/>
			<point x="315" y="576"/>
			<point x="269.333" y="596.333"/>
			<point x="236" y="603" type="curve"/>
			<point x="234.667" y="603.667"/>
			<point x="232.667" y="604"/>
			<point x="230" y="604" type="curve" smooth="yes"/>
			<point x="220" y="604"/>
			<point x="207.333" y="597.333"/>
			<point x="192" y="584" type="curve" smooth="yes"/>
			<point x="178" y="570"/>
			<point x="167.667" y="562"/>
			<point x="161" y="560" type="curve"/>
			<point x="141" y="558.667"/>
			<point x="131.333" y="552"/>
			<point x="110" y="524" type="curve" smooth="yes"/>
			<point x="96" y="506" type="line" smooth="yes"/>
			<point x="60" y="463.333"/>
			<point x="57" y="453.333"/>
			<point x="45" y="392" type="curve"/>
			<point x="37" y="362"/>
			<point x="33" y="338"/>
			<point x="33" y="320" type="curve" smooth="yes"/>
			<point x="33" y="303.333"/>
			<point x="37.667" y="282.333"/>
			<point x="47" y="257" type="curve" smooth="yes"/>
			<point x="59" y="222.333"/>
			<point x="66.667" y="209.333"/>
			<point x="84" y="204" type="curve" smooth="yes"/>
			<point x="92.667" y="201.333"/>
			<point x="105.333" y="200"/>
		</contour>
		<contour>
			<point x="122" y="243" type="line"/>
			<point x="98" y="243"/>
			<point x="76" y="292"/>
			<point x="76" y="320" type="curve" smooth="yes"/>
			<point x="76" y="342.667"/>
			<point x="91.667" y="408"/>
			<point x="105" y="440" type="curve" smooth="yes"/>
			<point x="111.667" y="454.667"/>
			<point x="122.667" y="469"/>
			<point x="136" y="481" type="curve"/>
			<point x="163" y="510" type="line" smooth="yes"/>
			<point x="172.333" y="519.333"/>
			<point x="181.333" y="528.667"/>
			<point x="190" y="538" type="curve" smooth="yes"/>
			<point x="201.333" y="551.333"/>
			<point x="212" y="558"/>
			<point x="222" y="558" type="curve" smooth="yes"/>
			<point x="226.667" y="558"/>
			<point x="234.667" y="556"/>
			<point x="246" y="552" type="curve" smooth="yes"/>
			<point x="263" y="548" type="line"/>
			<point x="265" y="547" type="line" smooth="yes"/>
			<point x="301" y="532.333"/>
			<point x="311.667" y="521"/>
			<point x="317" y="497" type="curve" smooth="yes"/>
			<point x="319.667" y="485.667"/>
			<point x="321" y="473.667"/>
			<point x="321" y="461" type="curve" smooth="yes"/>
			<point x="321" y="434.333"/>
			<point x="314" y="409"/>
			<point x="300" y="385" type="curve" smooth="yes"/>
			<point x="279" y="351" type="line" smooth="yes"/>
			<point x="248.333" y="299"/>
			<point x="189" y="247.333"/>
			<point x="145" y="246" type="curve"/>
			<point x="122" y="243" type="line"/>
		</contour>
	</outline>
</glyph>
<glyph name="P" format="2">
	<advance width="327" height="931"/>
	<unicode hex="0050"/>
	<note>
		P
	</note>
	<outline>
		<contour>
			<point x="53" y="144" type="curve" smooth="yes"/>
			<point x="59.667" y="144"/>
			<point x="65" y="147.333"/>
			<point x="69" y="154" type="curve" smooth="yes"/>
			<point x="73" y="160"/>
			<point x="75" y="173.333"/>
			<point x="75" y="194" type="curve" smooth="yes"/>
			<point x="74" y="222" type="line"/>
			<point x="74" y="231" type="line" smooth="yes"/>
			<point x="74" y="239"/>
			<point x="76.333" y="254.333"/>
			<point x="81" y="277" type="curve" smooth="yes"/>
			<point x="85" y="295.667"/>
			<point x="87" y="307.333"/>
			<point x="87" y="312" type="curve"/>
			<point x="88.333" y="314.667"/>
			<point x="89.167" y="318.5"/>
			<point x="89.5" y="323.5" type="curve" smooth="yes"/>
			<point x="89.833" y="328.5"/>
			<point x="90.333" y="333.333"/>
			<point x="91" y="338" type="curve" smooth="yes"/>
			<point x="92.333" y="350.667"/>
			<point x="94" y="360.167"/>
			<point x="96" y="366.5" type="curve" smooth="yes"/>
			<point x="98" y="372.833"/>
			<point x="102.333" y="376"/>
			<point x="109" y="376" type="curve" smooth="yes"/>
			<point x="115" y="376"/>
			<point x="127" y="379.333"/>
			<point x="145" y="386" type="curve" smooth="yes"/>
			<point x="173" y="394"/>
			<point x="172.667" y="393.667"/>
			<point x="214" y="435" type="curve" smooth="yes"/>
			<point x="271.333" y="493.667"/>
			<point x="287" y="521.333"/>
			<point x="295" y="588" type="curve" smooth="yes"/>
			<point x="295.667" y="594.667"/>
			<point x="296" y="600.667"/>
			<point x="296" y="606" type="curve" smooth="yes"/>
			<point x="296" y="615.333"/>
			<point x="293.667" y="624.333"/>
			<point x="289" y="633" type="curve" smooth="yes"/>
			<point x="275.667" y="659.667"/>
			<point x="244.667" y="673"/>
			<point x="196" y="673" type="curve" smooth="yes"/>
			<point x="190.667" y="673"/>
			<point x="184.667" y="672.667"/>
			<point x="178" y="672" type="curve" smooth="yes"/>
			<point x="172" y="672"/>
			<point x="165.667" y="671.667"/>
			<point x="159" y="671" type="curve" smooth="yes"/>
			<point x="136.333" y="671"/>
			<point x="127" y="677"/>
			<point x="123" y="693" type="curve" smooth="yes"/>
			<point x="119.667" y="710.333"/>
			<point x="112.667" y="719"/>
			<point x="102" y="719" type="curve" smooth="yes"/>
			<point x="96.667" y="719"/>
			<point x="92" y="716.333"/>
			<point x="88" y="711" type="curve"/>
			<point x="85" y="670" type="line"/>
			<point x="80" y="598" type="line" smooth="yes"/>
			<point x="75.333" y="526.667"/>
			<point x="71.333" y="487.333"/>
			<point x="68" y="480" type="curve"/>
			<point x="64.667" y="459.333"/>
			<point x="61" y="428.667"/>
			<point x="57" y="388" type="curve" smooth="yes"/>
			<point x="51.667" y="342"/>
			<point x="46" y="307.333"/>
			<point x="40" y="284" type="curve" smooth="yes"/>
			<point x="34.667" y="258"/>
			<point x="32" y="233.667"/>
			<point x="32" y="211" type="curve" smooth="yes"/>
			<point x="32" y="182" type="line" smooth="yes"/>
			<point x="32" y="168"/>
			<point x="32.333" y="160"/>
			<point x="33" y="158" type="curve" smooth="yes"/>
			<point x="34.333" y="154.667"/>
			<point x="36.667" y="151.667"/>
			<point x="40" y="149" type="curve" smooth="yes"/>
			<point x="44.667" y="145.667"/>
			<point x="49" y="144"/>
		</contour>
		<contour>
			<point x="112" y="416" type="curve" smooth="yes"/>
			<point x="108.667" y="416"/>
			<point x="106.333" y="416.667"/>
			<point x="105" y="418" type="curve" smooth="yes"/>
			<point x="104.333" y="419.333"/>
			<point x="104" y="420.667"/>
			<point x="104" y="422" type="curve" smooth="yes"/>
			<point x="104" y="424" type="line" smooth="yes"/>
			<point x="104" y="430.667"/>
			<point x="106.667" y="452.667"/>
			<point x="112" y="490" type="curve" smooth="yes"/>
			<point x="117.333" y="530.667"/>
			<point x="120" y="555.667"/>
			<point x="120" y="565" type="curve" smooth="yes"/>
			<point x="120.667" y="569"/>
			<point x="121" y="573"/>
			<point x="121" y="577" type="curve" smooth="yes"/>
			<point x="124.054" y="613.649"/>
			<point x="125.078" y="626"/>
			<point x="151" y="626" type="curve" smooth="yes"/>
			<point x="196" y="623" type="line" smooth="yes"/>
			<point x="240" y="620.333"/>
			<point x="252" y="613.333"/>
			<point x="252" y="588" type="curve" smooth="yes"/>
			<point x="252" y="552.667"/>
			<point x="231.667" y="511"/>
			<point x="191" y="463" type="curve" smooth="yes"/>
			<point x="172.333" y="440.333"/>
			<point x="129.333" y="416"/>
		</contour>
	</outline>
</glyph>
<glyph name="Q" format="2">
	<advance width="636" height="923"/>
	<unicode hex="0051"/>
	<note>
		Q
	</note>
	<outline>
		<contour>
			<point x="575" y="152" type="curve" smooth="yes"/>
			<point x="589.667" y="152"/>
			<point x="604" y="165"/>
			<point x="604" y="181" type="curve" smooth="yes"/>
			<point x="604" y="183"/>
			<point x="603.667" y="184.667"/>
			<point x="603" y="186" type="curve" smooth="yes"/>
			<point x="600.333" y="195.333"/>
			<point x="564.667" y="232"/>
			<point x="546" y="244" type="curve" smooth="yes"/>
			<point x="532.667" y="253.333"/>
			<point x="511.333" y="270.667"/>
			<point x="482" y="296" type="curve" smooth="yes"/>
			<point x="458.667" y="316"/>
			<point x="439.333" y="332.333"/>
			<point x="424" y="345" type="curve" smooth="yes"/>
			<point x="413" y="355" type="line" smooth="yes"/>
			<point x="405" y="361.667"/>
			<point x="399.333" y="367"/>
			<point x="396" y="371" type="curve" smooth="yes"/>
			<point x="392.667" y="375"/>
			<point x="391" y="379"/>
			<point x="391" y="383" type="curve" smooth="yes"/>
			<point x="391" y="387"/>
			<point x="392.667" y="393"/>
			<point x="396" y="401" type="curve" smooth="yes"/>
			<point x="404" y="424" type="line"/>
			<point x="422.667" y="466"/>
			<point x="432" y="502"/>
			<point x="432" y="532" type="curve" smooth="yes"/>
			<point x="432" y="560"/>
			<point x="431.333" y="563.333"/>
			<point x="422" y="578" type="curve" smooth="yes"/>
			<point x="411.333" y="594"/>
			<point x="388.667" y="611"/>
			<point x="354" y="629" type="curve" smooth="yes"/>
			<point x="329.333" y="639.667"/>
			<point x="308" y="645"/>
			<point x="290" y="645" type="curve" smooth="yes"/>
			<point x="275.333" y="645"/>
			<point x="273.333" y="643.667"/>
			<point x="264" y="629" type="curve" smooth="yes"/>
			<point x="257.333" y="617"/>
			<point x="249" y="611"/>
			<point x="239" y="611" type="curve" smooth="yes"/>
			<point x="235" y="611" type="line" smooth="yes"/>
			<point x="205.667" y="607"/>
			<point x="176.333" y="590"/>
			<point x="163" y="574" type="curve" smooth="yes"/>
			<point x="158.333" y="569.333"/>
			<point x="150" y="558.667"/>
			<point x="138" y="542" type="curve" smooth="yes"/>
			<point x="118" y="517" type="line" smooth="yes"/>
			<point x="104" y="500.333"/>
			<point x="94" y="487.667"/>
			<point x="88" y="479" type="curve" smooth="yes"/>
			<point x="83.333" y="473"/>
			<point x="79.667" y="465.667"/>
			<point x="77" y="457" type="curve" smooth="yes"/>
			<point x="72.333" y="444.333"/>
			<point x="67.667" y="432.333"/>
			<point x="63" y="421" type="curve" smooth="yes"/>
			<point x="48.333" y="391.667"/>
			<point x="40" y="373.5"/>
			<point x="38" y="366.5" type="curve" smooth="yes"/>
			<point x="36" y="359.5"/>
			<point x="34.667" y="348.333"/>
			<point x="34" y="333" type="curve" smooth="yes"/>
			<point x="34" y="325" type="line" smooth="yes"/>
			<point x="34" y="313.667"/>
			<point x="36.667" y="285.333"/>
			<point x="42" y="240" type="curve"/>
			<point x="62" y="216.667"/>
			<point x="77.667" y="199.333"/>
			<point x="89" y="188" type="curve" smooth="yes"/>
			<point x="96.333" y="181.333"/>
			<point x="107" y="175"/>
			<point x="121" y="169" type="curve" smooth="yes"/>
			<point x="136.333" y="162.333"/>
			<point x="148" y="159"/>
			<point x="156" y="159" type="curve" smooth="yes"/>
			<point x="164" y="159"/>
			<point x="175" y="162"/>
			<point x="189" y="168" type="curve" smooth="yes"/>
			<point x="237" y="184"/>
			<point x="315" y="252.333"/>
			<point x="331" y="291" type="curve"/>
			<point x="345.667" y="317"/>
			<point x="357.333" y="330"/>
			<point x="366" y="330" type="curve" smooth="yes"/>
			<point x="373.333" y="330"/>
			<point x="395.333" y="313"/>
			<point x="432" y="279" type="curve" smooth="yes"/>
			<point x="488" y="231"/>
			<point x="529.667" y="191.667"/>
			<point x="557" y="161" type="curve" smooth="yes"/>
			<point x="562.333" y="155"/>
			<point x="568.333" y="152"/>
		</contour>
		<contour>
			<point x="153" y="205" type="curve" smooth="yes"/>
			<point x="141" y="205"/>
			<point x="128.333" y="211.667"/>
			<point x="115" y="225" type="curve" smooth="yes"/>
			<point x="92.333" y="249"/>
			<point x="82" y="267.667"/>
			<point x="82" y="309" type="curve" smooth="yes"/>
			<point x="82" y="370.333"/>
			<point x="109.667" y="438.667"/>
			<point x="151" y="492" type="curve" smooth="yes"/>
			<point x="165" y="508" type="line" smooth="yes"/>
			<point x="182.333" y="528"/>
			<point x="192.333" y="540.333"/>
			<point x="211" y="555" type="curve"/>
			<point x="223" y="562.333"/>
			<point x="234.333" y="567.667"/>
			<point x="245" y="571" type="curve" smooth="yes"/>
			<point x="261.667" y="576.333"/>
			<point x="271" y="581.333"/>
			<point x="273" y="586" type="curve" smooth="yes"/>
			<point x="279" y="596"/>
			<point x="284.667" y="601"/>
			<point x="290" y="601" type="curve" smooth="yes"/>
			<point x="294.667" y="601"/>
			<point x="302.333" y="600"/>
			<point x="313" y="598" type="curve" smooth="yes"/>
			<point x="334.333" y="592.667"/>
			<point x="370" y="571.333"/>
			<point x="382" y="558" type="curve" smooth="yes"/>
			<point x="386.667" y="553.333"/>
			<point x="389" y="541.333"/>
			<point x="389" y="522" type="curve" smooth="yes"/>
			<point x="389" y="498.667"/>
			<point x="386.667" y="482.667"/>
			<point x="382" y="474" type="curve"/>
			<point x="375" y="451" type="line" smooth="yes"/>
			<point x="367" y="425.667"/>
			<point x="361.667" y="414"/>
			<point x="347" y="414" type="curve"/>
			<point x="343.667" y="414.667"/>
			<point x="340.333" y="415.333"/>
			<point x="337" y="416" type="curve" smooth="yes"/>
			<point x="326" y="418" type="line"/>
			<point x="315.333" y="418"/>
			<point x="310" y="412.667"/>
			<point x="310" y="402" type="curve" smooth="yes"/>
			<point x="310" y="396"/>
			<point x="312.333" y="389.667"/>
			<point x="317" y="383" type="curve" smooth="yes"/>
			<point x="323" y="376.333"/>
			<point x="326" y="369.667"/>
			<point x="326" y="363" type="curve" smooth="yes"/>
			<point x="326" y="348.333"/>
			<point x="279.667" y="284"/>
			<point x="261" y="268" type="curve" smooth="yes"/>
			<point x="254.333" y="262.667"/>
			<point x="247.333" y="257"/>
			<point x="240" y="251" type="curve"/>
			<point x="224.667" y="235"/>
			<point x="208.333" y="223"/>
			<point x="191" y="215" type="curve" smooth="yes"/>
			<point x="176.333" y="208.333"/>
			<point x="163.667" y="205"/>
		</contour>
	</outline>
</glyph>
<glyph name="R" format="2">
	<advance width="496" height="896"/>
	<unicode hex="0052"/>
	<note>
		R
	</note>
	<outline>
		<contour>
			<point x="32" y="179" type="curve" smooth="yes"/>
			<point x="46.667" y="179"/>
			<point x="55.333" y="188.667"/>
			<point x="58" y="208" type="curve" smooth="yes"/>
			<point x="64" y="243.333"/>
			<point x="72" y="277.667"/>
			<point x="82" y="311" type="curve"/>
			<point x="90" y="330.333"/>
			<point x="101.333" y="340"/>
			<point x="116" y="340" type="curve" smooth="yes"/>
			<point x="124.667" y="340"/>
			<point x="134" y="337.667"/>
			<point x="144" y="333" type="curve"/>
			<point x="176.667" y="321.667"/>
			<point x="222.667" y="300.667"/>
			<point x="282" y="270" type="curve" smooth="yes"/>
			<point x="298.667" y="262"/>
			<point x="318" y="254.333"/>
			<point x="340" y="247" type="curve" smooth="yes"/>
			<point x="356.667" y="243"/>
			<point x="379" y="236"/>
			<point x="407" y="226" type="curve" smooth="yes"/>
			<point x="435" y="216"/>
			<point x="454.667" y="211"/>
			<point x="466" y="211" type="curve" smooth="yes"/>
			<point x="478" y="211"/>
			<point x="487" y="222.333"/>
			<point x="487" y="233" type="curve" smooth="yes"/>
			<point x="487" y="235.667"/>
			<point x="486" y="239"/>
			<point x="484" y="243" type="curve" smooth="yes"/>
			<point x="475.333" y="259"/>
			<point x="424.667" y="277.333"/>
			<point x="332" y="298" type="curve" smooth="yes"/>
			<point x="325.333" y="299.333"/>
			<point x="307" y="307.667"/>
			<point x="277" y="323" type="curve" smooth="yes"/>
			<point x="260" y="332" type="line" smooth="yes"/>
			<point x="244.667" y="341.333"/>
			<point x="234.333" y="347"/>
			<point x="229" y="349" type="curve" smooth="yes"/>
			<point x="189.667" y="364.333"/>
			<point x="170" y="376.667"/>
			<point x="170" y="386" type="curve" smooth="yes"/>
			<point x="170" y="392"/>
			<point x="175.333" y="398.333"/>
			<point x="186" y="405" type="curve"/>
			<point x="226" y="435.667"/>
			<point x="249.333" y="457.667"/>
			<point x="256" y="471" type="curve" smooth="yes"/>
			<point x="262" y="481"/>
			<point x="269.667" y="493.333"/>
			<point x="279" y="508" type="curve" smooth="yes"/>
			<point x="296.333" y="530.667"/>
			<point x="305" y="547"/>
			<point x="305" y="557" type="curve" smooth="yes"/>
			<point x="305" y="563"/>
			<point x="303.667" y="568.667"/>
			<point x="301" y="574" type="curve"/>
			<point x="295.667" y="590"/>
			<point x="282.333" y="598.667"/>
			<point x="253" y="608" type="curve" smooth="yes"/>
			<point x="230" y="617" type="line"/>
			<point x="229" y="618" type="line"/>
			<point x="228" y="618" type="line"/>
			<point x="218" y="622.667"/>
			<point x="199" y="625"/>
			<point x="171" y="625" type="curve" smooth="yes"/>
			<point x="153" y="625"/>
			<point x="141.667" y="623.667"/>
			<point x="137" y="621" type="curve" smooth="yes"/>
			<point x="123.667" y="615.667"/>
			<point x="99.333" y="587.667"/>
			<point x="98" y="573" type="curve" smooth="yes"/>
			<point x="91.333" y="533"/>
			<point x="81.667" y="488.667"/>
			<point x="69" y="440" type="curve" smooth="yes"/>
			<point x="67.667" y="436.667"/>
			<point x="66.333" y="430"/>
			<point x="65" y="420" type="curve" smooth="yes"/>
			<point x="63.667" y="402"/>
			<point x="58.333" y="389.667"/>
			<point x="49" y="383" type="curve"/>
			<point x="41" y="379"/>
			<point x="38" y="375.667"/>
			<point x="38" y="369" type="curve" smooth="yes"/>
			<point x="38" y="365"/>
			<point x="40" y="358.333"/>
			<point x="44" y="349" type="curve" smooth="yes"/>
			<point x="48" y="339"/>
			<point x="50" y="331.333"/>
			<point x="50" y="326" type="curve" smooth="yes"/>
			<point x="50" y="319.333"/>
			<point x="47.667" y="310.667"/>
			<point x="43" y="300" type="curve" smooth="yes"/>
			<point x="25" y="253.333"/>
			<point x="16" y="218.333"/>
			<point x="16" y="195" type="curve" smooth="yes"/>
			<point x="16" y="181.667"/>
			<point x="18.667" y="179"/>
		</contour>
		<contour>
			<point x="120" y="408" type="curve" smooth="yes"/>
			<point x="111.333" y="408"/>
			<point x="107" y="414.667"/>
			<point x="107" y="428" type="curve" smooth="yes"/>
			<point x="107" y="435.333"/>
			<point x="114.667" y="472.667"/>
			<point x="130" y="540" type="curve"/>
			<point x="131.333" y="542.667"/>
			<point x="133" y="548.333"/>
			<point x="135" y="557" type="curve" smooth="yes"/>
			<point x="139" y="578.333"/>
			<point x="144.333" y="588"/>
			<point x="159" y="588" type="curve" smooth="yes"/>
			<point x="161.667" y="588"/>
			<point x="163.333" y="587.667"/>
			<point x="164" y="587" type="curve"/>
			<point x="167" y="587" type="line" smooth="yes"/>
			<point x="211" y="583"/>
			<point x="256.667" y="565"/>
			<point x="258" y="549" type="curve"/>
			<point x="257.333" y="542.333"/>
			<point x="253" y="534"/>
			<point x="245" y="524" type="curve" smooth="yes"/>
			<point x="235" y="510.667"/>
			<point x="229.333" y="500.333"/>
			<point x="228" y="493" type="curve"/>
			<point x="222.667" y="485.667"/>
			<point x="213.333" y="477"/>
			<point x="200" y="467" type="curve" smooth="yes"/>
			<point x="189.333" y="458.333"/>
			<point x="181.333" y="450.333"/>
			<point x="176" y="443" type="curve" smooth="yes"/>
			<point x="164" y="428.333"/>
			<point x="133.333" y="408"/>
		</contour>
	</outline>
</glyph>
<glyph name="T" format="2">
	<advance width="500" height="908"/>
	<unicode hex="0054"/>
	<note>
		T
	</note>
	<outline>
		<contour>
			<point x="248" y="167" type="curve" smooth="yes"/>
			<point x="264" y="167"/>
			<point x="268" y="173.333"/>
			<point x="272" y="200" type="curve" smooth="yes"/>
			<point x="274.667" y="221.333"/>
			<point x="281" y="325.667"/>
			<point x="281" y="355" type="curve" smooth="yes"/>
			<point x="281" y="367"/>
			<point x="285.333" y="384.667"/>
			<point x="294" y="408" type="curve" smooth="yes"/>
			<point x="300.667" y="424"/>
			<point x="306.333" y="450.333"/>
			<point x="311" y="487" type="curve" smooth="yes"/>
			<point x="315" y="523.667"/>
			<point x="322.667" y="551.333"/>
			<point x="334" y="570" type="curve" smooth="yes"/>
			<point x="338.667" y="580"/>
			<point x="343.333" y="589.667"/>
			<point x="348" y="599" type="curve"/>
			<point x="374" y="610" type="line" smooth="yes"/>
			<point x="413.333" y="623.333"/>
			<point x="444.333" y="637"/>
			<point x="467" y="651" type="curve"/>
			<point x="470.333" y="654.333"/>
			<point x="472" y="659"/>
			<point x="472" y="665" type="curve" smooth="yes"/>
			<point x="472" y="669.667"/>
			<point x="471" y="673.333"/>
			<point x="469" y="676" type="curve" smooth="yes"/>
			<point x="466.333" y="678.667"/>
			<point x="459.667" y="680"/>
			<point x="449" y="680" type="curve" smooth="yes"/>
			<point x="445.667" y="680"/>
			<point x="443.333" y="679.333"/>
			<point x="442" y="678" type="curve"/>
			<point x="396" y="666" type="line" smooth="yes"/>
			<point x="374.667" y="659.333"/>
			<point x="360.667" y="654.333"/>
			<point x="354" y="651" type="curve" smooth="yes"/>
			<point x="347.333" y="648.333"/>
			<point x="327.667" y="642"/>
			<point x="295" y="632" type="curve" smooth="yes"/>
			<point x="265" y="622.667"/>
			<point x="242.333" y="613.667"/>
			<point x="227" y="605" type="curve" smooth="yes"/>
			<point x="212.333" y="597.667"/>
			<point x="195.667" y="593"/>
			<point x="177" y="591" type="curve" smooth="yes"/>
			<point x="160.333" y="589.667"/>
			<point x="146.333" y="587"/>
			<point x="135" y="583" type="curve" smooth="yes"/>
			<point x="117.667" y="577.667"/>
			<point x="102" y="575"/>
			<point x="88" y="575" type="curve" smooth="yes"/>
			<point x="78" y="575" type="line" smooth="yes"/>
			<point x="59.333" y="575"/>
			<point x="46.667" y="574.333"/>
			<point x="40" y="573" type="curve"/>
			<point x="35.333" y="571"/>
			<point x="33" y="566.667"/>
			<point x="33" y="560" type="curve" smooth="yes"/>
			<point x="33" y="554.667"/>
			<point x="34.333" y="550.333"/>
			<point x="37" y="547" type="curve" smooth="yes"/>
			<point x="39.667" y="543.667"/>
			<point x="46.667" y="540"/>
			<point x="58" y="536" type="curve" smooth="yes"/>
			<point x="70.667" y="530"/>
			<point x="84.667" y="527"/>
			<point x="100" y="527" type="curve" smooth="yes"/>
			<point x="114.667" y="527"/>
			<point x="128" y="529.333"/>
			<point x="140" y="534" type="curve"/>
			<point x="175" y="543" type="line" smooth="yes"/>
			<point x="211" y="551.667"/>
			<point x="237" y="559.667"/>
			<point x="253" y="567" type="curve"/>
			<point x="271" y="572" type="line"/>
			<point x="276.333" y="572"/>
			<point x="279" y="568.333"/>
			<point x="279" y="561" type="curve" smooth="yes"/>
			<point x="279" y="557"/>
			<point x="277.333" y="546.667"/>
			<point x="274" y="530" type="curve"/>
			<point x="272" y="524.667"/>
			<point x="269.667" y="506.667"/>
			<point x="267" y="476" type="curve" smooth="yes"/>
			<point x="266.333" y="462"/>
			<point x="262" y="446.333"/>
			<point x="254" y="429" type="curve" smooth="yes"/>
			<point x="246.667" y="411"/>
			<point x="243" y="393"/>
			<point x="243" y="375" type="curve" smooth="yes"/>
			<point x="243" y="359" type="line" smooth="yes"/>
			<point x="243" y="304.333"/>
			<point x="238.333" y="258.333"/>
			<point x="229" y="221" type="curve" smooth="yes"/>
			<point x="227" y="209.667"/>
			<point x="226" y="199.667"/>
			<point x="226" y="191" type="curve" smooth="yes"/>
			<point x="226" y="175"/>
			<point x="233.333" y="167"/>
		</contour>
	</outline>
</glyph>
<glyph name="V" format="2">
	<advance width="381" height="894"/>
	<unicode hex="0056"/>
	<note>
		V
	</note>
	<outline>
		<contour>
			<point x="172" y="182" type="curve" smooth="yes"/>
			<point x="179.333" y="182"/>
			<point x="187" y="184"/>
			<point x="195" y="188" type="curve"/>
			<point x="217.667" y="196"/>
			<point x="256.667" y="278.667"/>
			<point x="270" y="336" type="curve" smooth="yes"/>
			<point x="276" y="369" type="line" smooth="yes"/>
			<point x="289.333" y="430.333"/>
			<point x="302.667" y="475.667"/>
			<point x="316" y="505" type="curve" smooth="yes"/>
			<point x="321.333" y="516.333"/>
			<point x="326" y="534.667"/>
			<point x="330" y="560" type="curve" smooth="yes"/>
			<point x="332.667" y="582"/>
			<point x="336" y="600.333"/>
			<point x="340" y="615" type="curve" smooth="yes"/>
			<point x="346.667" y="638.333"/>
			<point x="350" y="657.667"/>
			<point x="350" y="673" type="curve" smooth="yes"/>
			<point x="350" y="685"/>
			<point x="347.667" y="692.333"/>
			<point x="343" y="695" type="curve"/>
			<point x="337" y="701"/>
			<point x="331.333" y="704"/>
			<point x="326" y="704" type="curve" smooth="yes"/>
			<point x="320.667" y="704"/>
			<point x="316.333" y="701.667"/>
			<point x="313" y="697" type="curve" smooth="yes"/>
			<point x="308.333" y="691"/>
			<point x="305.333" y="678.667"/>
			<point x="304" y="660" type="curve" smooth="yes"/>
			<point x="303.333" y="641.333"/>
			<point x="301.333" y="627.333"/>
			<point x="298" y="618" type="curve"/>
			<point x="289" y="571" type="line" smooth="yes"/>
			<point x="284.333" y="546.333"/>
			<point x="278.667" y="526"/>
			<point x="272" y="510" type="curve"/>
			<point x="240" y="397" type="line" smooth="yes"/>
			<point x="222" y="331.667"/>
			<point x="205.667" y="285.333"/>
			<point x="191" y="258" type="curve" smooth="yes"/>
			<point x="186.333" y="248.667"/>
			<point x="181" y="244"/>
			<point x="175" y="244" type="curve" smooth="yes"/>
			<point x="165.667" y="244"/>
			<point x="159" y="258"/>
			<point x="159" y="270" type="curve" smooth="yes"/>
			<point x="159" y="274" type="line"/>
			<point x="160" y="274" type="line"/>
			<point x="160" y="275.333"/>
			<point x="155.333" y="291.333"/>
			<point x="146" y="322" type="curve" smooth="yes"/>
			<point x="138" y="350.667"/>
			<point x="133.333" y="370.333"/>
			<point x="132" y="381" type="curve" smooth="yes"/>
			<point x="132" y="389"/>
			<point x="129" y="401.333"/>
			<point x="123" y="418" type="curve" smooth="yes"/>
			<point x="119" y="430.667"/>
			<point x="114.333" y="449"/>
			<point x="109" y="473" type="curve" smooth="yes"/>
			<point x="103.667" y="497.667"/>
			<point x="97.333" y="518"/>
			<point x="90" y="534" type="curve" smooth="yes"/>
			<point x="83.333" y="550"/>
			<point x="59" y="569"/>
			<point x="47" y="569" type="curve" smooth="yes"/>
			<point x="36.333" y="569"/>
			<point x="31" y="563.333"/>
			<point x="31" y="552" type="curve" smooth="yes"/>
			<point x="31" y="542.667"/>
			<point x="36.667" y="534"/>
			<point x="42" y="526" type="curve" smooth="yes"/>
			<point x="48.667" y="516"/>
			<point x="53.667" y="507"/>
			<point x="57" y="499" type="curve" smooth="yes"/>
			<point x="61.667" y="483"/>
			<point x="65" y="469.333"/>
			<point x="67" y="458" type="curve" smooth="yes"/>
			<point x="86.333" y="377.333"/>
			<point x="105.333" y="307.333"/>
			<point x="124" y="248" type="curve" smooth="yes"/>
			<point x="130" y="233" type="line" smooth="yes"/>
			<point x="143.333" y="197"/>
			<point x="153.333" y="182"/>
		</contour>
	</outline>
</glyph>
<glyph name="X" format="2">
	<advance width="388" height="898"/>
	<unicode hex="0058"/>
	<note>
		X
	</note>
	<outline>
		<contour>
			<point x="49" y="177" type="curve" smooth="yes"/>
			<point x="59.667" y="177"/>
			<point x="68.333" y="186"/>
			<point x="71" y="202" type="curve" smooth="yes"/>
			<point x="74.333" y="224"/>
			<point x="82.333" y="242.333"/>
			<point x="95" y="257" type="curve" smooth="yes"/>
			<point x="100.333" y="263.667"/>
			<point x="109" y="277.667"/>
			<point x="121" y="299" type="curve" smooth="yes"/>
			<point x="133" y="321.667"/>
			<point x="141.333" y="335.667"/>
			<point x="146" y="341" type="curve"/>
			<point x="158" y="359" type="line" smooth="yes"/>
			<point x="166.667" y="373.667"/>
			<point x="174" y="381"/>
			<point x="180" y="381" type="curve" smooth="yes"/>
			<point x="185.333" y="381"/>
			<point x="191.667" y="376.333"/>
			<point x="199" y="367" type="curve" smooth="yes"/>
			<point x="202.333" y="362.333"/>
			<point x="214" y="345.333"/>
			<point x="234" y="316" type="curve" smooth="yes"/>
			<point x="240" y="308.667"/>
			<point x="253" y="288.333"/>
			<point x="273" y="255" type="curve" smooth="yes"/>
			<point x="287" y="231.667"/>
			<point x="298.333" y="213.833"/>
			<point x="307" y="201.5" type="curve" smooth="yes"/>
			<point x="315.667" y="189.167"/>
			<point x="323.333" y="183"/>
			<point x="330" y="183" type="curve" smooth="yes"/>
			<point x="332" y="183" type="line" smooth="yes"/>
			<point x="340" y="183"/>
			<point x="354" y="196.667"/>
			<point x="354" y="206" type="curve" smooth="yes"/>
			<point x="354" y="213.333"/>
			<point x="349" y="222"/>
			<point x="339" y="232" type="curve" smooth="yes"/>
			<point x="328.333" y="242.667"/>
			<point x="317.333" y="260.333"/>
			<point x="306" y="285" type="curve" smooth="yes"/>
			<point x="291.333" y="315.667"/>
			<point x="266" y="356"/>
			<point x="230" y="406" type="curve" smooth="yes"/>
			<point x="218.667" y="423.333"/>
			<point x="213" y="434.667"/>
			<point x="213" y="440" type="curve" smooth="yes"/>
			<point x="213" y="446"/>
			<point x="218.333" y="455.333"/>
			<point x="229" y="468" type="curve" smooth="yes"/>
			<point x="262.333" y="506.667"/>
			<point x="272" y="519"/>
			<point x="288" y="547" type="curve"/>
			<point x="297.333" y="559.667"/>
			<point x="306" y="569.333"/>
			<point x="314" y="576" type="curve"/>
			<point x="324" y="582"/>
			<point x="329" y="587.667"/>
			<point x="329" y="593" type="curve" smooth="yes"/>
			<point x="329" y="602.333"/>
			<point x="325.333" y="607"/>
			<point x="318" y="607" type="curve" smooth="yes"/>
			<point x="314" y="607"/>
			<point x="306.333" y="605"/>
			<point x="295" y="601" type="curve" smooth="yes"/>
			<point x="271" y="593"/>
			<point x="269" y="590.333"/>
			<point x="257" y="569" type="curve"/>
			<point x="254.333" y="562.333"/>
			<point x="243.667" y="548.333"/>
			<point x="225" y="527" type="curve" smooth="yes"/>
			<point x="205.667" y="504.333"/>
			<point x="194.667" y="490.333"/>
			<point x="192" y="485" type="curve" smooth="yes"/>
			<point x="188" y="477"/>
			<point x="182.333" y="473"/>
			<point x="175" y="473" type="curve" smooth="yes"/>
			<point x="168.333" y="473"/>
			<point x="163" y="476.333"/>
			<point x="159" y="483" type="curve" smooth="yes"/>
			<point x="148.333" y="504.333"/>
			<point x="108.333" y="531"/>
			<point x="91" y="531" type="curve" smooth="yes"/>
			<point x="77.667" y="531"/>
			<point x="71" y="526"/>
			<point x="71" y="516" type="curve" smooth="yes"/>
			<point x="71" y="510"/>
			<point x="79.667" y="498.333"/>
			<point x="97" y="481" type="curve" smooth="yes"/>
			<point x="128.333" y="453"/>
			<point x="144" y="432.667"/>
			<point x="144" y="420" type="curve" smooth="yes"/>
			<point x="144" y="416"/>
			<point x="140" y="408.333"/>
			<point x="132" y="397" type="curve"/>
			<point x="126.667" y="391.667"/>
			<point x="114" y="370"/>
			<point x="94" y="332" type="curve" smooth="yes"/>
			<point x="73.333" y="294.667"/>
			<point x="61" y="273"/>
			<point x="57" y="267" type="curve" smooth="yes"/>
			<point x="42.333" y="247"/>
			<point x="31" y="217"/>
			<point x="31" y="197" type="curve" smooth="yes"/>
			<point x="31" y="191.667"/>
			<point x="32" y="188"/>
			<point x="34" y="186" type="curve" smooth="yes"/>
			<point x="38" y="180"/>
			<point x="43" y="177"/>
		</contour>
	</outline>
</glyph>
<glyph name="Y" format="2">
	<advance width="371" height="978"/>
	<unicode hex="0059"/>
	<note>
		Y
	</note>
	<outline>
		<contour>
			<point x="124" y="98" type="curve" smooth="yes"/>
			<point x="128.667" y="98"/>
			<point x="133.667" y="100.333"/>
			<point x="139" y="105" type="curve"/>
			<point x="143.667" y="111.667"/>
			<point x="147" y="118.667"/>
			<point x="149" y="126" type="curve" smooth="yes"/>
			<point x="151" y="138.667"/>
			<point x="152.333" y="155.667"/>
			<point x="153" y="177" type="curve" smooth="yes"/>
			<point x="153.667" y="197.667"/>
			<point x="156.667" y="223.333"/>
			<point x="162" y="254" type="curve" smooth="yes"/>
			<point x="166" y="278.667"/>
			<point x="168.667" y="311.667"/>
			<point x="170" y="353" type="curve" smooth="yes"/>
			<point x="171.333" y="397.667"/>
			<point x="175.333" y="432.667"/>
			<point x="182" y="458" type="curve" smooth="yes"/>
			<point x="185.333" y="468"/>
			<point x="187.333" y="476"/>
			<point x="188" y="482" type="curve" smooth="yes"/>
			<point x="188" y="486.667"/>
			<point x="192" y="493.333"/>
			<point x="200" y="502" type="curve" smooth="yes"/>
			<point x="206.667" y="508.667"/>
			<point x="210.667" y="514"/>
			<point x="212" y="518" type="curve"/>
			<point x="215.333" y="522.667"/>
			<point x="225" y="534.333"/>
			<point x="241" y="553" type="curve" smooth="yes"/>
			<point x="257" y="570.333"/>
			<point x="267" y="583"/>
			<point x="271" y="591" type="curve" smooth="yes"/>
			<point x="271.667" y="593"/>
			<point x="283.667" y="608.333"/>
			<point x="307" y="637" type="curve" smooth="yes"/>
			<point x="329" y="663.667"/>
			<point x="340" y="679.667"/>
			<point x="340" y="685" type="curve" smooth="yes"/>
			<point x="340" y="687" type="line" smooth="yes"/>
			<point x="340" y="695"/>
			<point x="338" y="700.333"/>
			<point x="334" y="703" type="curve" smooth="yes"/>
			<point x="330.667" y="705.667"/>
			<point x="327" y="707"/>
			<point x="323" y="707" type="curve" smooth="yes"/>
			<point x="316.333" y="707"/>
			<point x="308.667" y="701.667"/>
			<point x="300" y="691" type="curve" smooth="yes"/>
			<point x="274" y="663"/>
			<point x="253" y="635.667"/>
			<point x="237" y="609" type="curve" smooth="yes"/>
			<point x="214.333" y="570.333"/>
			<point x="165" y="513"/>
			<point x="153" y="513" type="curve" smooth="yes"/>
			<point x="145" y="513.667"/>
			<point x="120" y="546"/>
			<point x="78" y="610" type="curve" smooth="yes"/>
			<point x="65" y="630" type="line" smooth="yes"/>
			<point x="63.667" y="632"/>
			<point x="59.333" y="634.333"/>
			<point x="52" y="637" type="curve"/>
			<point x="40" y="637"/>
			<point x="31" y="626"/>
			<point x="31" y="610" type="curve" smooth="yes"/>
			<point x="32.333" y="592.667"/>
			<point x="56.667" y="550"/>
			<point x="82" y="522" type="curve"/>
			<point x="110" y="499.333"/>
			<point x="128" y="447.667"/>
			<point x="128" y="393" type="curve" smooth="yes"/>
			<point x="128" y="346.333"/>
			<point x="119.333" y="234.333"/>
			<point x="114" y="213" type="curve" smooth="yes"/>
			<point x="107.333" y="184.333"/>
			<point x="104" y="157"/>
			<point x="104" y="131" type="curve" smooth="yes"/>
			<point x="104" y="115"/>
			<point x="106" y="106"/>
			<point x="110" y="104" type="curve"/>
			<point x="114.667" y="100"/>
			<point x="119.333" y="98"/>
		</contour>
	</outline>
</glyph>
